<?xml version="1.0" encoding="UTF-8" standalone="no"?>
<svg
   version="1.1"
   id="frame-svg"
   preserveAspectRatio="none"
   x="0px"
   y="0px"
   width="100.44488"
   height="119.93578"
   viewBox="0 0 100.44488 119.93578"
   enable-background="new 0 0 564 705"
   xmlSpace="preserve"
   xmlns="http://www.w3.org/2000/svg"
   xmlnsSvg="http://www.w3.org/2000/svg">
   <path
   fill="#856141"
   opacity="1"
   stroke="none"
   d="M 3.905794,1.862641 C 4.5728857,1.1710012 6.1955205,1.5296801 7.0732048,1.1482001 7.7762542,3.5028899 8.7423583,4.4087027 8.2649241,7.2586627 7.7415677,6.8584045 6.9958192,7.6090841 7.3660077,8.4179842 10.536352,8.6239042 9.257099,7.5128609 9.6167192,4.7234909 c 0.2164165,-0.46344 0.3907528,-0.53891 0.8240698,-0.48666 0.712023,0.56607 1.035177,1.13246 1.417086,2.07907 0.309542,0.99988 -0.922487,-2.00524 -0.856974,-0.93012 0.06138,0.59983 -0.07443,2.50327 -0.02529,4.27457 -0.103057,3.3139501 -0.08563,3.2229301 -0.01853,5.8467701 -0.0056,1.21234 0.03826,3.4766 0.03448,4.71764 0.08816,4.8447 -0.02094,4.77026 -0.01152,16.58379 0.07193,12.99862 -0.303404,19.3643 -0.398325,32.59552 -0.02119,2.95166 -0.04084,8.66239 0.04511,13.72389 -0.840566,1.14528 -0.41868,0.15573 -1.6004202,-0.16124 -1.3910125,-1.25276 -1.4953664,-2.7217 -1.5034537,-4.25472 -0.079021,-14.95214 0.6354512,-29.89265 0.4547752,-45.22464 0.017882,-0.71348 -0.035684,-1.03715 -0.128914,-1.34904 -0.00854,0.11899 0.059769,0.20776 0.1181926,0.66544 -0.3152204,7.73658 0.1335778,15.12834 -0.060574,22.5144 -0.045834,1.74106 0.4339447,3.67209 -1.2431284,5.09393 C 3.9278167,58.650531 4.8849002,55.854461 4.8499652,53.320601 4.7362029,45.075181 4.560658,36.831071 4.1547129,28.502851 3.6849552,19.714981 5.1260781,11.009001 3.9057618,1.862641 Z"
   id="path1570"
   style="stroke-width:0.897502" /><path
   fill="#5f3b1e"
   opacity="1"
   stroke="none"
   d="m 99.168516,55.183921 c -0.139848,1.82465 -0.146357,3.23989 -0.144264,5.07958 0.686339,6.53106 0.145405,12.6815 0.3012,19.26068 -2.716371,4.42244 -3.056948,-1.0568 -4.720194,-2.33685 -0.948408,-2.4618 -0.696933,-4.7145 -0.49975,-7.30787 3.18394,-1.42187 2.413886,-4.57458 1.82233,-7.9096 -0.162407,-0.72989 -0.226714,-1.15284 -0.251822,-1.89701 0.03119,-0.50264 0.05952,-0.69552 0.163297,-1.13992 0.227978,-0.55395 0.228725,-0.87443 0.06469,-1.48103 -0.07648,-0.47095 -0.08967,-0.66785 -0.07878,-1.16416 0.17037,-1.29832 0.614449,-2.12664 0.787395,-3.42634 0.02514,-0.72151 0.02956,-1.13687 0.02779,-1.87403 -0.0041,-0.54049 -0.0061,-0.75927 -0.01563,-1.31099 -0.200255,-2.14064 -1.000336,-3.83082 -0.445404,-6.14207 0.551616,-3.88846 -0.523308,-7.89987 1.838135,-10.92035 1.812935,4.23184 0.586535,8.78841 1.009542,13.61472 0.608972,3.1231 0.208259,5.85118 0.141506,8.95524 z"
   id="path1268"
   style="stroke-width:0.824316" /><path
   fill="#5f3b1e"
   opacity="1"
   stroke="none"
   d="m 98.460503,35.8214 c -0.543955,0.322209 -0.579138,-0.143075 -0.58333,-0.374183 0.667902,-3.625698 -0.92352,-7.089545 1.534465,-10.775698 0.08034,3.385722 1.548922,7.149904 -0.951135,11.149881 z"
   id="path1276"
   style="stroke-width:1.44253" /><path
   fill="#906544"
   opacity="1"
   stroke="none"
   d="m 95.786544,24.982565 c -1.43451,2.7612 -1.89975,5.326 -0.19754,7.73568 1.1947,1.69132 0.10324,2.97098 -0.17038,4.53469 -0.44956,2.56924 -1.07303,5.34286 0.70978,7.93565 0.68606,0.36386 0.91574,0.77327 0.91299,1.6687 -1.51663,3.35063 -0.98318,6.47481 -0.60995,9.94583 0.12616,1.3342 0.11319,2.30925 0.12204,3.64975 0.038,0.60768 0.0652,0.84966 0.17596,1.44742 0.26804,2.55112 0.19601,4.71378 -0.97458,7.03861 -0.27765,2.65022 -0.3139,5.02911 -0.36429,7.85351 3.253973,3.396416 2.585697,6.246777 2.412567,10.097867 -0.38397,0.71661 -1.248094,2.895427 -0.900834,3.738457 0.51513,1.06728 0.318865,1.952189 -0.161185,3.148769 0.915253,3.608469 -0.720391,18.692172 -4.067686,19.580362 -1.27023,0.0765 -0.135822,-19.557915 -0.966332,-20.593565 -1.05563,-9.84678 -0.94714,-19.29399 0.33136,-29.18338 0.009,-6.1064 0.008,-11.74754 0.003,-17.85963 0.14542,-9.89284 -1.569343,-28.818897 -0.901553,-38.6822371 1.01053,-1.88448 3.103216,-2.6621189 4.614656,-1.4089389 0.32043,0.73764 0.589577,11.493646 0.574097,12.189516 -0.73095,1.20861 -0.11798,1.97692 0.34498,3.11188 0.28414,1.58125 0.16098,2.75749 -0.88663,4.05106 z"
   id="path1588" /><path
   fill="#5a361a"
   opacity="1"
   stroke="none"
   d="m 96.026097,0.10283619 c 2.988665,0.15225529 3.747645,2.00111311 3.692515,4.91768161 -0.07548,3.9946543 -0.01387,7.9930612 -0.01544,12.6262542 -1.198494,4.589343 -0.292086,8.690041 -0.623795,13.252217 -3.231473,2.660332 -2.998198,-1.366367 -4.329366,-3.315812 -0.293365,-4.667602 1.286632,-8.373561 2.066933,-11.858959 -0.03774,1.085672 -0.743313,1.817555 -2.356683,1.824192 -0.618369,-0.302833 1.415762,-0.231539 0.958333,-0.83648 -0.461966,-1.004638 -0.568804,-1.892916 -0.680955,-3.012447 -0.04834,-1.366877 0.08693,-4.6223725 0.216807,-5.8934845 0.05181,-1.1041392 -2.541603,-1.6700552 -3.504043,-2.0528231 -4.036904,0.2331793 -12.052867,0.4841316 -16.126064,0.385935 -2.560551,-5.91314011 1.983309,-5.31195631 6.726537,-5.62582496 0.928301,-0.0614238 3.481824,1.04823336 4.615488,-0.0241225 1.278422,-0.1277954 2.099802,-0.55292321 3.33956,-0.0426892 3.08239,0.083885 2.881091,-0.16207401 6.479163,-0.0759325 z"
   id="path1269"
   style="stroke-width:1.25172" /><path
   fill="#7e512f"
   opacity="1"
   stroke="none"
   d="m 96.586176,26.527603 c 1.364442,0.487063 1.027576,2.486536 1.58832,3.849828 0.222321,0.359058 0.312406,0.486899 0.273545,0.817915 -0.130905,0.603764 -0.132836,1.004369 -0.135725,1.705183 -1.25896,3.586056 0.04758,7.392327 -0.915592,11.059908 -0.378961,0.525407 -0.625653,0.718163 -1.081672,0.958101 -2.317196,-0.595298 -1.835206,-3.403973 -1.762339,-5.618118 0.09479,-2.880705 0.636127,-5.660735 -0.173916,-8.590339 -0.395482,-1.430326 -0.143245,-3.271239 0.812981,-4.779694 0.613265,-0.454483 0.981459,-0.242696 1.394398,0.597216 z"
   id="path1271"
   style="stroke-width:0.708769" /><path
   fill="#7e6d5e"
   opacity="1"
   stroke="none"
   d="m 36.185146,1.2370452 c 4.11752,-1.73206 8.5874,-1.06881 13.35626,-0.29457 -4.12189,1.6193 -8.58798,1.03831 -13.35626,0.29457 z"
   id="path1273" /><path
   fill="#371b11"
   opacity="1"
   stroke="none"
   d="m 97.501306,85.225516 c 0.32031,-6.67562 0.40731,-13.05044 0.50119,-19.8883 1.55911,1.23425 0.9389,3.32686 0.94455,5.25224 0.046,15.76265 0.0229,31.525504 0.0105,47.754754 -0.0103,0.46646 -0.47488,0.47058 -0.70715,0.47119 -0.44076,0.15027 -0.64923,0.29993 -1.20856,0.28924 -0.71682,-0.5335 -0.9909,-0.96508 -1.27066,-1.82888 -0.15106,-0.88391 -0.17657,-1.39505 -0.16931,-2.28736 0.0563,-6.35937 0.9242,-12.29966 0.86817,-18.660674 -0.006,-1.12837 -0.10627,-1.87909 -0.023,-3.00867 0.0299,-1.38045 0.0167,-2.3849 0.0374,-3.76694 0.0137,-0.88288 0.0335,-1.38758 0.11218,-2.26957 0.168,-0.87673 0.37604,-1.33623 0.90464,-2.05703 z"
   id="path1272" /><path
   fill="#dec27e"
   opacity="1"
   stroke="none"
   d="m 64.325034,3.2936195 c 0.83112,-0.0247 1.25739,0.0434 2.00144,0.033 1.32482,-0.97495 2.43603,-1.21834 4.04305,-0.33562 0.73902,0.34296 1.11732,0.40611 1.7793,0.40787 1.94116,0.66166 3.76642,-0.0504 5.62668,0.95337 0.0599,0.69145 -0.0676,0.9709 -0.56409,1.5375 -4.61056,1.31661 -8.92312,0.77913 -13.19275,0.73541 -13.05215,-0.13368 -26.11306,0.55301 -39.58786,-0.6056 -0.9551,-0.69006 -1.19522,-1.26671 -0.89959,-2.38268 13.63141,-0.36432 27.01019,-0.30737 40.79382,-0.34329 z"
   id="path1571" /><path
   fill="#7e512f"
   opacity="1"
   stroke="none"
   d="M 77.215017,5.2576791 C 75.334187,5.0154373 73.334833,3.8080466 71.488773,3.623828 c 1.13958,-0.1585636 3.860082,0.044558 5.767642,-0.030975 4.1994,-0.6501144 7.153152,1.2024422 11.345812,0.9393365 0.48056,0.180255 0.52096,0.3504809 0.2561,0.717595 -3.9689,0.8891222 -7.6272,0.9312146 -11.64331,0.00789 z"
   id="path1599"
   style="stroke-width:0.737876" /><path
   fill="#703f1b"
   opacity="1"
   stroke="none"
   d="M 7.1061381,0.82889686 C 15.172587,0.66450124 23.277655,0.55797969 31.631214,0.53002045 c 0.936911,0.23068133 1.490425,0.24564098 2.303186,0.0837821 1.637769,-0.0960086 3.053407,-0.0990399 4.893746,-0.0999086 2.558037,0.68885105 4.709952,1.24949065 7.336995,0.13022214 1.325438,-0.11390837 2.406705,-0.11466625 3.893489,-0.11289283 0.578706,0.0654269 0.751883,0.12831736 1.182858,0.0955186 1.020175,-0.0960791 1.782573,-0.0964677 2.926145,-0.0955131 3.311877,0.21880838 6.087527,0.73292694 8.930041,1.11595424 2.53105,0.341053 3.177007,1.0975741 1.254913,2.314912 C 60.078842,4.9123298 56.01095,4.353711 52.007405,4.2808169 42.892672,4.1148955 33.793625,4.6785665 24.297024,4.3508871 21.06218,4.5626376 17.935096,3.6431406 15.272857,5.0145928 14.926727,6.5547756 11.742684,6.0221945 9.8512603,8.4426351 10.737791,12.845821 9.4861674,11.704949 9.1211386,11.299146 7.0491342,11.606473 5.78771,6.113321 8.7900257,4.772101 7.821208,3.7697933 6.5624145,4.1927298 7.1061381,0.82889686 Z"
   id="path1263"
   style="stroke-width:0.717828" /><path
   fill="#5f3b1e"
   opacity="1"
   stroke="none"
   d="m 82.669895,0.42481221 c 0.37354,0.77973549 0.58463,1.57844189 -2.00522,1.01281189 -2.76785,-0.60452316 -3.47287,0.3080088 -3.48306,1.6461951 -0.73657,0.9002001 -2.12439,0.9402873 -3.8992,0.9878014 -0.89472,-0.00446 -1.39447,-0.02512 -2.23194,-0.105284 -1.65612,-0.3011914 -2.8471,-0.9355756 -4.74758,-0.3304034 -0.75846,0.064895 -1.43033,0.020215 -2.09735,-0.1633511 -0.47455,-0.4803872 -0.54798,-1.1699202 -0.67231,-1.1617304 -3.61981,0.2382291 -6.16748,-0.8659246 -9.16022,-1.79140284 9.13126,-0.10809318 18.48093,-0.10612623 28.29688,-0.0946367 z"
   id="path1270"
   style="stroke-width:0.703885" /><path
   fill="#412d23"
   opacity="1"
   stroke="none"
   d="m 1.6660363,2.4319852 c 0.18869,1.13621 -3.4740298,-2.55860098 -0.2393499,-2.34234979 6.31344,0.0247 6.3823499,0.03104979 12.2956296,0.0086998 9.15554,-0.0347 9.22614,-0.09410792 21.19928,-0.08510792 9.36309,-0.0298 8.99268,0.04466931 15.14943,-0.02313069 17.9219,-0.0508 28.41477,0.10533861 42.55862,0.06543861 6.64164,-0.0188 4.637831,-0.0554062472 7.851074,0.006991 0.0619,2.62655999 0.014,7.82956959 -0.0561,6.79440169 0.031,2.6847 0.038,0.9524471 0.0179,3.7114121 0.002,1.7146 -0.003,1.69255 0.0351,4.3462 0.007,15.59084 -0.10487,28.707485 -0.0702,43.802415 0.0388,16.99387 -0.0969,27.3992 -0.10774,44.121045 -0.006,9.24568 -0.0272,9.26874 0.0882,12.92946 -0.731417,0.0786 -1.124027,-1.13624 -1.892887,-1.30623 -0.03506,-2.68089 -0.08649,-1.51296 -0.09421,-3.62181 -0.0491,-13.412593 0.07232,4.33593 0.05571,-39.126411 -7.56e-4,-1.98038 0.05595,-1.893083 0.04328,-5.331401 0.04672,-2.458199 -0.03178,-4.782958 -0.0806,-6.992828 0.09103,-4.090288 0.147032,-7.127318 0.14141,-11.289987 0.105129,-4.990629 0.07649,-10.957556 0.02008,-6.907182 0.05903,1.822055 0.04584,-2.107315 0.109189,-8.652278 0.01015,-4.155099 0.03947,-6.681331 0.06579,-10.49291 -0.02769,-4.17625 0.06936,-16.3252685 -0.02936,-20.7954299 -2.612454,-0.019982 -8.032757,0.045254 -10.728046,0.018469 -2.428486,0.028967 -2.418988,0.039046 -6.41875,-0.026573 -9.633398,0.060904 -9.645949,0.038083 -18.654154,-0.067873 -1.532892,0.00634 -1.518868,0.00794 -2.816138,0.055293 -0.70828,0.0166 -4.049541,0.045335 -4.752661,0.045635 -1.53784,-0.009 -2.211795,-0.036141 -5.088383,-0.00305 -2.536812,0.094973 -6.914806,-0.020931 -9.267616,0.1082693 -1.82223,0.36429 -2.980583,0.026128 -4.833303,0.042968 -1.01117,-0.005 -2.34149,-0.024835 -3.630837,-0.016604 -2.507121,-0.017867 -2.458478,-0.057251 -5.189891,-0.017178 -1.346117,-0.064539 -5.361539,-0.024835 -7.086916,0.00521 -3.584088,0.090902 -3.611116,0.057169 -18.2912387,0.2249317 0.10379,27.5551499 0.2928495,64.9737789 0.3174575,92.5289909 0.007,7.838368 -0.0483,10.108638 0.1318332,16.889158 -0.3080191,3.50649 4.9809373,-5.68089 4.6410273,-2.79307 -0.69482,1.63388 -1.72148,2.37723 -3.12254,3.37027 -1.07834,0.31595 -2.8401886,-0.64793 -3.89519859,-1.05338 -0.0069654,-4.68441 0.01023465,-2.83186 -0.02095139,-8.42555 -0.0187459,-3.362358 0.0558,-6.568971 0.0573,-9.870181 0.0118,-25.87776 -0.20317,-51.43349 0.0931,-77.94827 0.008,-5.2978797 -0.0234,-9.2071797 -0.0169,-12.0887297 -0.26568,-5.30594 1.40379998,2.17067 1.51255998,0.20224 z"
   id="path895"
 /><path
   fill="#71421d"
   opacity="1"
   stroke="none"
   d="m 95.491136,99.489192 c 0.283455,-0.17128 0.555699,-0.35422 0.920347,-0.76691 0.231779,-0.30435 0.371153,-0.37897 0.684897,-0.19315 1.341128,4.826508 0.05333,9.621688 0.474934,14.287698 0.112133,1.24109 0.03067,2.59174 0.307162,4.26138 0.04372,0.86899 0.03599,1.318 -0.0091,2.09549 -0.280525,0.093 -0.523706,-0.14248 -0.901849,-0.42193 -1.524691,1.06357 -7.928535,-0.8519 -9.256636,-2.42774 -0.24709,-1.5126 4.543421,-2.31469 4.946806,-3.613 1.408034,-1.50665 2.354245,-2.48783 1.844241,-5.45505 -0.418817,-2.43667 -0.437885,-5.18914 0.828283,-7.509528 0.125071,-0.27881 0.149743,-0.26892 0.160949,-0.25726 z"
   id="path1604"
   style="stroke-width:0.701676" /><path
   fill="#774e35"
   opacity="1"
   stroke="none"
   d="m 4.8821534,119.45688 c -0.4725325,-0.5467 -0.489936,-1.04191 -0.4671948,-1.78798 0.8365545,-0.2596 1.6329846,-0.2683 2.8243774,-0.32615 1.874593,-0.99075 3.631097,-1.22725 5.552736,-1.18327 20.219672,0.46303 40.445382,0.16971 61.107194,0.2329 5.66352,-0.0138 10.887925,-0.003 16.511087,0.0304 1.258784,-0.13234 1.052085,-0.49235 1.777735,0.28277 0.666111,-0.0234 6.067218,-0.0512 6.002558,1.55799 0.33375,0.78526 -4.264668,0.88217 -4.348844,1.20416 -15.102693,0.17831 -30.021335,0.16948 -45.413747,0.14896 -1.937054,-0.59824 -3.504189,-0.23901 -5.311828,-0.14382 -1.028723,0.12729 -1.7741,0.12858 -2.891951,0.11801 -0.550123,-0.0843 -0.727821,-0.15675 -1.186157,-0.14069 -2.0007,0.0951 -3.720794,0.10168 -5.870474,0.0952 -0.923856,-0.22326 -1.456525,-0.25735 -2.262291,-0.11259 -3.644797,0.0854 -7.038304,0.0924 -10.892572,0.0736 -0.63994,-0.0665 -0.819151,-0.10727 -1.271763,-0.0985 -4.650181,0.0666 -9.0269488,0.0835 -13.8588656,0.049 z"
   id="path1577"
   style="stroke-width:0.860163" /><path
   fill="#bca182"
   opacity="1"
   stroke="none"
   d="m 1.8877363,6.6391752 c -0.37427,-0.052 -0.67677,-0.51711 -1.01328998,-1.26671 0.15273998,-1.15151 0.33948998,-2.01846 0.78342998,-3.10311 0.27202,1.17382 0.28682,2.56528 0.22986,4.36982 z"
   id="path1209" /><path
   fill="#2f211a"
   opacity="1"
   stroke="none"
   d="m 0.16373632,119.38146 c -0.0714,-8.98549 -0.68891931,-13.12841 2.01560508,-8.45958 0.45979,-0.43698 0.1013644,4.44192 0.2310434,6.93541 0.026029,1.12283 2.1329184,0.82585 4.4063617,0.88986 4.2173075,0.0155 5.6132675,-0.31139 9.7265175,-0.22954 0.68692,3.4e-4 3.029188,4e-4 3.721598,2.2e-4 3.50449,-0.001 5.465535,0.0517 8.970545,0.0547 0.96823,0.003 2.109892,0.0308 3.069392,0.0298 2.02579,-0.007 2.247938,-0.005 4.269338,-0.003 0.67388,0.001 1.909948,0.002 2.586068,0.001 1.22495,-0.003 1.23878,-0.0288 2.47414,-0.0228 1.82571,0.007 6.428274,0.009 8.271384,-0.002 14.30417,-0.0352 26.430337,-0.0533 40.726727,0.12765 0.98523,-0.0639 2.269396,-5e-4 3.239246,-0.0197 0.67288,0.0486 2.251018,0.0109 4.599891,0.01 0.0064,-5.18104 -0.439845,-7.29388 1.851397,-7.19767 0.19525,1.29388 0.0895,4.90149 0.0974,8.42467 -5.745141,0.13403 -2.593334,0.0115 -17.268134,0.0157 -15.54151,-0.14913 -15.3502,-0.10603 -40.15637,-0.15793 -6.95759,-0.0146 -6.985848,0.0421 -22.304928,0.0664 -13.0423303,0.0629 -0.08844,-0.0637 -15.1033984,0.0215 -3.15311,-0.0853 -1.6336633,-0.0419 -5.37019328,-0.0825 z"
   id="path1265" /><path
   fill="#5f3b1e"
   opacity="1"
   stroke="none"
   d="m 44.292678,1.3679521 c -1.18243,4.03369 -2.93756,4.19886 -6.41843,0.31501 1.88681,-0.32982 3.93311,-0.32972 6.41843,-0.31501 z"
   id="path1274" /><path
   fill="#594134"
   opacity="1"
   stroke="none"
   d="m 3.8804955,115.03855 c -2.64825,-0.32081 -2.27054,-2.52562 -2.27072,-4.43244 -0.003,-35.102454 -0.005,-70.20494 0.0774,-105.3071545 0.004,-1.6337013 -1.12629004,-4.97402118 2.72377,-3.6750816 0.75732,1.8659094 1.39685,3.4837621 1.64138,5.7867261 0.99057,10.925938 1.48762,21.316163 -0.0584,32.257901 -0.77505,3.011433 -0.90173,5.550183 -0.91137,8.124005 -0.0758,20.218871 0.19317,40.434804 0.35141,60.651624 0.0172,2.20209 -0.18723,4.30763 -1.55344,6.59442 z"
   id="path1266"
   style="stroke-width:1.08834" /><path
   fill="#594134"
   opacity="1"
   stroke="none"
   d="m 3.6251196,112.60934 c 0.37629,0.98316 0.45744,2.04895 0.57011,3.51331 0.48259,1.04404 0.65211,1.74435 0.22412,2.82126 -3.15268,0.26465 -2.09677,-2.00864 -2.3819,-3.92649 0.14189,-1.22521 0.40831,-1.9833 1.58767,-2.40808 z"
   id="path1275" /><path
   fill="#866445"
   opacity="1"
   stroke="none"
   d="m 4.7066783,104.88459 c 0.0485,-20.802347 0.10349,-41.141768 0.17838,-61.481146 0.008,-2.10595 -0.30118,-4.258506 0.75171,-6.684148 3.4455597,-1.354007 2.65219,1.325934 2.6159,2.944171 -0.19213,8.56552 0.45673,17.126936 0.0608,25.691307 -0.0484,1.047936 -0.0352,2.11214 0.6606397,3.437501 0.45795,0.824408 0.62375,1.325776 0.71811,2.231495 -0.0768,1.503835 -0.35803,2.639142 0.16989,4.097395 0.45148,1.769257 0.45496,3.209422 0.0792,5.005102 -1.0854197,2.305139 -1.4491297,4.275285 -0.0836,6.637502 0.5672,2.444239 0.56082,4.538473 0.0167,6.994143 -0.65375,1.121494 -2.6400197,1.669094 -0.29898,3.171601 0.64279,5.662087 0.44107,10.986017 0.38644,16.722547 -0.4675,1.51113 -0.90496,2.5801 -1.9344097,3.78813 -1.18506,0.65716 -2.03394,0.67326 -3.24698,0.0534 -1.05162,-1.4363 -1.00217,-2.64825 -0.3592,-4.29538 0.24587,-2.88967 0.2717,-5.37017 0.2854,-8.31359 z"
   id="path1267"
   style="stroke-width:1.03116" /><path
   fill="#71421d"
   opacity="1"
   stroke="none"
   d="m 7.7489762,41.591618 c 0.7615004,0.569479 1.2126938,0.916269 1.1647797,2.075178 -0.7055556,17.072314 0.050845,34.051385 -0.099297,51.621817 0.2394987,0.962998 0.2271083,1.572243 0.5146143,2.507873 0.349025,4.121424 0.102087,7.843224 0.301751,11.928324 1.0794158,4.77005 -0.9195868,2.14022 2.3387538,2.25698 4.667901,-0.0864 3.738745,1.67913 4.676508,2.06413 1.316835,1.30643 -3.822455,-2.05862 -1.056522,-1.99221 10.50303,-0.1561 11.350043,0.0768 19.550052,0.063 0.65835,-0.18286 1.040174,-0.17389 1.701998,0.0344 4.598916,1.62571 8.99433,1.15673 13.362661,1.41467 1.49435,0.0882 28.173721,-0.52873 29.342467,2.36219 -0.426473,3.01335 -26.816117,2.15917 -28.236586,2.36389 -12.872536,0.14473 -25.446169,-0.46628 -38.020212,-0.008 -2.199394,0.0802 -4.3963841,-0.0225 -6.6582729,-1.61389 C 6.3155874,110.86135 5.8265123,105.45501 6.5097574,99.628906 6.2670949,98.803168 6.1644965,98.319384 6.3532471,97.417696 6.4844851,94.568784 6.4777659,92.05704 6.4596094,89.075072 5.8517986,87.183582 6.0620788,85.633406 6.3062358,83.697703 6.4619455,81.477885 6.4695933,79.661878 6.4628742,77.392462 6.2471877,76.50369 6.1696933,76.015835 6.3262915,75.146417 6.4701854,74.340163 6.4873598,73.869923 6.5117905,73.046584 7.9202773,65.546631 6.9977018,58.228096 7.0406601,51.000805 7.0568852,48.264966 7.0290822,45.529052 7.175378,42.369051 7.2951311,41.727986 7.4194274,41.513484 7.7489762,41.59094 Z"
   id="path1583"
   style="stroke-width:0.84495" /><path
   fill="#866445"
   opacity="1"
   stroke="none"
   d="m 7.5874656,6.4235521 c -0.32046,-1.5768598 -0.32696,-2.9313698 -0.27172,-4.6842298 0.0617,-0.39835 0.43927,-0.41227 0.62405,-0.37305 0.8446,1.09248 1.50443,2.14577 2.2385604,3.51126 C 9.8791856,6.3375121 9.0878356,6.8106421 7.5874656,6.4235521 Z"
   id="path1277" /><path
   fill="#371b11"
   opacity="1"
   stroke="none"
   d="m 96.909251,54.510903 c -0.2591,-2.37868 -0.26535,-5.04936 -0.26218,-8.16303 1.64548,2.23911 1.026,5.05837 0.26218,8.16303 z"
   id="path1279" /><path
   fill="#5f3b1e"
   opacity="1"
   stroke="none"
   d="m 32.383198,1.3546521 c -0.11173,0.61279 -0.62955,0.92674 -1.51075,0.22604 0.28382,-0.20776 0.72992,-0.22082 1.51075,-0.22604 z"
   id="path1280" /><path
   fill="#5f3b1e"
   opacity="1"
   stroke="none"
   d="m 49.468638,1.3754321 c -0.0164,0.0987 -0.28662,0.19009 -0.65899,0.14709 0.067,-0.14106 0.23608,-0.14773 0.65899,-0.14709 z"
   id="path1281" /><path
   fill="#dca364"
   opacity="1"
   stroke="none"
   d="m 4.4181867,116.28452 c 11.6120333,0.68656 23.0398143,0.0914 34.4369333,0.26614 11.984748,0.18367 23.980755,0.1661 36.471008,0.25468 0.911025,0.18355 1.087634,0.40146 0.782053,0.81367 -21.645305,0.46811 -43.038145,0.16513 -64.432301,-0.004 -2.3112699,-0.0182 -4.6242125,0.0194 -7.3258517,0.0457 -0.7476933,-0.43043 -0.8324384,-0.86277 0.068158,-1.37618 z"
   id="path1584"
   style="stroke-width:0.781319" /><path
   fill="#dca364"
   opacity="1"
   stroke="none"
   d="m 24.479952,4.1390018 c 0.275602,0.9337637 0.43085,0.2960669 0.43198,0.9645869 -2.16218,2.71475 -4.69214,2.11349 -7.67515,0.87325 -0.41021,-0.27961 -5.267134,-0.2968114 -5.482344,-0.3081914 -0.52945,-0.85453 -0.949013,-1.9350628 1.499064,-1.6673383 2.56232,-0.13875 7.939793,0.064441 11.22645,0.1376928 z"
   id="path1572" /><path
   fill="#866445"
   opacity="1"
   stroke="none"
   d="m 9.081454,18.458685 c -0.7376097,-0.0601 -1.1159397,-0.52971 -0.1739197,-1.40357 0.2184097,0.29758 0.1845097,0.69951 0.1739197,1.40357 z"
   id="path1573" /><path
   fill="#594134"
   opacity="1"
   stroke="none"
   d="m 44.476446,118.70262 c 0.98364,-1.25485 2.51718,-1.13733 4.36541,-0.25299 -1.14071,0.24646 -2.5433,0.268 -4.36541,0.25299 z"
   id="path1578" /><path
   fill="#594134"
   opacity="1"
   stroke="none"
   d="m 32.395566,118.60331 c 0.15384,-0.57449 0.69748,-0.81378 1.5391,-0.19537 -0.28342,0.1955 -0.74121,0.22406 -1.5391,0.19537 z"
   id="path1579" /><path
   fill="#594134"
   opacity="1"
   stroke="none"
   d="m 20.312596,118.51649 c -0.0226,-0.31387 0.25708,-0.37463 0.68777,-0.11945 -0.064,0.12592 -0.24286,0.14478 -0.68777,0.11945 z"
   id="path1580" /><path
   fill="#594134"
   opacity="1"
   stroke="none"
   d="m 40.309026,118.62495 c -0.0239,-0.34738 0.26187,-0.41168 0.69964,-0.11014 -0.0701,0.13321 -0.25076,0.14237 -0.69964,0.11014 z"
   id="path1581" /><path
   fill="#53341d"
   opacity="1"
   stroke="none"
   d="m 96.967607,114.69792 c -3.29862,-2.90433 -1.83786,-6.86338 -2.08814,-10.49076 -0.16794,-2.43402 -0.0274,-4.889315 -0.0246,-7.802665 0.63446,-1.09129 1.38364,-1.20263 2.54319,-0.7371 0.14276,6.419915 -0.0462,12.613105 -0.43045,19.030525 z"
   id="path1605" /><path
   fill="#412d23"
   opacity="1"
   stroke="none"
   d="m 97.934817,118.76141 c -0.20731,-0.0623 -0.20407,-0.24051 -0.172,-0.68548 0.0289,-0.26676 0.49035,-0.23328 0.72168,-0.21619 0.10684,0.32202 -0.0833,0.57822 -0.54968,0.90167 z"
   id="path1582" /><path
   fill="#856141"
   opacity="1"
   stroke="none"
   d="m 9.4741463,79.127115 c 0.30075,1.33274 0.31955,2.72438 0.3056,4.53258 -2.39053,-0.96703 -2.16269,-2.64391 -0.3056,-4.53258 z"
   id="path1585" /><path
   fill="#856141"
   opacity="1"
   stroke="none"
   d="m 57.378109,112.00968 c 17.102536,0.13461 14.097575,0.30758 21.642372,0.31381 5.222568,0.6061 1.277019,-0.43369 11.094476,-0.48965 0.132084,-3.3036 0.291512,-3.62379 0.169274,-12.73141 1.007176,-0.15118 1.557987,1.78219 2.53288,1.77202 -0.382314,3.06105 0.122569,7.42095 0.338553,10.75907 0.283358,4.37942 -1.769714,4.45006 -6.020291,4.33761 -1.078763,0.51355 -3.81933,0.14055 -4.680279,0.0997 -9.173599,-0.43545 -18.372998,0.17176 -27.947832,-0.95288 -0.814756,-0.29901 -1.216975,-0.3135 -1.921044,-0.32211 -0.459937,-0.23383 -19.367389,-2.00453 -19.489257,-2.67301 20.712372,0.10698 20.980283,0.0727 24.281148,-0.11313 z"
   id="path1903"
   style="stroke-width:1.00725" /><path
   fill="#856141"
   opacity="1"
   stroke="none"
   d="m 9.4875163,71.123685 c 0.28347,0.39122 0.30035,0.83759 0.28857,1.61803 -1.30347,0.007 -2.21252,-0.42179 -0.28857,-1.61803 z"
   id="path1586" /><path
   fill="#856141"
   opacity="1"
   stroke="none"
   d="m 9.5672863,92.101545 c 0.27048,0.4122 0.29736,0.85744 0.30768,1.63699 -0.59601,-0.20108 -2.28208,-0.43117 -0.30768,-1.63699 z"
   id="path1587" /><path
   fill="#724b2a"
   opacity="1"
   stroke="none"
   d="m 95.115771,99.980338 c -0.294991,-1.01374 -0.420655,-1.81637 -0.612799,-2.91006 -0.133147,-0.46002 -0.199834,-0.62897 -0.160073,-1.04129 0.18445,-4.07494 0.262457,-7.90653 0.43623,-11.98618 1.704261,-0.71542 1.497871,2.89767 3.055785,3.04252 0.183301,0.44099 0.10943,1.59356 0.107638,2.29637 -0.245744,1.01684 -0.584648,1.62217 -0.648461,2.86241 -0.02405,1.24522 -0.03363,2.15968 -0.116954,3.42907 -0.105654,1.36573 -0.395444,2.21076 -0.69986,3.45101 -0.40866,0.913542 -0.762072,1.199892 -1.361506,0.85615 z"
   id="path1589"
   style="stroke-width:0.717659" /><path
   fill="#71421d"
   opacity="1"
   stroke="none"
   d="m 94.931066,68.801436 c -0.704027,-2.13898 -0.413023,-5.18772 -0.069,-7.63344 0.292717,-0.7706 0.558142,-1.22667 1.165492,-1.39301 2.235988,3.10407 1.658348,6.48739 0.703536,9.9636 -0.506945,-0.64333 -1.124104,-0.27741 -1.800026,-0.93715 z"
   id="path1590"
   style="stroke-width:0.819681" /><path
   fill="#472e1d"
   opacity="1"
   stroke="none"
   d="m 93.421243,5.9998833 c 0.06604,0.6838601 0.08687,0.9927916 0.1677,1.5309236 -0.01002,8.9033501 0.376219,16.6667011 0.288924,25.7578431 0.355343,6.117701 -2.322876,37.517614 -3.438853,37.152938 0.164912,-19.592666 0.09219,-27.203181 -0.240655,-37.824776 0.01002,-6.2909 -0.13398,-7.901642 -0.274295,-12.904787 0.229989,-3.03322 0.07608,-7.343176 -0.18009,-10.3763242 C 86.901778,9.4155227 86.731629,9.5177399 83.70726,9.4886244 62.828028,9.2876208 39.848187,9.406188 18.987942,9.0349468 15.608561,8.9747776 12.865174,9.4122859 10.410849,8.1831435 9.5835971,7.4573987 11.011911,6.5506071 10.531079,5.8019459 c 2.630779,-0.3497188 8.15077,0.052551 11.321467,-0.059171 20.154843,0.1104451 39.809837,0.2798183 59.977387,0.374524 4.205241,0.041552 7.833823,-0.9475703 11.591415,-0.1174333 z"
   id="path1894"
   style="stroke-width:1.00083" /><path
   fill="#7e512f"
   opacity="1"
   stroke="none"
   d="m 95.89148,56.914945 c -0.956748,-3.51328 -1.202289,-6.79324 0.114544,-10.17863 1.527676,1.06333 0.748793,3.97221 1.829352,5.75111 0.217016,1.70247 -0.04345,2.86197 -0.868116,3.9223 -0.332955,0.64725 -0.592341,0.80446 -1.07578,0.50522 z"
   id="path1591"
   style="stroke-width:0.756067" /><path
   fill="#5f3b1e"
   opacity="1"
   stroke="none"
   d="m 93.015264,5.9023267 c -1.84335,0.2982779 -3.97439,2.5861224 -5.87238,-0.37235 1.84501,0.45905 3.96988,-2.05072 5.87238,0.37235 z"
   id="path1278" /><path
   fill="#71421d"
   opacity="1"
   stroke="none"
   d="m 97.995772,52.401535 c -2.908279,0.27008 -1.92922,-2.82245 -2.212233,-5.38292 -0.02185,-0.84281 -0.0143,-1.26161 -0.01989,-1.99484 0.336067,-0.31076 0.609395,-1.445628 1.219337,-1.414858 -0.555908,1.78751 1.390533,3.875028 1.023586,5.817988 -0.09532,0.46331 -0.188315,0.60756 -0.146497,0.97374 0.138745,0.69625 0.142643,1.17057 0.135704,2.00089 z"
   id="path1592"
   style="stroke-width:0.851986" /><path
   fill="#71421d"
   opacity="1"
   stroke="none"
   d="m 95.044446,56.791526 c 0.43958,-0.40718 0.87989,-0.41518 1.65009,-0.42798 0.33759,0.16765 0.34534,0.34007 0.35962,0.77136 0.1196,0.42546 0.23257,0.59207 0.17261,1.00616 -0.17301,0.24752 -0.18372,0.24796 -0.18213,0.25303 -0.69379,0.62628 -0.36115,1.88192 -1.7247,2.13882 -0.30359,-1.21288 -0.28919,-2.27756 -0.27549,-3.74139 z"
   id="path1593" /><path
   fill="#633719"
   opacity="1"
   stroke="none"
   d="m 94.984516,60.640166 c 0.543,-0.8058 1.06863,-1.35612 1.82797,-2.07374 0.23285,0.2711 0.23196,0.70949 0.23016,1.47638 -0.47888,0.64798 -0.95685,0.96742 -1.73114,1.3248 -0.31231,-0.13205 -0.32833,-0.302 -0.32699,-0.72744 z"
   id="path1594" /><path
   fill="#7e512f"
   opacity="1"
   stroke="none"
   d="m 97.998567,50.403435 c -0.263632,0.0536 -0.325013,-0.18438 -0.09105,-0.5762 0.09669,-0.0813 0.09473,0.35709 0.09105,0.5762 z"
   id="path1595"
   style="stroke-width:0.851986" /><path
   fill="#633719"
   opacity="1"
   stroke="none"
   d="m 97.192456,58.290946 c -0.1387,0.0976 -0.13995,-0.39994 -0.13583,-0.64856 0.14386,-0.0825 0.30331,0.0721 0.41098,0.25698 0.0311,0.0534 -0.0868,0.19355 -0.27515,0.39158 z"
   id="path1596" /><path
   fill="#71421d"
   opacity="1"
   stroke="none"
   d="m 91.693224,75.544595 c 0.02779,-0.0165 -0.02779,0.0165 0,0 z"
   id="path1597"
   style="stroke-width:0.909507" /><path
   fill="#65391f"
   opacity="1"
   stroke="none"
   d="m 94.868905,22.615019 c -0.23855,-1.50234 -0.2203,-2.89465 -0.19955,-4.70448 0.0364,-0.78031 0.19946,-1.07515 0.72961,-1.3696 2.02137,-0.0652 1.95267,-1.76331 3.17639,-3.47777 -0.39508,3.84123 1.36002,7.09804 -1.72271,10.1418 -0.73813,0.0365 -1.23252,-0.2217 -1.98374,-0.58995 z"
   id="path1598" /><path
   fill="#7e512f"
   opacity="1"
   stroke="none"
   d="m 96.887927,8.350062 c -0.77903,0.11953 -1.49997,-0.14779 -2.48914,-0.53393 -0.64633,-0.46313 -0.86737,-0.88584 -0.81128,-1.75839 0.46851,-0.70723 0.90601,-0.89874 1.7894,-0.91658 0.61755,0.002 0.86444,0.0118 1.39978,0.25397 0.24875,1.01114 0.20901,1.78961 0.11124,2.95493 z"
   id="path1600" /><path
   fill="#65391f"
   opacity="1"
   stroke="none"
   d="m 97.221933,9.4558895 c -0.51743,0.0388 -1.284523,-0.1933772 -1.861123,-0.2291772 -0.40964,-0.19001 -0.47312,-0.36183 -0.30698,-0.68454 0.26996,-0.33686 0.31036,-0.52281 0.39746,-0.99095 0.76544,-0.0929 1.66825,-0.10478 2.15369,0.33945 0.53845,0.49274 0.534693,1.2633672 -0.383047,1.5652172 z"
   id="path1601" /><path
   fill="#7e512f"
   opacity="1"
   stroke="none"
   d="m 96.288854,16.964548 c -0.0898,0.57083 -0.28241,0.82371 -0.73087,1.16191 -1.14804,-0.6432 -1.06137,-1.29423 0.27332,-1.90692 0.3045,0.10562 0.35608,0.28648 0.45755,0.74501 z"
   id="path1602" /><path
   fill="#703f1b"
   opacity="1"
   stroke="none"
   d="m 76.567384,5.0563655 c -1.00976,0.40442 -12.462666,-0.766814 -13.958296,-0.809774 3.406713,-3.31990151 7.507517,-1.7950437 13.958296,0.809774 z"
   id="path1603" /><path
   fill="#53341d"
   opacity="1"
   stroke="none"
   d="m 95.512374,84.516447 c -0.32656,-1.30281 -0.34402,-2.35361 -0.34857,-3.79856 0.65308,-0.99357 1.39664,-1.14102 2.56037,-0.67441 0.34564,1.30849 0.35971,2.39032 0.34771,3.87731 -0.6856,0.96419 -1.43087,1.09259 -2.55951,0.59566 z"
   id="path1606" /><path
   fill="#856141"
   opacity="1"
   stroke="none"
   d="m 34.4393,111.89853 c -0.7995,1.59233 -12.086308,0.5212 -13.377718,1.09969 -1.54422,0.0116 27.300963,0.49759 25.787253,0.53169 -7.885254,0.0531 -35.090233,2.08388 -37.8919931,-0.18598 -0.35394,-10.07116 -0.33773,-19.475776 -0.31268,-29.925012 2.2637301,5.684101 2.7093261,18.189812 2.5324761,29.000232 4.93369,0.43682 25.376356,0.38633 32.279106,0.3376 z"
   id="path1906"
   style="stroke-width:1.54309" /><path
   fill="#5f3b1e"
   opacity="1"
   stroke="none"
   d="m 95.057054,84.554227 c 0.85736,-0.27539 1.56851,-0.26101 2.63422,-0.23746 0.35937,0.74181 0.36416,1.47443 0.33789,2.57182 -0.7486,0.37866 -1.51986,1.0366 -2.59841,1.05106 -0.36096,5.5e-4 -0.79719,-0.65035 -1.04185,-0.65717 0.0108,-0.81738 0.26636,-1.62793 0.66815,-2.72825 z"
   id="path1607" /><path
   fill="#5f3b1e"
   opacity="1"
   stroke="none"
   d="m 98.064594,79.923427 c -0.72876,0.35902 -1.44864,0.37134 -2.5282,0.392 -0.30884,-1.32798 0.43469,-1.96268 2.04584,-2.0821 0.37976,0.42431 0.43548,0.88385 0.48236,1.6901 z"
   id="path1608" /><path
   fill="#5e442d"
   opacity="1"
   stroke="none"
   d="m 10.610084,82.973821 c 0.32511,3.04203 0.0135,6.19772 0.12471,9.696535 -0.32587,1.16616 -0.14819,1.40026 -0.54379,2.34865 -2.0607297,0.80472 -1.3134897,-0.337 -1.3353097,-1.87893 -0.0341,-2.413095 0.0541,-4.827045 -0.23749,-7.626135 -0.19525,-0.9056 -0.21069,-1.42444 -0.21091,-2.33441 0.63953,-0.3272 1.2638,-0.26328 2.2027897,-0.20571 z"
   id="path1896" /><path
   fill="#71421d"
   opacity="1"
   stroke="none"
   d="m 9.7801581,21.641551 c -2.1407698,-1.72456 -1.0455,-3.54722 0.2613599,-5.40256 0,1.74924 0,3.49848 -0.2613599,5.40256 z"
   id="path1898" /><path
   fill="#703f1b"
   opacity="1"
   stroke="none"
   d="m 8.386819,36.96458 c -0.2801737,0.272209 -0.4676992,0.222295 -0.9344714,0.0887 0.3094784,-8.354614 0.4130753,-4.546621 0.651087,-3.370527 1.5368174,0.949152 0.3892413,2.013026 0.2833844,3.28183 z"
   id="path1899" /><path
   fill="#dca364"
   opacity="1"
   stroke="none"
   d="m 87.390194,6.2896769 c -3.37869,0.10145 -7.44588,0.0198 -10.88954,-0.15087 -0.3382,-0.33799 0.63228,-0.47961 0.62749,-0.96791 3.68103,-0.28369 7.3713,-0.27433 11.51483,-0.22624 0.45321,0.0387 0.34726,0.45662 0.26587,0.6563 -0.46796,0.31955 -0.85453,0.43941 -1.51865,0.68872 z"
   id="path1901" /><path
   fill="#b98857"
   opacity="1"
   stroke="none"
   d="m 83.674349,114.68091 c 3.155169,0.84759 5.11863,1.56563 8.219619,1.76972 2.919424,1.31235 0.484396,0.96059 -3.692489,0.79156 -3.727339,-0.15084 -7.918779,0.10368 -12.115709,-0.0221 -0.54978,0.10876 -0.02891,0.19553 -0.04033,-0.44805 1.53272,-0.48398 2.99042,-1.14839 4.77103,-1.65197 0.91833,-0.97006 1.70443,-1.04962 2.85788,-0.4392 z"
   id="path1902" /><path
   fill="#562d14"
   opacity="1"
   stroke="none"
   d="m 54.772997,112.30997 c 9.60534,-0.35727 19.32763,-0.3399 29.52026,-0.30063 0.19467,0.8675 -0.0811,1.71314 -0.48956,2.87229 -0.85843,0.27063 -1.58408,0.22775 -2.67297,0.17062 -6.91102,-2.10684 -13.67624,-0.6561 -20.31888,-1.22549 -2.02417,-0.17353 -4.30796,1.13061 -6.03885,-1.51679 z"
   id="path1905" /><path
   fill="#562d14"
   opacity="1"
   stroke="none"
   d="m 8.5714927,113.75183 c 2.1699293,-0.18033 4.4286073,-0.15741 7.1071143,-0.12323 -1.835015,1.79654 -4.392857,1.31478 -7.1071143,0.12323 z"
   id="path1907"
   style="stroke-width:0.723099" /><path
   fill="#562d14"
   opacity="1"
   stroke="none"
   d="m 52.317186,112.9943 c 0.30954,0.31508 0.30667,0.45001 0.36896,0.78271 -0.28534,0.52831 -0.6431,1.15019 -0.98545,1.14682 -8.57205,-0.0843 -17.14285,-0.22717 -25.712,-0.39764 -0.37161,-0.007 -0.72519,-0.37573 -1.19519,-0.81451 0.3786,-0.76829 1.16659,-1.00889 2.50195,-1.19164 4.78861,-0.40428 9.13855,-0.57977 13.89856,0.10038 1.49371,0.14929 2.56592,0.22572 4.02881,0.2263 2.53787,-1.04805 4.66244,-0.68977 7.09436,0.14758 z"
   id="path1904"
   style="stroke-width:0.794752" /><path
   fill="#402013"
   opacity="1"
   stroke="none"
   d="m 93.391608,92.735875 c -0.782086,4.24609 0.825821,15.910415 -1.113008,19.768295 -2.011078,-1.78092 -1.963166,-11.16077 -1.960222,-14.394645 0.0098,-10.80439 0.0292,-26.38398 0.380745,-39.22724 0.01381,-0.50459 0.585353,6.00584 0.892675,5.11462 0.553556,-0.938 1.012595,-1.17497 1.894153,-0.84734 -0.213542,9.88301 -0.338979,19.49977 -0.09434,29.58631 z"
   id="path1908"
   style="stroke-width:0.909507" /><path
   fill="#674931"
   opacity="1"
   stroke="none"
   d="m 93.650839,62.944715 c -0.359026,0.42168 -2.645414,7.95243 -3.163447,7.89285 0.117312,-8.7655 -0.03166,-24.72333 1.588824,-25.36059 0.600907,-0.30038 0.891805,-0.29396 1.399399,-0.30765 0.224594,5.75141 0.232509,11.52295 0.175224,17.77539 z"
   id="path1909"
   style="stroke-width:0.878719" /><path
   fill="#856141"
   opacity="1"
   stroke="none"
   d="m 95.015413,89.323335 c 0.142,-0.0946 0.13254,0.40234 0.12479,0.65068 -0.14615,0.0799 -0.30435,-0.0772 -0.4104,-0.26404 -0.0301,-0.0531 0.0915,-0.19233 0.28561,-0.38664 z"
   id="path1910" /></svg>
