<svg
                version="1.1"
                id="lamp-plant-svg"
                preserveAspectRatio="none"
                x="0px"
                y="0px"
                width="230px"
                height="250px"
                viewBox="0 0 150.9499 170.16373"
                enable-background="new 0 0 150.9499 170.16373"
                xmlSpace="preserve"
                xmlns="http://www.w3.org/2000/svg"
                
            >
                <path
                    fill="#3c2a21"
                    opacity="1"
                    stroke="none"
                    d="m 38.986573,158.38606 c 2.47619,-1.43616 4.60066,-2.57342 6.92435,-3.97485 0.5274,-0.68854 0.95881,-0.93234 1.87993,-0.98505 1.1638,0.19425 1.88735,0.52045 3.03231,0.8786 8.20898,0.48264 18.802,-0.61831 27.0595,-0.47018 7.339394,3.89298 10.931322,6.5827 8.663572,12.53882 -1.657912,0.74271 5.132701,0.27896 -6.653696,0.75267 l -12.129228,0.13073 c -9.562228,-0.0683 -10.797434,-0.006 -24.849398,0.15435 -1.40834,0.0399 -2.33899,-0.0459 -3.63498,-0.64173 -1.59436,-1.48361 -1.91061,-2.988 -1.71679,-5.10132 0.0779,-1.43069 0.3921,-2.28176 1.42443,-3.28204 z"
                    id="path521"
                />
                <path
                    fill="#f4e4c5"
                    opacity="1"
                    stroke="none"
                    d="M 42.671353,72.773341 C 36.587343,72.454501 31.0591,72.693841 24.920871,72.740741 17.458697,72.702941 8.321897,72.724241 0,72.389801 c 0.797176,-13.0906 6.01323,-5.42231 7.634881,-5.65415 1.828377,-0.26144 3.636703,-0.41925 5.583336,-1.77325 2.49945,-0.91159 4.666206,-0.9047 6.828094,-0.90424 16.451092,0.004 32.949212,-0.72168 49.329852,0.72922 8.68406,0.76916 17.14717,0.42633 25.69391,-0.5076 2.50494,-0.27374 4.973447,-0.0416 7.919987,0.28693 1.4217,0.0522 2.3823,0.003 3.7135,0.59686 1.73629,1.36224 13.84965,-36.25902 17.13147,6.25609 -2.43058,2.04141 -16.53176,1.10732 -22.57699,0.95652 -2.588727,0.5253 -6.548317,0.4982 -9.152917,0.11877 -7.66729,0.52692 -13.19879,0.005 -21.4712,-0.0198 -5.798,-0.21322 -10.96982,0.2587 -16.76891,0.0986 -3.01911,0.42132 -4.94584,0.24333 -11.19366,0.19956 z"
                    id="path627"
                />
                <path
                    fill="#f3daae"
                    opacity="1"
                    stroke="none"
                    d="m 12.833909,65.788341 c -1.11406,4.41672 -5.622963,0.55503 -7.599617,3.69153 -5.599243,0.51578 -5.599243,0.51578 -4.45504,-8.02704 0.576591,-3.50177 1.096817,-6.54367 1.661301,-10.00396 0.938896,-5.79435 1.833541,-11.17032 2.729889,-16.97345 2.096473,-9.95987 3.362457,-19.61643 4.44564,-29.7394104 1.023552,-1.19126 1.91848,-1.96262 3.105003,-2.84391 2.112771,-1.53177003 4.11036,-1.76342003 6.63527,-0.79568 1.90081,1.60324 1.998329,3.77652 0.391761,4.34048 -5.358833,1.88105 -5.080955,6.6124604 -6.188835,11.1179204 -0.02775,0.93961 -0.06586,1.47644 -0.216766,2.40906 -1.875443,7.50324 -1.685448,14.90897 -3.463799,22.42133 -0.204193,0.91339 -0.270897,1.44162 -0.294777,2.37231 0.144783,1.44806 0.109871,2.49188 -0.174514,3.89954 -0.922524,3.20163 -1.461129,6.08392 -1.802971,9.03268 -0.76651,6.61203 -0.834542,6.60416 5.227455,9.0986 z"
                    id="path628"
                />
                <path
                    fill="#33251c"
                    opacity="1"
                    stroke="none"
                    d="m 48.083043,154.32799 c 0.78331,-2.42817 2.96751,-3.92981 2.84102,-6.85886 2.64128,-3.21674 6.12965,-2.18753 9.32545,-2.32507 3.8136,-0.16416 7.53772,0.68432 11.70126,1.50509 1.27664,0.51364 1.96473,0.99154 2.20871,3.07441 1.63145,3.14851 2.31287,2.98532 2.01334,5.3038 -8.94171,0.74325 -17.67118,-0.16803 -26.71362,0.78625 -0.66502,-0.26105 -1.00095,-0.72528 -1.37616,-1.48562 z"
                    id="path913"
                />
                <path
                    fill="#200a05"
                    opacity="1"
                    stroke="none"
                    d="m 75.574443,155.088 c 0.39008,0.0177 0.45742,0.49182 0.45786,0.73129 -8.66003,0.23276 -17.32049,0.22607 -26.44156,0.20843 2.85362,-2.38269 7.02781,-1.84271 10.37589,-1.60147 5.07234,0.36548 10.18979,-0.25592 15.60781,0.66175 z"
                    id="path916"
                />
                <path
                    fill="#281310"
                    opacity="1"
                    stroke="none"
                    d="m 73.240953,147.9915 c -7.40138,-0.22357 -14.33931,-1.44794 -21.83357,-0.88504 -0.76061,-0.10886 -1.05354,-0.19312 -1.57734,-0.18536 -1.30234,-0.19904 -2.25103,-0.67466 -3.07852,-1.97077 -0.32218,-2.11365 0.84049,-2.87649 2.20523,-2.97098 9.00602,-0.62362 20.48241,-1.39947 29.65201,1.67289 0.79428,2.73153 -2.89184,3.48059 -5.36781,4.33926 z"
                    id="path919"
                />
                <path
                    fill="#fefbdd"
                    opacity="1"
                    stroke="none"
                    d="m 8.115052,48.440381 c -0.136673,-1.45315 -0.116936,-2.52337 -0.08897,-3.99499 0.556297,-0.80518 0.691628,-1.32999 0.253418,-2.17273 1.418259,-7.62769 1.076492,-15.34351 3.469269,-22.9632 3.017944,-1.47891 3.763344,0.633 4.508598,2.43988 0.822586,1.99436 1.35717,4.10474 2.000778,6.16724 3.121918,10.00452 10.092408,16.17535 19.572602,19.90179 1.08688,0.42725 2.231,1.0579 3.34114,0.94391 8.95971,-0.91983 17.92868,0.53357 26.83865,-0.0194 6.36341,-0.39492 11.79228,-4.35015 17.50483,-6.98004 8.97809,-4.13324 17.204043,-0.12677 18.234623,9.54917 0.57483,5.397 4.8535,8.10559 7.66138,12.38876 0.32895,0.9249 0.31026,1.47961 -0.10037,2.38638 -1.31447,1.05152 -2.41608,1.1099 -3.91175,0.27655 -1.1085,-0.26245 -1.85595,-0.27533 -2.9772,-0.2915 -5.287993,-3.68951 -10.393203,-4.86139 -15.912513,-1.26437 -2.70118,1.76043 -5.80966,1.49819 -8.72346,1.17456 -15.80284,-1.75504 -31.67319,-2.70167 -47.49891,-4.16511 -4.649711,-0.42999 -9.053787,-1.92138 -13.497894,-3.32165 -5.124473,-1.61465 -8.734535,-4.57291 -10.674217,-10.05527 z"
                    id="path982"
                />
                <path
                    fill="#fdf1d2"
                    opacity="1"
                    stroke="none"
                    d="m 7.710336,48.334491 c 1.236862,-0.22788 2.555626,-0.39576 2.933365,0.61798 3.792579,10.17792 13.559814,9.8201 21.402,10.794 15.852022,1.96866 31.860362,2.79697 47.677782,5.26166 3.94439,0.61463 6.99423,-1.11331 10.23449,-2.85046 6.22286,-3.33615 9.32502,-2.53223 14.042737,3.56231 -29.973747,1.64277 -59.994627,-0.37496 -90.486335,0.34681 -9.033509,-0.0174 -8.9599,-0.006 -7.664643,-8.27533 0.481316,-3.07291 0.04034,-6.29746 1.860604,-9.45697 z"
                    id="path983"
                />
                <path
                    fill="#eee6d6"
                    opacity="1"
                    stroke="none"
                    d="m 120.2937,63.669271 c -0.42058,6.2994 -3.91692,8.21377 -11.84883,6.49352 -0.69335,-1.15222 -0.99851,-2.26083 -1.35517,-3.70904 1.0132,-0.35202 2.07792,-0.36444 3.54151,-0.37628 1.68628,-3.92487 2.09607,-7.93976 1.86915,-12.06659 -0.22203,-4.03778 0.52814,-7.88696 3.32233,-11.36505 0.66391,-0.0364 0.93353,0.0173 1.53336,0.32751 2.9938,6.70282 3.79252,13.41046 2.93765,20.69593 z"
                    id="path987"
                />
                <path
                    fill="#29130e"
                    opacity="1"
                    stroke="none"
                    d="m 69.319933,70.494341 c 1.349627,0.03558 1.30428,-0.297521 0.731524,1.227107 -0.142245,0.868503 -1.190814,5.693853 -1.367984,5.761353 -1.6929,1.60394 -3.03571,-3.86069 -4.9359,-3.72726 -2.14064,0.15036 -3.55824,1.38049 -5.23965,2.96744 -0.48342,0.34878 -0.68603,0.47766 -1.23796,0.70242 -0.58887,0.0618 -0.82843,0.0276 -1.32756,-0.26023 -0.32206,-2.44985 -1.46377,-4.23947 -2.52687,-6.41363 5.10449,-0.30383 10.27938,-0.27927 15.9044,-0.2572 z"
                    id="path988"
                />
                <path
                    fill="#fefced"
                    opacity="1"
                    stroke="none"
                    d="m 111.32628,63.844441 c -4.97113,-3.13331 -9.59581,-6.40738 -9.33692,-13.25251 0.15944,-4.2153 -1.87127,-6.20077 -6.369107,-7.85733 -7.88695,-2.90478 -12.57858,2.88559 -18.46365,5.01822 -4.72627,1.71268 -9.26499,3.89487 -14.27616,3.13269 -6.4598,-0.98248 -12.76248,-0.91879 -19.24178,-0.0832 -5.55078,0.71588 -10.11838,-2.82111 -14.627386,-5.50983 -8.091667,-4.82504 -11.589264,-12.84982 -13.884369,-21.5 -0.470352,-1.77276 -0.451286,-3.64968 -2.755264,-4.67804 -0.345635,-0.51837 -0.330658,-0.95172 -0.298004,-1.71008 1.800888,-2.85495 3.511276,-5.41598 5.129402,-8.0707704 3.249535,-5.33148 8.696503,-4.92523 14.345192,-4.08053 0.579249,0.43127 0.959339,0.86319 0.862599,0.9772 -3.133908,3.69342 -1.670468,8.6810304 -3.576665,12.6821304 -2.410743,5.06012 -0.333465,12.61746 4.265425,15.79861 6.61465,4.57547 13.88591,7.01782 21.90064,7.4353 4.85469,0.25293 8.93599,-2.52368 13.45965,-3.29144 8.75194,-1.48538 12.29331,-7.52048 14.85068,-15.01956 1.50145,-4.40283 -0.81052,-8.51276 -0.26315,-12.80673 0.14605,-1.1458504 -1.5355,-1.5694304 -2.63758,-1.9468104 -1.69249,-0.5795 -3.68724,-0.56168 -4.76724,-2.79337 0.51482,-2.41625 2.2437,-2.76776 3.89011,-2.62121 4.44565,0.39563 9.04573,0.24637 13.27453,1.56409 3.256,1.01455 5.38117,0.65786 7.463457,-2.37647 4.6255,-2.79025003 8.03627,-1.28574 11.2303,2.55295 0.53207,0.80447 0.73289,1.31433 0.92087,2.259 0.27749,1.75482 0.37771,3.1050704 -0.0338,4.8375904 -0.21153,0.6149 -0.32057,0.84805 -0.66738,1.37579 -3.47821,1.74374 -4.24138,-0.77072 -5.27071,-2.85385 -0.49896,-1.00977 -0.69322,-2.4994504 -2.12625,-2.4187004 -1.31543,0.0741 -1.62937,1.4989004 -2.18169,2.5000304 -4.550837,8.24844 -4.350167,16.02936 1.26898,23.95593 4.23429,5.97302 6.20479,13.20407 9.14411,19.89118 1.3177,2.9978 -0.061,5.83941 -1.22888,8.88971 z"
                    id="path989"
                />
                <path
                    fill="#fefbdd"
                    opacity="1"
                    stroke="none"
                    d="m 32.448003,6.4029106 c -3.892002,-0.86234 -7.204678,0.62713 -10.667225,0.78064 -1.813324,0.0804 -3.422074,1.3164 -3.441811,3.0346904 -0.045,3.91794 -2.650421,5.36722 -5.895866,6.80384 -0.0201,-2.8859 0.345321,-5.82581 0.631317,-8.7734404 0.188271,-1.94046 1.140167,-3.01709 3.113434,-3.1842 1.585846,-0.13428 -2.885659,-1.55802 -2.471932,-4.30967003 3.039352,-0.4526 11.649243,-0.0751 15.085629,-0.231 73.293061,-0.76794 10.647004,0.58489003 15.789544,0.11568 2.83653,0.55377003 2.87959,-0.10104 9.68266,-0.0942 1.50755,-0.18954 1.01912,0.0501 2.53853,0.0323 2.35043,-0.005 4.286,0.003 6.63341,-0.008 2.04431,-0.11172 3.67717,-0.13345 5.71213,-0.0612 0.93234,-0.11566 1.46287,-0.11447 2.38428,9.5e-4 1.42933,0.11163 2.46187,-0.0692 3.88455,-0.0209 1.94006,-0.0659 3.44072,-0.63401 5.41571,-0.45295 1.96805,0.47568 36.818097,0.6084 34.610997,0.15221 7.17337,12.47140043 -2.5777,0.0618 2.02331,2.69448003 22.54739,146.8920994 -18.838027,5.5805 -24.832047,3.90957 -5.04677,-1.40683 -10.59183,-1.73389 -16.29228,-0.99954 -1.38523,1.7482 -3.02675,2.12729 -4.68256,2.15906 -11.71888,0.2247 -23.43931,0.29843 -35.15842,0.008 -1.33006,-0.0329 -2.61295,-0.39289 -4.06336,-1.55658 z"
                    id="path990"
                />
                <path
                    fill="#fdf1d2"
                    opacity="1"
                    stroke="none"
                    d="m 8.052384,42.391191 c 0.63707,-0.21939 1.381249,-0.14395 1.407608,0.63605 0.01013,0.29983 -0.555244,0.61907 -1.142036,0.97314 -0.2827,-0.39716 -0.281746,-0.83798 -0.265572,-1.60919 z"
                    id="path991"
                />
                <path
                    fill="#6f5036"
                    opacity="1"
                    stroke="none"
                    d="m 113.23842,170.155 c -0.51219,-0.008 1.23912,-0.79656 0.80206,-0.68819 -0.3221,0.38709 -0.38796,0.68213 -0.60571,0.54993 -0.33513,-0.47843 -0.55307,-0.0244 -1.02128,-0.089 -0.51288,0.0799 -0.70603,-0.33194 -1.15502,-0.53449 -7.674,-0.74752 -8.3571,-0.74752 -9.17155,-7.99701 -0.51055,-1.02389 -0.23766,-1.62524 -0.4374,-2.70703 -0.0688,-1.30356 -0.19069,-2.23257 -0.69257,-3.44238 -0.16083,-3.86731 -2.562017,-4.88587 -5.284297,-7.07025 -0.6008,-0.48209 1.80787,0.56318 -0.34913,-1.24022 -0.44464,-0.29648 2.96139,1.96602 2.53343,1.67293 -0.56872,-0.43033 -1.84551,-0.93274 -2.44902,-1.30225 -1.03383,-0.53989 57.720557,28.27528 4.32617,21.87938 -1.7727,-5.40059 -5.2409,-26.72809 -5.70437,-28.3688 2.05805,-1.59003 -4.34109,-4.96297 -1.91552,-4.17177 1.1226,0.2977 1.76405,0.69381 2.54416,1.53668 0.96306,3.50824 0.96214,3.46487 3.40463,3.4137 1.48981,-0.0312 2.958247,0.21835 4.682217,0.9646 0.58356,0.18585 0.81702,0.26513 1.37927,0.51974 1.16138,0.75232 1.79581,1.50467 2.41582,2.72482 0.41655,2.70261 -0.75912,4.974 0.12224,7.48062 0.63982,1.81968 1.67297,2.5019 3.49063,3.17649 1.17409,1.62842 0.85492,3.21191 0.90422,5.06894 -0.0312,0.53091 -0.047,0.73117 0.0138,1.39236 0.0765,0.46097 0.44755,0.65259 0.66764,0.64966 0.22009,-0.003 0.68576,-0.0569 0.93463,-0.0472 0.41804,0.0525 0.5872,0.0954 1.00912,0.24945 0.42003,0.20767 0.5873,0.30408 1.0302,0.5209 0.87904,0.39219 1.4883,0.65763 2.06218,0.98389 0.98074,0.55762 3.57261,0.72278 3.36491,2.03604 -0.29758,1.88144 -5.0284,2.9561 -6.90145,2.83843 z"
                    id="path1005"
                />
                <path
                    fill="#33251c"
                    opacity="1"
                    stroke="none"
                    d="m 69.507433,83.169271 c 3.18756,-0.24439 8.17052,0.25436 12.77988,0.0133 1.74617,0.0655 6.3859,0.21954 4.58673,0.55822 0.86499,3.64439 0.728107,42.288189 -6.769103,58.751309 -3.215325,10.4418 2.762933,-41.59652 2.892273,-39.75725 -0.0257,0.80978 -0.13138,1.25729 -0.50783,1.96731 -3.31441,-0.0146 -5.205,-2.71615 -8.09883,-3.62479 -2.66899,-0.83801 -4.95594,-2.376859 -8.01331,-1.178249 -1.80074,0.705999 -3.93722,-0.12002 -4.64049,-1.98294 -2.26723,-6.00583 -6.84599,-3.98419 -10.81948,-3.12445 -2.55934,0.55371 -4.95445,2.5899 -6.4159,-1.40713 -0.28627,-0.78299 -1.2053,-1.15442 -2.09859,-0.69294 -1.00103,0.51709 -1.12542,1.51755 -1.32391,2.51651 -0.42145,2.12113 0.98066,6.079139 -1.6636,5.892699 -2.64845,-0.18673 -1.12745,-4.159049 -1.27367,-6.430929 -0.20316,-3.15644 -1.412285,-6.562517 2.370745,-8.949457 1.24273,-0.45135 -5.197235,1.434837 -2.992725,-0.996593 2.5335,-2.0766 12.51284,-1.51627 15.55304,-1.64581 5.29955,1.07077 11.18208,-1.21271 16.43477,0.0913 z"
                    id="path1326"
                />
                <path
                    fill="#5a361a"
                    opacity="1"
                    stroke="none"
                    d="m 79.378343,113.15938 c -0.31781,-0.9329 -0.41803,-1.58905 -0.58955,-2.57001 0.31306,-0.4039 0.6974,-0.48297 1.37072,-0.61557 0.38716,0.7095 0.48532,1.47256 0.63756,2.62082 -0.29594,0.72543 -0.71104,0.88663 -1.41873,0.56476 z"
                    id="path1332"
                />
                <path
                    fill="#33251c"
                    opacity="1"
                    stroke="none"
                    d="m 36.602093,87.775951 c -0.5525,-1.42129 -0.44532,-2.72638 2.06961,-2.59469 -0.39345,0.84921 -1.13973,1.6224 -2.06961,2.59469 z"
                    id="path1333"
                />
                <path
                    fill="#33251c"
                    opacity="1"
                    stroke="none"
                    d="m 39.018863,108.5753 c -0.63195,-0.45071 -0.59359,-0.96875 0.0162,-0.95862 0.61001,0.0101 0.62946,0.52912 -0.0162,0.95862 z"
                    id="path1334"
                />
                <path
                    fill="#d6ac7d"
                    opacity="1"
                    stroke="none"
                    d="m 55.902598,76.891784 c 0.24565,-0.15104 0.219225,0.02214 0.800395,-0.08644 4.22787,-1.05786 8.11679,-2.71423 12.18373,0.3367 0.19935,0.38419 0.787207,1.133218 0.815917,1.216738 0.44137,0.60074 1.035981,3.108337 -0.382983,1.931304 -4.95073,1.58594 -9.705554,2.914278 -14.958694,0.814908 0.0286,-1.27227 0.35794,-2.18524 0.96707,-3.3464 0.27974,-0.24817 0.567655,-0.719317 0.574565,-0.866807 z"
                    id="path1336"
                />
                <path
                    fill="#724b2a"
                    opacity="1"
                    stroke="none"
                    d="m 54.052533,81.081011 c 4.71047,-0.47626 9.41336,-0.61719 14.54676,-0.9003 1.013472,-0.05558 1.220813,-0.03529 1.7066,0.11857 0.5493,3.911377 -0.645971,2.82472 -2.240691,2.787603 -4.71909,2.05005 -8.070129,0.707317 -13.053219,0.626267 -0.67786,-0.35495 -0.92659,-0.53726 -1.08434,-1.1731 0.0998,-0.67694 0.10855,-0.90033 0.12489,-1.45904 z"
                    id="path1337"
                />
                <path
                    fill="#fdfcf4"
                    opacity="1"
                    stroke="none"
                    d="m 111.05401,64.401261 c 2.08602,-11.66257 -4.92781,-20.13498 -9.61361,-29.11511 -2.312557,-4.43192 -2.822117,-9.53116 -5.873427,-13.5575 -0.21262,-0.28052 -0.10886,-1.22354 0.1336,-1.36352 4.515707,-2.60776 2.92188,-8.12241 5.572497,-11.6166404 0.94211,-1.24192 1.02408,-3.64682 3.18884,-3.14597 1.76993,0.40949 3.08533,1.97873 3.45932,3.90875 0.34035,1.7564104 0.0276,3.7830004 2.74454,4.4892604 3.62543,2.26889 3.25494,6.17316 4.71725,9.60416 0.0666,0.59161 0.0733,0.82736 0.0718,1.40768 -0.0229,0.5676 -0.0377,0.79062 -0.09,1.33841 -0.11472,0.94104 -0.26491,1.55326 -0.0621,2.4776 0.26377,1.10849 0.6015,1.87204 0.91266,2.97876 0.2135,0.93625 0.26369,1.57379 0.32008,2.52936 -0.0218,1.58917 0.63059,2.75989 0.5322,4.33383 -0.0792,0.47992 -0.13069,0.66312 -0.29591,1.08679 -0.30655,0.54447 -0.31844,0.866 -0.13427,1.47165 0.0963,0.66355 0.0159,1.03427 -0.3513,1.60352 -2.25693,7.18219 -2.48253,14.3613 -2.63386,21.54306 -0.029,1.37347 -0.85491,1.58923 -2.26059,1.69449 -0.35384,-0.439 -0.34601,-0.88617 -0.33776,-1.66858 z"
                    id="path1341"
                />
                <path
                    fill="#afaa6a"
                    opacity="1"
                    stroke="none"
                    d="m 122.09669,100.39815 c 0.16034,-1.086179 0.14952,-2.059119 1.34568,-1.952269 2.98294,0.26635 5.90768,0.59176 6.25608,-3.72586 0.0261,-0.32392 1.76377,-0.50971 3.0873,-0.78806 1.12956,-1.11114 0.097,-3.37592 2.89384,-3.13013 0.33698,0.37036 0.34482,0.55371 0.37069,1.01172 1.81387,2.04492 2.03286,4.50797 2.9194,7.05432 0.21063,1.649969 0.21359,2.948369 -0.24861,4.199919 -0.34992,0.94748 -0.89142,1.89087 -1.92539,2.01792 -1.16696,0.14343 -1.73811,-0.8783 -1.93236,-1.82468 -0.3825,-1.86386 -1.28651,-2.51019 -3.37851,-1.58701 -0.4989,0.24817 -0.6958,0.35517 -1.19726,0.60486 -3.38193,1.60907 -2.51379,4.86499 -3.7435,7.53885 -2.26733,1.61591 -4.65732,0.20255 -7.13113,1.05554 -0.59275,-0.0724 -0.82776,-0.13568 -1.37766,-0.39614 -0.47035,-0.39441 -0.62582,-0.59156 -0.94012,-1.13398 -0.29685,-0.83715 -0.37282,-1.3385 -0.38553,-2.23129 0.17134,-2.18829 0.71951,-3.83023 2.35818,-5.30759 0.96781,-1.1625 2.87578,1.42554 3.0289,-1.40612 z"
                    id="path1345"
                />
                <path
                    fill="#53341d"
                    opacity="1"
                    stroke="none"
                    d="m 69.015703,77.070541 c -3.79004,0.37244 -7.65047,0.28918 -11.74059,-0.0821 1.70886,-6.24927 7.80013,-4.58554 12.55188,-4.7526 -0.209334,1.83597 -0.503825,3.20127 -0.96754,4.83472 z"
                    id="path1352"
                />
                <path
                    fill="#281e18"
                    opacity="1"
                    stroke="none"
                    d="m 41.617403,135.13069 c -1.14384,-2.32315 -3.08158,-11.51208 -3.08158,-11.51208 4.24825,-1.51886 7.28421,26.32693 -0.0593,-1.08933 -2.53919,-20.29154 -0.0638,2.39166 -1.74413,-14.67452 -0.94855,-9.634009 -0.98517,-18.898749 -0.58221,-23.726529 15.55166,-2.26367 0.0336,1.55126 2.13618,0.43325 0.95783,-0.27811 1.51031,-0.28251 2.41207,3.6e-4 1.34908,4.32895 -2.63932,7.88483 -1.02263,11.66104 0.97748,-5.07345 1.75048,-5.6137 6.56354,-3.31076 1.93932,0.92795 3.54406,0.27103 5.2965,-0.0436 4.44997,-0.7991 8.67439,-0.95535 11.54959,3.50626 0.77784,1.20706 2.05328,1.69266 3.47288,1.58469 6.09885,-0.46402 10.90103,2.322779 15.58583,6.322569 0.50583,0.69921 0.67997,1.16113 0.81484,2.02786 -0.02,1.41043 -0.37113,2.34994 -1.0575,3.55966 -0.53738,0.66629 -0.90565,0.97907 -1.62933,1.39325 -2.03439,0.7236 -2.24196,2.4425 -3.20627,4.00879 -0.46898,0.62378 -0.77292,0.94733 -1.32117,1.48401 -1.58735,1.47406 -0.82095,-6.04657 -0.0279,-4.33853 1.17023,3.83841 17.49681,-63.728669 4.54596,29.0054 -12.72725,-0.23715 -8.9359,-6.43704 -11.91655,-6.3967 -8.76903,0.11871 -17.54282,-0.21051 -26.72891,0.10495 z"
                    id="path980"
                />
                <path
                    fill="#8d6b49"
                    opacity="1"
                    stroke="none"
                    d="m 54.404403,84.341261 c -0.25775,-0.42581 -0.16615,-0.64438 0.094,-1.1784 4.65901,-0.25595 10.231617,-0.152256 15.187827,-0.07489 0.45384,0.24002 0.374598,0.371081 0.363028,0.927421 -4.74693,1.61777 -10.530605,0.904695 -15.644815,0.325865 z"
                    id="path1353"
                />
                <path
                    fill="#fefefd"
                    opacity="1"
                    stroke="none"
                    d="m 31.994462,6.4294006 c 14.434521,-0.34995 28.780881,-0.36261 43.595611,-0.37641 1.91159,1.59958 4.03935,0.51532 5.63617,1.28433 2.4323,1.17139 6.64728,1.50409 3.38794,6.0059904 -0.33127,0.45761 -0.43109,1.35806 -0.22257,1.89007 3.53601,9.02164 -1.63501,15.36365 -6.71588,21.65048 -2.74907,3.40162 -7.34958,2.51679 -10.93886,4.20502 -13.80274,6.49219 -25.80857,0.95316 -37.21036,-6.52572 -3.548759,-2.32773 -4.421913,-13.22632 -1.85952,-16.6088 0.723946,-0.95569 1.821121,-2.12033 1.040878,-3.07767 -3.88459,-4.76654 0.553795,-6.0455604 3.286591,-8.4472904 z"
                    id="path1357"
                />
                <path
                    fill="#472e1d"
                    opacity="1"
                    stroke="none"
                    d="m 80.700343,139.63017 c -1.8114,8.0975 -2.62248,5.07691 -4.19425,4.36746 -16.95322,-0.34082 -19.64036,-1.61706 -29.30083,0.5058 -0.0424,0.28055 -0.45387,0.28021 -0.65354,0.23398 -2.21842,-2.87466 -4.67145,-7.50225 -5.58754,-11.32775 1.35,-2.17334 31.450545,-0.94866 33.523045,-0.93154 7.80832,0.0644 -10.970309,5.04847 -4.6363,0.48153 1.579778,-1.13904 -4.450245,-0.60431 9.450665,-0.7534 2.06157,0.6644 2.79893,-1.94801 1.39875,7.42392 z"
                    id="path1299"
                />
                <path
                    fill="#b39d87"
                    opacity="1"
                    stroke="none"
                    d="m 118.83137,162.34244 c 1.28145,0.16846 -1.60379,0.52385 -0.2316,0.52376 2.24465,2.72849 -2.54855,1.02794 0.23261,1.13913 2.14739,0.0858 -0.45363,0.4367 1.27177,2.09789 -0.46437,1.68335 2.11254,1.57331 0.95501,1.73845 -7.79406,1.11195 1.73833,2.04479 -6.29682,1.73867 0.49669,-1.88729 2.50221,-0.78944 3.19783,-2.21466 -1.39352,-1.84938 -3.91615,-0.0481 -5.18496,-2.36557 1.31817,-3.54648 -2.6443,-5.62537 -1.2383,-9.06802 0.95786,-1.27199 1.99813,-1.77483 3.45255,-2.22 1.26443,-0.21192 2.1578,-0.58734 3.45125,-0.36458 1.29353,0.57269 1.63504,1.36555 1.22374,2.76209 -0.59617,1.14937 -2.00233,1.38134 -1.3717,3.05208 0.55457,0.76313 0.94357,1.25744 1.85165,1.55268 1.35788,0.32721 -2.64945,1.31817 -1.31303,1.62808 z"
                    id="path1371"
                    style="stroke-width: 0.964227"
                />
                <path
                    fill="#868a51"
                    opacity="1"
                    stroke="none"
                    d="m 94.255813,139.10084 c -0.59195,-0.57788 -1.0142,-0.8641 -1.69745,-1.18774 -2.19699,-1.65814 -1.59701,-3.31647 -0.0444,-5.24664 0.50535,-0.39691 0.7209,-0.53177 1.28326,-0.8028 1.87715,-0.56366 3.25345,-1.45263 5.01752,-1.89554 0.43178,-1.08859 0.33333,-1.97317 0.58911,-3.14938 0.44277,-0.92221 0.940457,-1.33084 1.901797,-1.61112 0.50738,-0.0362 0.7012,-0.0202 1.14895,0.0858 0.484,0.34143 0.76609,0.44098 1.17301,0.17975 0.95622,-1.41534 -0.98494,-0.82629 -0.79267,-1.9296 1.86367,-3.00674 4.00804,-3.17386 6.62409,-0.78836 0.79083,1.51801 0.6997,2.74622 0.37098,4.01941 -0.56349,2.1825 0.66956,2.4578 2.753,2.13397 2.63526,0.23615 4.20666,1.22831 4.27941,4.10614 -0.18487,0.5803 -0.30113,0.79429 -0.70745,1.22065 -1.92475,0.36776 -3.27707,0.95746 -4.14217,2.86926 -1.12091,1.24267 -2.00502,2.25503 -3.39533,3.1911 -0.50599,0.18011 -0.71803,0.21335 -1.23916,0.17722 -0.83188,-0.41657 -1.15759,-0.91922 -1.53703,-1.71878 -0.28296,-0.55249 -0.47751,-0.83823 -0.94402,-1.21408 -0.76126,-0.2869 -1.30879,-0.35041 -2.17247,-0.3812 -3.479097,-1.43784 -4.488617,2.56308 -7.382487,2.62143 -0.5278,-0.16178 -0.72229,-0.27481 -1.08649,-0.67954 z"
                    id="path1374"
                />
                <path
                    fill="#ad8155"
                    opacity="1"
                    stroke="none"
                    d="m 116.15373,154.82789 c -1.44772,0.4365 -2.63101,0.71079 -4.17868,0.94721 -0.78642,0.4064 -0.99605,1.0087 -1.73975,1.53626 -1.89752,-0.75959 -5.22253,1.88818 -5.02415,-3.15311 0.0959,-2.43686 -1.45087,-4.95261 0.92274,-8.00598 1.68093,-1.66755 3.2464,-1.67878 5.22766,-1.46311 1.40326,0.17743 2.2612,0.68814 3.37175,1.46283 0.54886,0.58939 0.77088,0.97864 0.93734,1.72656 -0.0763,0.89051 -0.28418,1.4011 -0.60457,1.78339 0.37964,0.22516 0.5148,0.35016 0.81767,0.70715 0.25894,0.40598 0.35016,0.57993 0.54935,1.03412 0.36928,1.28681 0.59884,2.29202 -0.27936,3.42468 z"
                    id="path1375"
                />
                <path
                    fill="#6c6b35"
                    opacity="1"
                    stroke="none"
                    d="m 86.419603,138.00746 c -0.9785,-0.7601 -1.61055,-1.56705 -2.2916,-2.68323 -0.13926,-1.31961 0.22081,-2.16375 1.17076,-3.12259 2.27396,-1.92163 4.50771,-2.12481 7.25329,-1.15298 1.04463,0.38989 1.58854,0.83093 1.54986,1.86188 -1.76753,1.208 -2.35864,2.55075 -1.89822,4.63601 -1.7506,0.32425 -3.60968,-0.64398 -5.78409,0.46091 z"
                    id="path1377"
                />
                <path
                    fill="#7e6c5a"
                    opacity="1"
                    stroke="none"
                    d="m 109.90529,157.73177 c 0.31956,-1.04075 0.20292,-2.04499 1.52452,-2.08253 0.59536,1.45673 0.35782,3.30286 1.72606,4.03238 2.86575,1.52781 1.06799,3.12967 0.0899,4.86625 -0.27711,0.0958 -0.24852,0.0526 -0.22258,0.0541 -0.31407,-0.005 0.0859,-1.13647 -0.82733,-0.23678 -0.13205,0.23654 -0.14299,0.18872 -0.11876,0.19247 -0.24985,0.72867 -0.76749,1.017 -1.79669,0.43656 -0.26856,-0.43311 -0.22005,-0.44776 -0.22144,-0.42246 -0.11181,-0.22372 -0.22221,-0.47269 -0.16852,-1.09576 0.0528,-2.05884 -1.17595,-3.7009 0.0149,-5.74426 z"
                    id="path1378"
                />
                <path
                    fill="#562d14"
                    opacity="1"
                    stroke="none"
                    d="m 94.074443,139.17244 c 0.16626,-0.29697 0.32087,-0.23065 0.71258,-0.0779 1.14091,0.69015 2.11778,0.8406 3.4813,0.5234 1.43644,-0.0274 2.461137,-0.55819 3.926067,-0.60266 0.8396,0.0867 1.29311,0.25446 1.99285,0.75409 0.9041,1.60495 0.5751,2.74631 -0.71762,4.02081 -2.64627,0.13862 -4.782227,-1.14016 -7.319547,-0.84536 -2.45316,0.28497 -1.8111,-1.99219 -2.07563,-3.77237 z"
                    id="path1379"
                />
                <path
                    fill="#75573b"
                    opacity="1"
                    stroke="none"
                    d="m 103.39465,144.06633 c 0.0277,-1.02387 0.24818,-2.04877 0.50388,-3.39157 0.41711,-1.21695 1.18791,-1.44773 2.47175,-1.41037 0.56673,0.17001 0.72536,0.25229 1.10044,0.49264 0.70631,0.30899 1.02607,0.62351 1.14372,1.48999 -0.15874,0.82306 -0.40564,1.22428 -1.05535,1.75251 -1.14227,0.54052 -1.9785,0.93225 -3.24682,1.05108 -0.33907,0.0197 -0.72476,0.0147 -0.91762,0.0157 z"
                    id="path1380"
                />
                <path
                    fill="#a57b52"
                    opacity="1"
                    stroke="none"
                    d="m 104.11549,144.32634 c 0.375,-0.83704 0.89229,-1.41806 1.68048,-2.11414 0.43025,0.0726 0.58959,0.26016 0.92333,0.77384 0.35594,1.07986 0.25374,1.78872 -0.39226,2.73642 -0.23129,0.2882 -0.29389,0.34912 -0.33298,0.37216 -0.60484,-0.48874 -1.17056,-1.00049 -1.87857,-1.76828 z"
                    id="path1381"
                />
                <path
                    fill="#b39d87"
                    opacity="1"
                    stroke="none"
                    d="m 110.07133,164.96623 c 0.40914,-0.33594 0.87778,-0.26678 1.6882,-0.30121 0.269,1.5874 -0.44046,1.72928 -1.6882,0.30121 z"
                    id="path1382"
                />
                <path
                    fill="#b39d87"
                    opacity="1"
                    stroke="none"
                    d="m 109.81315,163.20027 c 0.24356,0.15063 0.24579,0.39966 0.2462,1.02277 -0.16372,-0.0588 -0.32565,-0.49161 -0.2462,-1.02277 z"
                    id="path1384"
                />
                <path
                    fill="#b39d87"
                    opacity="1"
                    stroke="none"
                    d="m 112.3099,164.71858 c -0.0566,-0.45959 -0.11287,-1.23468 0.6823,-0.36371 -0.10745,0.3259 -0.27182,0.4032 -0.6823,0.36371 z"
                    id="path1385"
                />
                <path
                    fill="#281e18"
                    opacity="1"
                    stroke="none"
                    d="m 82.004423,99.277421 c 0.2759,0.896089 0.2616,1.988459 0.21858,3.494629 -1.27197,-0.68347 -1.47999,-1.91467 -0.21858,-3.494629 z"
                    id="path1639"
                />
                <path
                    fill="#afaa6a"
                    opacity="1"
                    stroke="none"
                    d="m 91.075123,105.35402 c 0.98516,-3.06031 4.42019,-0.44025 5.77748,-3.10117 0.35365,-0.45602 0.54089,-0.64456 1.0905,-0.99936 4.227887,-0.48425 5.557927,1.70841 4.918177,5.04187 -0.55009,2.86634 -0.34357,6.00284 -2.62027,8.71573 -2.071877,0.69144 -2.540567,-1.3323 -4.202327,-1.79727 -0.89072,-0.48776 -1.40984,-0.90631 -2.05847,-1.65527 -0.23879,-0.46155 -0.29256,-0.6626 -0.32473,-1.16346 0.15912,-0.8945 0.0141,-1.41818 -0.51391,-2.15329 -0.76671,-1.04361 -1.39519,-1.81427 -2.06645,-2.88778 z"
                    id="path1640"
                />
                <path
                    fill="#9a924f"
                    opacity="1"
                    stroke="none"
                    d="m 92.718353,108.08632 c 1.09639,-0.0821 1.91649,-0.10764 2.71668,0.007 0.734,0.10467 1.98912,-0.11493 1.88676,0.95645 -0.12631,1.32211 -1.44794,0.84003 -2.68982,0.87885 -1.31439,0.12771 -1.45904,1.13009 -2.33696,1.83343 -1.05318,0.6192 -1.88348,0.83066 -3.0482,0.42413 -0.83769,-3.03357 0.59408,-4.03705 3.47154,-4.09936 z"
                    id="path1642"
                />
                <path
                    fill="#6c6b35"
                    opacity="1"
                    stroke="none"
                    d="m 88.786153,112.03252 c 0.95874,-0.30011 1.71974,-0.55347 2.78111,-0.83408 0.69166,0.11145 0.94707,0.3848 1.11813,1.06995 -0.014,0.49896 -0.0563,0.69769 -0.24231,1.16851 -0.27852,0.42908 -0.41325,0.586 -0.79457,0.93464 -0.43544,0.28152 -0.62428,0.37136 -1.11952,0.53234 -0.95068,0.1146 -1.55385,-0.0145 -2.29866,-0.60504 -0.16142,-0.65906 -0.13005,-1.07113 -0.0642,-1.79059 0.0345,-0.30734 0.42226,-0.42898 0.62003,-0.47573 z"
                    id="path1643"
                />
                <path
                    fill="#6c6b35"
                    opacity="1"
                    stroke="none"
                    d="m 81.125353,126.27724 c 0.10275,-0.28788 0.29175,-0.30015 0.76405,-0.33374 1.19414,-0.03 1.55759,0.51263 1.54213,1.68493 -0.30632,0.49143 -0.50862,0.62998 -1.04799,0.62128 -0.33705,-0.14728 -0.33937,-0.16721 -0.35075,-0.17108 -0.28133,-0.51117 -0.55126,-1.01847 -0.90744,-1.80139 z"
                    id="path1646"
                />
                <path
                    fill="#fbeac0"
                    opacity="1"
                    stroke="none"
                    d="m 113.61055,27.243601 c 0.26266,0.2609 0.36615,0.70539 0.41821,1.4928 -0.65588,-0.0712 -0.93445,-0.58899 -0.41821,-1.4928 z"
                    id="path1651"
                />
                <path
                    fill="#eee6d6"
                    opacity="1"
                    stroke="none"
                    d="m 115.66432,40.135761 c 0.17146,0.0406 0.24403,0.21139 0.28767,0.65908 -0.35878,0.0928 -0.47798,-0.17581 -0.28767,-0.65908 z"
                    id="path1652"
                />
                <path
                    fill="#afaa6a"
                    opacity="1"
                    stroke="none"
                    d="m 146.86596,95.857101 c -0.29461,4.458099 2.23398,7.947879 3.17263,11.833799 0.5426,2.24634 1.08848,4.3822 0.8565,7.11405 -0.27385,0.47586 -0.50743,0.51852 -1.06186,0.40499 -1.24943,-0.95452 -1.7573,-2.01031 -2.24791,-3.46701 -2.09883,-3.27023 -2.99592,-7.12457 -7.1739,-8.22579 -1.28914,-0.33982 -2.12137,-1.58591 -1.43576,-3.38489 3.18335,-1.056729 1.66637,-3.531529 2.10919,-5.679839 1.36653,-0.39148 2.74986,-0.38449 4.54782,-0.37879 0.4146,-0.001 0.42647,-0.0145 0.42136,-0.011 0.43989,0.43015 0.492,1.01755 0.81193,1.79453 z"
                    id="path1657"
                />
                <path
                    fill="#868a51"
                    opacity="1"
                    stroke="none"
                    d="m 138.97903,99.873671 c 0.12973,1.542239 1.19103,1.905489 2.29578,2.395719 1.38296,0.61362 2.24905,1.41727 4.30173,0.83768 1.80409,-0.5094 -2.71994,2.60126 0.4701,3.46863 1.91198,0.51986 1.91054,2.49295 2.78635,4.20581 -0.20508,0.6246 -0.57111,0.86011 -1.3075,1.04028 -1.02793,0.16092 -1.51895,-0.94324 -2.57327,-0.16373 -1.73981,0.75821 -3.28593,0.44901 -5.13856,0.47855 -0.54897,-0.0482 -0.76564,-0.0823 -1.29341,-0.2138 -0.68787,-0.28211 -1.03582,-0.50947 -1.52793,-1.01453 -0.26034,-0.38147 -0.33767,-0.54285 -0.44732,-0.94519 -0.0323,-0.241 0.17266,-0.61182 0.17266,-0.61182 0,0 -0.41107,-0.0743 -0.56948,0.0817 -0.3825,0.38031 -0.5508,0.64077 -0.72651,1.19372 -0.17526,0.81659 -0.34315,1.35883 -0.76825,2.13083 -1.4508,1.13937 -2.66429,0.38629 -4.19781,-0.0183 -0.46927,-0.29425 -0.63556,-0.4443 -0.95367,-0.89392 0.64822,-5.09381 -2.30985,0.97553 -2.98206,-1.48206 -0.3987,-3.73324 -1.72803,-7.62585 3.17221,-9.3092 0.36031,0.0144 0.70728,0.35431 0.70728,0.35431 0,0 -0.0396,-0.054 -0.18453,-0.20624 4.83949,-3.244139 4.83949,-3.244139 6.34355,2.79111 1.85573,-0.79062 0.81887,-2.55649 1.46828,-4.057439 0.34714,-0.20538 0.51874,-0.15875 0.95236,-0.0621 z"
                    id="path1663"
                />
                <path
                    fill="#868a51"
                    opacity="1"
                    stroke="none"
                    d="m 118.85359,110.33589 c 2.27211,-1.44717 4.33623,-2.77618 6.82776,-0.4234 0.30847,0.0639 0.3677,0.13089 0.39854,0.16324 0.81789,1.36655 2.26094,1.19864 3.73163,1.76187 0.24983,0.22235 0.24904,0.22113 0.24843,0.22052 0.72955,0.85092 1.86458,1.3158 2.41254,2.7612 0.12251,1.04309 -0.10086,1.68555 -0.63285,2.57846 -1.95225,1.6395 -2.52099,4.172 -5.17224,5.02808 -0.56489,-0.0221 -0.7877,-0.0832 -1.3049,-0.32911 -0.98137,-0.8146 -1.64075,-1.46621 -2.1156,-2.67562 -0.1537,-3.48029 -1.97238,-5.61673 -4.38446,-7.80896 -0.17271,-0.53782 -0.19212,-0.76725 -0.009,-1.27628 z"
                    id="path1664"
                />
                <path
                    fill="#9a924f"
                    opacity="1"
                    stroke="none"
                    d="m 118.84541,110.04637 c 0.21088,0.01 0.19412,0.41583 0.18674,0.61884 0.009,1.04843 0.30037,1.85534 0.33902,3.01242 -0.18874,1.36529 -0.0844,2.38348 0.38269,3.70044 0.0344,0.80383 -0.0774,1.25189 -0.4989,1.96386 -1.8116,1.32993 -3.55525,1.29889 -5.6942,0.97391 -0.5894,-0.2099 -0.81389,-0.32126 -1.31618,-0.6777 -0.37428,-0.46765 -0.47078,-0.69019 -0.56355,-1.2714 0.6225,-2.80847 3.45251,-4.03985 3.63046,-7.12042 0.523,-1.31399 1.21408,-1.84207 2.61668,-1.40567 0.28484,0.22009 0.70636,0.1958 0.91724,0.20572 z"
                    id="path1665"
                />
                <path
                    fill="#6c6b35"
                    opacity="1"
                    stroke="none"
                    d="m 118.04822,109.87511 c -0.60914,0.26455 -1.34934,0.39941 -1.71851,1.54708 -0.26897,0.79978 -0.62794,1.1652 -1.54549,1.42682 -0.65388,0.0144 -0.91412,-0.0294 -1.52023,-0.26278 -1.11296,-1.04734 -1.18141,-2.04599 -0.79721,-3.45859 0.63658,-1.22168 1.44482,-1.78848 2.48697,-2.61316 0.76835,-0.0312 1.23149,0.12524 1.83069,0.49133 0.87443,0.44336 0.72831,1.11255 0.85778,1.9476 0.0117,0.29581 0.2412,0.73606 0.406,0.9217 z"
                    id="path1666"
                />
                <path
                    fill="#9a924f"
                    opacity="1"
                    stroke="none"
                    d="m 117.74096,108.92317 c -0.32249,-0.16577 -0.55795,-0.65759 -0.80693,-1.42856 0.1617,-0.28524 0.33693,-0.29135 0.77188,-0.26272 0.21384,0.47824 0.16797,0.92172 0.035,1.69128 z"
                    id="path1667"
                />
                <path
                    fill="#907a60"
                    opacity="1"
                    stroke="none"
                    d="m 123.23308,154.64269 c -0.1696,1.63114 -0.8315,13.72163 -1.28123,14.47584 -15.58064,4.57754 -1.36703,-8.80977 -1.8415,-8.70162 -0.70902,-0.2163 -1.04254,-0.47638 -1.51929,-1.06066 -0.2684,-0.46094 -0.34387,-0.66288 -0.45784,-1.18589 -0.004,-0.75384 0.11017,-1.16317 0.49321,-1.81408 0.86882,-0.62464 1.23352,-1.13041 0.76619,-2.13843 -2.35531,-1.36432 -1.43024,-3.92468 -2.71869,-5.83655 -0.31199,-0.61737 -0.49815,-0.94363 -1.22101,-1.28808 -1.26812,-0.28147 -2.03634,-0.52301 -3.08203,-0.89377 -0.4237,-0.30448 -0.56994,-0.47971 -0.7129,-0.99558 0.27655,-1.22299 0.87935,-1.82013 1.87913,-2.34613 0.53359,-0.0289 0.87064,-0.24365 0.7562,-0.41244 -0.37082,-0.54703 0.33122,0.11032 -0.59931,0.0713 -1.97577,-1.33935 -1.7173,-2.89297 -0.43762,-4.15267 1.27437,-1.25446 2.00395,-2.89551 3.49548,-4.39008 0.56337,-0.59421 0.97509,-0.81631 1.77849,-1.01575 0.80995,-0.0421 1.25958,0.0288 1.98097,0.33237 1.03989,0.77911 0.92231,2.04236 2.21526,2.67181 0.7184,0.75052 1.06397,1.35959 1.46478,2.37015 0.17849,5.71607 -0.46652,7.61023 -0.67198,13.17737 -0.0524,1.66287 -0.49159,5.95039 -1.58891,7.28728 -2.7096,-0.63354 0.34211,-3.60085 0.24194,-2.3424 z"
                    id="path1717"
                />
                <path
                    fill="#cab39e"
                    opacity="1"
                    stroke="none"
                    d="m 116.71245,146.84614 c 3.26083,1.46546 2.1781,4.15152 2.47059,6.76917 -0.83504,0.72354 -1.71124,1.04449 -2.9406,1.37012 -0.6239,-1.03678 -0.89463,-2.07822 -1.16702,-3.45133 0.10904,-0.52932 0.21976,-0.72696 0.18576,-1.23202 -0.1447,-0.30741 -0.15816,-0.23322 -0.13852,-0.26581 -0.2073,-0.17676 -0.43428,-0.32092 -0.36371,-0.73737 0.29523,-0.71249 0.29288,-1.15271 0.2423,-1.91925 -0.0482,-0.32635 0.10765,-0.33511 0.18315,-0.31531 0.39612,-0.3334 0.79007,-0.49618 1.52805,-0.2182 z"
                    id="path1718"
                />
                <path
                    fill="#cdc4b3"
                    opacity="1"
                    stroke="none"
                    d="m 118.4955,156.16316 c 0.36445,0.36673 0.42373,0.80948 0.52487,1.58469 -0.52751,0.82635 -0.32559,1.62961 -1.05283,2.18716 -2.93738,-1.66919 -1.76831,-2.74597 0.52796,-3.77185 z"
                    id="path1719"
                />
                <path
                    fill="#8b7962"
                    opacity="1"
                    stroke="none"
                    d="m 117.81466,160.24861 c 0.0919,-0.86877 0.37697,-1.41211 0.95479,-2.06189 0.29274,-0.10641 0.2867,0.36084 0.2851,0.59445 0.22604,0.49161 1.30384,-0.17642 1.75543,0.22159 0.19351,0.17041 -0.27411,1.05927 -0.0922,1.04151 0.25019,0.44177 0.31852,0.9013 0.37893,1.71051 -1.29371,0.36056 -2.56082,0.3338 -3.28203,-1.50617 z"
                    id="path1720"
                />
                <path
                    fill="#515422"
                    opacity="1"
                    stroke="none"
                    d="m 118.98399,133.8647 c -0.6989,0.0936 -1.05904,0.0764 -1.68669,0.10586 -0.41208,0.18827 -0.55664,0.32981 -0.93333,0.27585 -0.11799,-2.49655 -0.74572,-4.20471 -3.84229,-4.25659 -2.17067,-0.37866 -2.50096,-1.73358 -2.52263,-3.58997 0.18726,-0.97973 0.61658,-1.45098 0.99678,-1.96527 0.39453,-0.53366 0.29523,-0.99737 0.12987,-0.35153 -0.16536,0.64585 -0.77872,-0.0841 -0.55837,0.47058 -0.6495,0.058 -0.97544,-0.10806 -1.3547,-0.65463 -1.94338,-2.76498 -3.83516,-1.95599 -5.9628,-0.11533 -0.33937,0.69465 -0.47014,1.13645 -0.70712,1.90683 -0.79044,0.47858 -1.48696,0.62491 -2.46167,1.00083 -1.036617,1.24863 -1.884227,0.86264 -2.987487,0.13849 -0.35909,-0.45374 -0.46831,-0.66022 -0.64401,-1.20981 -0.0842,-1.04773 0.13377,-1.70493 0.48513,-2.67133 0.27955,-0.4873 0.41431,-0.66769 0.8129,-1.05475 0.47099,-0.28289 0.67815,-0.35913 1.20578,-0.49478 2.097457,-0.20007 3.553967,-0.89447 4.658267,-2.76574 0.28636,-0.47669 0.41111,-0.66419 0.7611,-1.11097 0.39985,-0.41192 0.57447,-0.56457 1.0456,-0.90554 0.51442,-0.27802 0.73236,-0.36768 1.29608,-0.5365 0.582,-0.0958 0.81824,-0.11243 1.409,-0.10394 1.30766,0.15826 2.15506,0.5726 3.44711,1.54095 0.42894,0.69705 0.40211,0.86954 0.35499,1.30316 -0.0203,0.26108 -0.19085,0.65363 -0.009,0.54111 2.21271,-0.19641 4.24339,-0.28034 6.71109,-0.3555 2.50107,3.9595 5.72086,7.56851 4.00114,12.90713 -0.96905,1.31436 -2.2975,1.24729 -3.64491,1.95139 z"
                    id="path1721"
                />
                <path
                    fill="#8d6e52"
                    opacity="1"
                    stroke="none"
                    d="m 115.90208,134.05418 c 0.22978,-0.003 0.67839,-0.0383 0.90305,-0.0376 1.20093,3.50482 -3.21033,4.54592 -3.02265,7.81549 0.41014,0.3345 0.59883,0.4418 0.58409,0.80334 -0.69302,0.88257 -1.18261,1.51086 -1.92839,2.30054 -1.65373,-0.0406 -2.35702,-1.00446 -2.93949,-2.56092 -0.25435,-2.24252 0.76493,-3.62469 2.03047,-5.29843 0.91456,-1.53662 1.23407,-3.15023 3.36062,-3.18862 0.32294,0.17553 0.7825,0.16943 1.0123,0.16616 z"
                    id="path1722"
                />
                <path
                    fill="#515422"
                    opacity="1"
                    stroke="none"
                    d="m 98.677053,140.72975 c -1.50055,0.32959 -2.49791,-0.038 -3.46009,-1.27441 2.48332,-0.93583 3.01337,-6.25342 7.506327,-3.51804 0.92533,0.70514 0.87438,1.33115 0.30138,2.22775 -1.86441,0.3483 -2.53168,2.13553 -4.347617,2.5647 z"
                    id="path1723"
                />
                <path
                    fill="#afaa6a"
                    opacity="1"
                    stroke="none"
                    d="m 111.34617,124.77394 c -0.29637,1.83511 -0.37124,3.2738 0.61361,4.89377 -0.64789,1.4682 -1.73224,1.69784 -2.7985,0.79214 -2.22642,-1.89114 -0.34478,-3.99072 -0.11061,-6.41797 0.50589,-0.38781 0.95607,-0.362 1.74298,-0.37606 0.46634,0.21298 0.59598,0.46579 0.55252,1.10812 z"
                    id="path1724"
                />
                <path
                    fill="#a58e74"
                    opacity="1"
                    stroke="none"
                    d="m 101.86963,138.34047 c 0.51803,-0.759 0.83561,-1.21363 1.16499,-1.95758 0.8687,-0.42066 1.7256,-0.55191 2.78058,-0.52323 0.51443,0.43888 0.7901,0.75345 1.12405,1.40287 0.0404,0.7568 -0.0182,1.21444 -0.1188,1.88086 -0.7486,0.46255 -1.45513,0.71633 -2.5242,1.09179 -0.76702,0.0412 -1.1715,-0.0394 -1.87113,-0.21246 -0.67056,-0.44144 -0.8242,-0.86987 -0.55549,-1.68225 z"
                    id="path1725"
                />
                <path
                    fill="#5a361a"
                    opacity="1"
                    stroke="none"
                    d="m 111.82371,136.89577 c 0.28528,1.95352 -0.68895,3.22485 -1.96075,4.73251 -0.31273,0.43832 -0.43076,0.59195 -0.83447,0.79901 -0.46824,-0.0118 -0.65076,-0.0769 -0.84061,-0.43277 -0.0824,-0.69818 -0.1574,-1.10571 -0.36658,-1.79633 0.70581,-1.27493 1.04288,-2.77566 2.95416,-3.07485 0.48935,-0.18326 0.65281,-0.30491 1.04825,-0.22757 z"
                    id="path1726"
                />
                <path
                    fill="#6c6b35"
                    opacity="1"
                    stroke="none"
                    d="m 96.880573,126.01304 c 1.05343,0.30594 1.71713,0.6124 2.65155,0.91337 0.699767,0.82556 1.598967,1.50827 0.899107,2.82638 -0.938917,0.28943 -1.677507,0.31976 -2.794217,0.32153 -1.82908,0.0325 -2.8463,-0.52371 -3.06897,-2.44372 0.45791,-1.1312 1.11412,-1.48941 2.31253,-1.61756 z"
                    id="path1727"
                />
                <path
                    fill="#afaa6a"
                    opacity="1"
                    stroke="none"
                    d="m 97.759293,129.27101 c 0.87732,-0.0731 1.46027,0.0778 2.255707,0.45276 1.0458,4.30496 -3.498977,0.84247 -4.174007,3.24655 -0.76281,-0.0668 -1.08881,-0.39822 -1.28864,-1.26089 0.42711,-1.82349 1.68297,-1.99805 3.20694,-2.43842 z"
                    id="path1728"
                />
                <path
                    fill="#556b35"
                    opacity="1"
                    stroke="none"
                    d="m 112.30874,136.90572 c -0.25302,0.18902 -0.73079,0.17788 -0.96908,0.16696 0.781,-1.5239 -0.4442,-5.4639 3.77278,-3.31839 -1.23232,0.74505 -1.77559,1.96954 -2.8037,3.15143 z"
                    id="path1729"
                />
                <path
                    fill="#afaa6a"
                    opacity="1"
                    stroke="none"
                    d="m 102.56459,125.98189 c -0.6089,-0.61219 -1.50846,-1.27994 0.20776,-1.90583 0.75321,-0.009 1.25501,0.002 1.74973,0.0667 0.75715,0.0992 1.69626,-0.2045 2.04863,0.86343 -0.71822,0.1698 -1.43644,0.3396 -2.33568,0.71765 -0.36119,0.43057 -0.54137,0.65286 -1.01651,0.56336 -0.29495,-0.3118 -0.53813,-0.34626 -0.65393,-0.30536 z"
                    id="path1730"
                />
                <path
                    fill="#515422"
                    opacity="1"
                    stroke="none"
                    d="m 95.005703,130.66469 c 0.25737,0.82443 0.34586,1.27023 0.50628,2.04998 -0.21338,0.38834 -0.49871,0.44272 -1.2211,0.47944 -0.90343,-0.34827 -1.3698,-0.67884 -2.14679,-1.00214 -1.37181,-0.10126 -1.55681,-0.80591 -1.2381,-2.03479 1.59674,-1.22916 2.82481,-1.03293 4.09971,0.50751 z"
                    id="path1731"
                />
                <path
                    fill="#515422"
                    opacity="1"
                    stroke="none"
                    d="m 102.9217,126.31569 c 0.19057,-0.33954 0.37929,-0.33887 0.85016,-0.36084 0.42581,0.82763 1.76824,1.90249 0.52288,2.45715 -1.48525,0.66153 -1.09191,-0.99713 -1.37304,-2.09631 z"
                    id="path1732"
                />
                <path
                    fill="#75573b"
                    opacity="1"
                    stroke="none"
                    d="m 106.97537,137.23952 c -0.22931,0.0169 -0.5215,-0.2883 -0.88789,-0.90674 0.22555,-0.0139 0.52528,0.28528 0.88789,0.90674 z"
                    id="path1733"
                />
                <path
                    fill="#75573b"
                    opacity="1"
                    stroke="none"
                    d="m 109.07797,142.16521 c 0.31802,-0.20121 0.45403,-0.24912 0.52217,-0.25068 1.28693,0.4506 1.57073,1.67731 2.40222,2.89096 0.17964,0.29187 0.1207,0.77692 0.1059,1.02082 -1.73007,0.23312 -3.44534,0.22235 -5.58656,0.19797 -0.41881,-0.68537 -0.41166,-1.35712 -0.38861,-2.36539 0.53216,-1.62213 1.81571,-0.81217 2.94488,-1.49368 z"
                    id="path1734"
                />
                <path
                    fill="#907a60"
                    opacity="1"
                    stroke="none"
                    d="m 114.82159,149.05055 c 0.23494,-0.0239 0.30837,0.46198 0.31455,0.70752 -0.40769,0.10895 -0.82154,-0.0277 -1.2354,-0.16431 0.22864,-0.17309 0.45728,-0.34622 0.92085,-0.54321 z"
                    id="path1735"
                />
                <path
                    fill="#907a60"
                    opacity="1"
                    stroke="none"
                    d="m 115.09541,150.29622 c 0.24667,-0.0954 0.48741,0.0981 0.68141,0.33059 0.0287,0.0344 -0.16369,0.25318 -0.47844,0.48111 -0.22442,-0.10705 -0.22421,-0.30859 -0.20297,-0.8117 z"
                    id="path1736"
                />
                <path
                    fill="#868a51"
                    opacity="1"
                    stroke="none"
                    d="m 91.012373,129.42555 c 0.18196,1.20584 0.30432,1.77011 0.62389,2.55402 -1.42432,1.02478 -3.4991,-1.53693 -5.1913,0.96219 -0.66684,-1.28907 -1.03696,-2.63883 -3.05962,-2.95786 -0.6662,-0.34653 -0.80404,-0.72632 -0.5363,-1.4061 0.073,-0.87423 -0.0752,-1.51538 -0.44989,-2.40609 -0.13777,-1.83609 0.99973,-2.05838 2.60344,-2.15729 1.04878,0.50546 1.4823,1.19885 1.88478,2.27322 0.29976,0.60947 0.55405,0.86814 1.19315,1.04361 0.92647,-1.8e-4 1.52154,0.13224 2.30639,0.6731 0.34684,0.40594 0.45636,0.59277 0.62546,1.4212 z"
                    id="path1737"
                />
                <path
                    fill="#868a51"
                    opacity="1"
                    stroke="none"
                    d="m 101.87135,137.80022 c 0.20894,0.65707 0.21916,1.0783 0.24399,1.81475 -0.92563,0.92606 -1.85275,1.57874 -3.402647,1.27039 2.044857,0.15115 -1.15672,-5.21988 3.158657,-3.08514 z"
                    id="path1738"
                />
                <path
                    fill="#ad8155"
                    opacity="1"
                    stroke="none"
                    d="m 109.0919,141.89995 c -0.54217,0.47934 -1.38843,0.89465 -2.58881,1.36621 -0.37278,-0.14774 -0.39144,-0.35172 -0.42315,-0.86234 0.46338,-0.36145 0.93982,-0.41629 1.75842,-0.58551 0.54462,-0.0704 0.74704,-0.0264 1.25354,0.0816 z"
                    id="path1739"
                />
                <path
                    fill="#9a924f"
                    opacity="1"
                    stroke="none"
                    d="m 104.94746,117.81822 c -0.64657,3.22598 -1.93507,5.58701 -5.649257,4.52182 -0.1306,-0.91299 -0.35689,-1.4956 -1.10397,-2.14615 -0.38337,-0.38968 -0.52741,-0.55697 -0.85447,-1.00436 -0.85765,-1.86228 -1.17564,-3.35169 1.17771,-4.176 3.157877,-2.94488 1.47432,-7.15347 3.164757,-10.57931 0.71208,-1.44318 -1.42685,-2.25302 -3.433357,-2.35977 3.228617,-4.808109 5.429637,0.69754 8.578537,1.37832 0.82882,1.3906 1.67488,1.67447 3.0093,0.73319 0.44661,-0.49567 0.69841,-0.74179 1.19937,-1.08884 0.68677,-0.47107 1.18927,-0.61526 2.08988,-0.29916 1.53117,0.92883 -0.57836,3.00045 1.8683,3.40689 -0.0288,0.87375 -0.32236,1.62546 -0.89409,2.51214 -1.34312,-0.0441 -2.16217,0.7425 -3.42314,0.98038 -1.1019,0.54096 -1.28709,1.20319 -0.91801,2.36673 0.0819,0.76563 0.0239,1.20035 -0.26847,1.9158 -1.3007,1.90775 -5.00683,9e-5 -4.54309,3.83832 z"
                    id="path1931"
                />
                <path
                    fill="#6c6b35"
                    opacity="1"
                    stroke="none"
                    d="m 98.888383,114.69569 c -1.75345,1.15622 -1.47658,2.43955 -0.86305,4.09735 -0.26996,0.67991 -0.65796,0.94776 -1.47304,1.18042 -0.60315,0.0472 -0.84708,0.0345 -1.4487,-0.0641 -0.81546,-0.2696 -1.2544,-0.49076 -1.98932,-0.94495 -1.92384,-1.10999 -3.32957,-2.13214 -2.27893,-4.62564 0.23596,-0.2909 0.22432,-0.27915 0.21858,-0.27304 0.22569,-0.22241 0.45613,-0.45191 0.85753,-0.85535 0.17195,-0.17297 0.23966,-0.24917 0.27368,-0.28711 0.33821,-0.29077 0.67197,-0.49542 1.3239,-0.70654 0.86733,-0.0472 1.43793,0.10696 2.30428,-0.003 1.9887,-0.3287 3.35408,-0.16638 3.07507,2.48218 z"
                    id="path1932"
                />
                <path
                    fill="#d6ac7d"
                    opacity="1"
                    stroke="none"
                    d="m 94.253143,112.76512 c -0.61569,0.22568 -1.0204,0.16388 -1.72954,0.11115 -0.36607,-0.37513 -0.42772,-0.75934 -0.57266,-1.42435 0.39807,-1.02237 0.8056,-1.85742 2.10974,-1.69287 0.18552,0.3529 0.14948,0.56091 0.0988,1.08529 0.29172,0.70688 0.39808,1.14588 0.0936,1.92078 z"
                    id="path1933"
                />
                <path
                    fill="#9a924f"
                    opacity="1"
                    stroke="none"
                    d="m 94.215713,113.28889 c -0.16576,-0.65829 -0.15793,-1.08035 -0.11047,-1.8153 0.57936,-0.13935 1.11906,0.0342 1.82521,0.45175 0.0511,1.26745 -0.056,2.30145 -1.71474,1.36355 z"
                    id="path1934"
                />
                <path
                    fill="#9a924f"
                    opacity="1"
                    stroke="none"
                    d="m 94.543323,106.53636 c 0.0388,-0.0195 -0.0388,0.0195 0,0 z"
                    id="path1935"
                />
                <path
                    fill="#9a924f"
                    opacity="1"
                    stroke="none"
                    d="m 90.692123,114.04079 c 0.19304,1.85327 1.01898,2.95877 3.11813,3.50292 0.42353,0.42823 0.55301,0.70118 0.52179,1.39875 -2.81938,1.98651 -5.51356,3.27624 -8.9405,1.22693 -0.022,-1.41944 0.29201,-2.53904 0.60509,-4.02094 -9.7e-4,-0.36227 0.0125,-0.6864 0.0258,-0.84808 0.43395,-0.6301 1.01999,-0.72803 1.80371,-1.06562 0.21509,-0.20065 0.23235,-0.18966 0.22184,-0.18627 0.74798,-0.003 1.50645,-0.009 2.6441,-0.008 z"
                    id="path1936"
                />
                <path
                    fill="#946439"
                    opacity="1"
                    stroke="none"
                    d="m 87.745043,114.08119 c -0.17476,0.28497 -0.64575,0.61707 -1.413,1.00333 0.17475,-0.28263 0.64576,-0.61945 1.413,-1.00333 z"
                    id="path1937"
                />
                <path
                    fill="#9a924f"
                    opacity="1"
                    stroke="none"
                    d="m 91.847393,113.13917 c 0.0435,0.17167 -0.149,0.4451 -0.57035,0.82557 -0.0411,-0.16993 0.14662,-0.44684 0.57035,-0.82557 z"
                    id="path1938"
                />
                <path
                    fill="#515422"
                    opacity="1"
                    stroke="none"
                    d="m 85.127843,120.1891 c 2.8063,0.83243 5.35636,-1.20285 8.53607,-1.18115 0.67389,-0.10391 0.93197,-0.19083 1.55525,-0.0947 0.3652,0.18302 0.35341,0.12695 0.32599,0.13526 2.8002,1.8236 0.56393,3.56933 -0.27095,5.68518 -1.20291,1.43835 -1.96778,2.79315 -3.69589,3.59372 -1.9237,-0.88388 -2.66765,-2.12052 -1.70711,-4.12772 0.14317,-0.1861 0.3647,-0.42722 0.3647,-0.42722 0,0 -0.15994,-0.27114 -0.29752,-0.12466 -0.13757,0.14645 -0.57409,0.34064 -0.83217,0.40164 -0.64375,0.0971 -1.02624,0.071 -1.7044,-0.10965 -0.46591,-0.24441 -0.63398,-0.37716 -0.94712,-0.79648 -0.51489,-1.06927 -0.8847,-1.85199 -1.32685,-2.95419 z"
                    id="path1939"
                />
                <path
                    fill="#6c6b35"
                    opacity="1"
                    stroke="none"
                    d="m 88.922313,123.20543 c 0.24302,-0.20041 0.56855,-0.20514 0.73028,-0.18668 0.43925,-0.12857 0.71678,-0.2756 1.26544,-0.0374 0.26188,1.72449 -1.16266,2.94809 0.0452,4.66104 0.23752,0.47708 0.37467,0.67172 0.39852,1.20599 -0.33402,0.43189 -0.55472,0.52414 -1.05759,0.39472 -0.80534,-0.51133 -1.32852,-0.801 -2.15109,-1.15055 -0.95644,0.27469 -1.4634,0.01 -2.01514,-0.75802 -0.34506,-1.0921 -0.59294,-1.89118 -0.80667,-3.01074 0.30713,-0.5138 0.53331,-0.75165 0.84554,-1.25055 0.13281,-0.21656 0.45459,-0.13861 0.61599,-0.10187 0.65229,0.53442 1.2406,0.6094 2.12953,0.23404 z"
                    id="path1940"
                />
                <path
                    fill="#94724f"
                    opacity="1"
                    stroke="none"
                    d="m 82.817793,128.26961 c 0.24861,0.43173 0.24469,0.78839 0.23216,1.41284 -0.2281,0.61624 -0.44757,0.96472 -0.66703,1.31317 -0.10912,-0.75723 -0.21825,-1.5145 -0.33191,-2.58246 0.16839,-0.28006 0.34132,-0.24936 0.76678,-0.14355 z"
                    id="path1941"
                />
                <path
                    fill="#9a924f"
                    opacity="1"
                    stroke="none"
                    d="m 150.02952,121.50148 c -0.54467,0.15604 -1.06097,-0.0594 -1.84483,-0.36383 -2.01114,1.28296 -3.69785,1.42523 -4.51755,-0.91629 -0.63351,-1.80969 -0.23834,-3.59281 1.83792,-4.50958 1.23287,-0.54441 2.51943,-0.68546 4.20993,-0.63272 0.3656,-0.004 0.75609,0.0699 0.94797,0.1145 0.82973,2.13076 -0.47452,3.95425 -0.63344,6.30792 z"
                    id="path1949"
                />
                <path
                    fill="#bb9c7a"
                    opacity="1"
                    stroke="none"
                    d="m 147.01776,95.788251 c -0.28476,-0.18216 -0.59503,-0.6597 -0.93707,-1.42978 0.28266,0.18311 0.5971,0.65876 0.93707,1.42978 z"
                    id="path1950"
                />
                <path
                    fill="#727d45"
                    opacity="1"
                    stroke="none"
                    d="m 150.02273,114.73494 c -0.1819,2.06793 -1.20987,2.28024 -2.74379,2.01553 -1.34028,-0.23132 -2.38102,-0.0792 -2.4734,1.92517 -0.0978,2.12082 0.79495,2.48893 2.79871,2.37845 -0.11332,1.55747 -0.53952,3.12045 -1.25864,4.87616 -2.13573,0.33603 -4.06896,3.36511 -5.90985,0.2977 -0.18067,1.78598 2.26517,1.74518 2.88225,3.51132 -0.41477,1.72632 -1.52875,2.19614 -3.29862,2.30023 -0.70138,0.28464 -0.80073,0.57929 -0.43451,0.99448 -0.21542,3.69134 -3.00868,2.19531 -5.26932,2.21426 -2.20103,-1.10394 -2.11831,-2.55349 -1.23764,-4.49633 0.56495,-2.27985 -0.98634,-2.93012 -2.48373,-4.04761 -2.87737,-3.2431 -1.96446,-6.21283 0.12794,-9.40814 0.57424,-0.74875 0.81229,-1.26499 1.18252,-2.03363 0.32463,-1.12113 1.0106,-1.50657 1.94668,-2.0568 0.22694,-0.95053 0.22481,-1.71567 0.21784,-2.86343 0.79817,-1.12116 1.61747,-0.6868 2.75152,-0.33475 0.59203,0.26016 0.82544,0.4823 1.12891,0.96366 0.5242,0.9306 0.007,1.84082 0.79361,2.74368 0.69116,0.61178 0.91119,1.14755 1.1535,2.00711 0.24481,0.43191 0.36069,0.59811 0.46545,1.07574 -0.18174,0.66712 -0.40306,0.98535 -0.86685,1.42084 -0.16418,0.17517 -0.37477,0.50055 -0.38763,0.72308 -0.0129,0.22254 0.21696,0.0351 0.3565,-0.0547 0.13956,-0.0898 0.45727,-0.22535 0.77332,-0.30314 0.31606,-0.0777 0.36778,-0.43011 0.30096,-0.62228 -0.17829,-0.65573 -0.0449,-1.15204 -0.40875,-1.83957 -0.2381,-1.06155 -0.59405,-1.73831 -1.43121,-2.52292 -0.42998,-0.95504 -0.20766,-1.58038 0.33031,-2.40786 1.94621,-1.57673 3.58461,-0.14331 5.57486,-0.12 0.72938,0.9274 1.25694,1.01462 2.16075,0.13468 0.67671,-0.13733 1.10954,-0.13315 1.86537,-0.11515 0.66035,1.11045 0.99771,2.2071 1.39294,3.64423 z"
                    id="path1953"
                />
                <path
                    fill="#afaa6a"
                    opacity="1"
                    stroke="none"
                    d="m 130.04291,111.70161 c -1.7083,-0.0751 -2.28455,3.15177 -4.16588,1.7793 -1.00412,-0.73251 0.23312,-1.78104 0.21344,-3.04083 0.75578,-0.64377 2.57481,-0.0687 1.98213,-1.47553 -1.07794,-2.55881 0.86822,-2.67526 2.15623,-3.41168 0.63596,-0.36356 1.34433,-0.22845 1.74463,0.34854 1.17327,1.69113 -0.92729,2.07617 -1.32171,3.14987 -0.27214,0.74088 -0.42249,1.52643 -0.60884,2.65033 z"
                    id="path1956"
                />
                <path
                    fill="#afaa6a"
                    opacity="1"
                    stroke="none"
                    d="m 133.83719,112.87758 c 0.17488,1.06991 -0.0568,1.87948 -1.47307,2.10214 -1.31435,-0.45419 -2.15808,-1.05789 -2.27837,-2.60358 1.20078,-0.34851 2.59821,-1.26684 3.75144,0.50144 z"
                    id="path1957"
                />
                <path
                    fill="#afaa6a"
                    opacity="1"
                    stroke="none"
                    d="m 130.06526,101.05433 c 0.16527,0.0138 0.32577,0.0327 0.48645,0.05 1.39712,0.15094 2.96448,-0.0285 3.58716,1.69522 0.0614,0.17008 -0.26877,0.66895 -0.48955,0.72373 -1.65915,0.4118 -2.77306,-0.29257 -3.50935,-2.13974 -0.0876,-0.31508 -0.0794,-0.32481 -0.0747,-0.32921 z"
                    id="path1958"
                />
                <path
                    fill="#afaa6a"
                    opacity="1"
                    stroke="none"
                    d="m 146.7902,110.96843 c -0.0453,0.67203 -0.40385,1.22488 -0.55165,1.82925 -0.28404,1.16153 -0.93683,2.62128 -2.04054,1.97992 -1.54532,-0.89795 0.40122,-1.99985 0.64858,-3.37832 0.55447,-0.97733 1.11785,-0.91605 1.94361,-0.43085 z"
                    id="path1959"
                />
                <path
                    fill="#afaa6a"
                    opacity="1"
                    stroke="none"
                    d="m 137.07478,109.88771 c -0.79353,0.9137 -1.62486,0.19067 -2.73938,0.11459 -0.30173,-0.57132 -0.33235,-1.10003 -0.36298,-1.62875 0.54899,0.1409 1.09795,0.28177 1.90552,0.50433 0.43987,0.0115 0.62114,-0.0588 0.93379,0.13135 0.13137,0.26035 0.20011,0.67694 0.26305,0.87848 z"
                    id="path1960"
                />
                <path
                    fill="#515422"
                    opacity="1"
                    stroke="none"
                    d="m 138.98544,111.00618 c 0.22902,0.72943 0.14383,1.48157 0.0369,2.67212 -1.16652,-0.0312 -3.65452,0.17248 -1.11841,-2.27741 0.36063,-0.26672 0.56397,-0.31933 1.0815,-0.39471 z"
                    id="path1961"
                />
                <path
                    fill="#6c6b35"
                    opacity="1"
                    stroke="none"
                    d="m 137.17407,109.07127 c -0.23097,0.19831 -0.63092,0.0341 -0.83423,-0.0388 -0.0163,-0.84054 -0.85095,-2.28073 0.73869,-2.11474 0.7992,0.0834 0.87786,1.17239 0.0955,2.15353 z"
                    id="path1962"
                />
                <path
                    fill="#6c6b35"
                    opacity="1"
                    stroke="none"
                    d="m 121.87892,132.2599 c -0.50791,-4.12344 0.11401,-8.42877 -4.18164,-10.86322 -0.66416,-0.37637 0.51886,-1.29547 1.21013,-2.11426 0.18614,-0.71994 0.21487,-1.1723 0.20794,-1.96319 -0.67335,-1.02817 -0.43382,-1.95267 -0.86656,-3.00397 -0.0405,-1.1626 0.10521,-2.06821 0.51344,-3.21045 3.54265,1.27701 6.39116,3.07312 5.26171,7.74762 -0.43633,1.65018 0.62597,1.58496 1.67859,1.97278 0.26724,0.18494 0.35602,0.57416 0.37773,0.77258 0.16557,0.37253 0.30943,0.54666 0.48767,1.05896 -0.0955,1.60749 -1.57793,3.36551 1.54591,3.59204 1.68763,0.24588 2.44573,0.89844 1.88483,2.70459 -1.27902,1.72367 -1.95927,3.42023 -3.23343,5.14749 -0.82223,0.68439 -1.48576,0.88559 -2.55572,0.91794 -0.5821,-0.089 -0.80942,-0.1564 -1.33966,-0.40954 -0.81333,-0.70282 -1.16694,-1.2927 -0.99094,-2.34937 z"
                    id="path1963"
                />
                <path
                    fill="#515422"
                    opacity="1"
                    stroke="none"
                    d="m 125.61421,123.62285 c 0.20615,-0.59546 0.25851,-0.84186 0.39932,-1.45743 2.49938,-1.03269 2.22533,-4.15219 4.70972,-5.0784 -0.91654,2.84466 -1.28325,5.70319 0.69418,8.78281 0.98209,0.52365 1.19448,1.17065 1.39601,2.15634 -0.10017,0.55655 -0.18406,0.77047 -0.50372,1.23752 -0.86049,0.61935 -1.52853,0.71316 -2.76836,0.16165 -0.33111,-1.09986 0.50885,-1.90045 -1.10192,-2.3721 -2.02369,-0.27311 -2.96883,-1.25382 -2.82523,-3.43039 z"
                    id="path1964"
                />
                <path
                    fill="#515422"
                    opacity="1"
                    stroke="none"
                    d="m 125.82841,120.77516 c -0.8605,0.0818 -2.38887,0.78021 -2.03793,-1.43149 0.76601,0.2688 1.3313,0.73264 2.03793,1.43149 z"
                    id="path1965"
                />
                <path
                    fill="#515422"
                    opacity="1"
                    stroke="none"
                    d="m 113.78451,112.30522 c 0.76821,-0.27689 1.26155,-0.33636 2.11244,-0.50339 1.09974,3.1008 -1.42964,4.28195 -3.6024,6.04523 -0.26828,0.19488 -0.24873,0.20535 -0.24632,0.20392 -2.80527,-3.77417 -2.62215,-4.46787 1.73628,-5.74576 z"
                    id="path1966"
                />
                <path
                    fill="#515422"
                    opacity="1"
                    stroke="none"
                    d="m 117.938,114.34929 c 1.81879,-0.1814 2.20249,0.64142 1.28288,2.36404 -1.98724,0.25766 -2.35069,-0.55423 -1.28288,-2.36404 z"
                    id="path1967"
                />
                <path
                    fill="#727d45"
                    opacity="1"
                    stroke="none"
                    d="m 113.83986,112.07973 c 0.1559,2.01455 -4.86629,2.0917 -1.81446,5.63519 -1.04605,0.14072 -2.11732,-0.0532 -3.49102,-0.3819 -0.474,-0.27658 -0.64557,-0.41836 -0.93207,-0.87427 -0.10178,-1.03375 0.17828,-1.5979 1.13229,-2.09402 0.28923,-0.5622 0.28024,-0.97351 0.21703,-1.68991 0.18049,-0.8493 0.57417,-1.22882 1.54333,-1.52146 0.99327,-0.0573 1.52556,0.10621 2.34986,0.66968 0.33616,0.25635 0.77549,0.24857 0.99504,0.25669 z"
                    id="path1968"
                />
                <path
                    fill="#afaa6a"
                    opacity="1"
                    stroke="none"
                    d="m 113.12697,111.73744 c -0.40459,0.34885 -0.86319,0.35574 -1.66419,0.33777 -1.37384,-0.94196 -2.31322,-1.89859 -1.52002,-3.73953 1.3414,-0.14252 2.38371,-0.0152 3.65262,0.31424 -0.47664,0.91635 -0.63235,1.79184 -0.46841,3.08752 z"
                    id="path1969"
                />
                <path
                    fill="#515422"
                    opacity="1"
                    stroke="none"
                    d="m 109.66221,103.90904 c 0.23899,0.95502 0.0923,1.93921 -1.11239,1.96237 -0.88597,0.0171 -1.28972,-0.65942 -1.46848,-1.83496 0.73599,-0.29962 1.47379,-0.2272 2.58087,-0.12741 z"
                    id="path1970"
                />
                <path
                    fill="#b98857"
                    opacity="1"
                    stroke="none"
                    d="m 101.50874,97.467451 c 0.0717,-0.0519 0.0949,0.14926 0.0949,0.14926 0,0 -0.16666,-0.0974 -0.0949,-0.14926 z"
                    id="path1974"
                />
                <path
                    fill="#727d45"
                    opacity="1"
                    stroke="none"
                    d="m 122.82606,134.22755 c 0.97885,-0.14822 1.70377,-0.14648 2.79105,-0.13403 1.67608,-0.96463 2.5726,-2.59555 4.84059,-2.53052 1.59038,0.63904 1.50101,2.07877 2.44965,3.24686 -1.10274,1.86481 -3.19074,0.67013 -4.86809,1.98477 -0.60661,0.63855 -1.05277,0.75336 -1.86502,0.49194 -1.18737,-0.0173 -2.06208,0.15232 -3.28313,0.30951 -0.47989,-0.38766 -0.61345,-0.76294 -0.76305,-1.35266 -0.0568,-0.81903 0.0524,-1.38186 0.698,-2.01587 z"
                    id="path2009"
                />
                <path
                    fill="#bfa58b"
                    opacity="1"
                    stroke="none"
                    d="m 114.53393,142.93428 c -0.3708,-0.0446 -0.44987,-0.45987 -0.48993,-0.66742 1.43888,0.0344 2.76297,-1.91342 4.43933,-0.64725 -0.65646,2.27048 -2.37385,1.09213 -3.9494,1.31467 z"
                    id="path2010"
                />
                <path
                    fill="#cdc4b3"
                    opacity="1"
                    stroke="none"
                    d="m 117.12864,146.76866 c -0.53735,0.29749 -0.91803,0.29605 -1.58374,0.30502 -0.40533,-1.29663 -0.63273,-2.86712 1.33719,-2.66501 1.45676,0.14951 1.12001,1.19459 0.24655,2.35999 z"
                    id="path2011"
                />
                <path
                    fill="#6c6b35"
                    opacity="1"
                    stroke="none"
                    d="m 123.07277,134.06978 c -0.17153,0.53692 -0.3503,1.06604 -0.74491,1.77716 -1.04525,0.0529 -1.98544,1.03561 -2.65144,0.007 -0.0859,-0.13272 0.7278,-0.84775 1.3066,-1.49249 0.50259,-0.65421 0.93713,-0.83389 1.79109,-0.51337 0.30572,0.22538 0.29139,0.21405 0.29866,0.22193 z"
                    id="path2012"
                />
                <path
                    fill="#9d886f"
                    opacity="1"
                    stroke="none"
                    d="m 122.97186,133.79915 c -0.31844,0.28772 -0.74484,0.30136 -1.48914,0.3388 -0.87545,-0.0199 -1.43304,-0.0636 -2.41404,-0.13482 0.29858,-0.93946 1.12585,-1.69788 2.6564,-1.97913 0.59987,0.45581 0.86934,0.97846 1.24678,1.77515 z"
                    id="path2013"
                />
                <path
                    fill="#b39d87"
                    opacity="1"
                    stroke="none"
                    d="m 120.04121,159.84987 c -0.15983,0.0341 -0.44705,-0.1659 -0.86127,-0.60047 0.15996,-0.0343 0.44693,0.16605 0.86127,0.60047 z"
                    id="path2014"
                />
                <path
                    fill="#6c6b35"
                    opacity="1"
                    stroke="none"
                    d="m 108.68805,114.14958 c 0.0948,0.46057 -0.1552,0.85681 -0.52745,1.4556 -0.28907,0.62985 -0.56588,0.97024 -1.24529,1.37308 -0.30704,0.1379 -0.40869,0.14813 -0.43864,0.10678 -0.39582,0.11361 -0.72998,0.32055 -1.23435,0.79327 -0.1974,0.2211 -0.18791,0.17303 -0.16395,0.17828 -1.34867,-0.13732 -2.82598,0.44284 -4.61248,-0.92431 3.04349,-0.67002 3.97188,-5.08551 8.22216,-2.9827 z"
                    id="path2015"
                />
                <path
                    fill="#afaa6a"
                    opacity="1"
                    stroke="none"
                    d="m 94.093673,125.89687 c -0.99969,-2.58707 1.9789,-3.94837 1.51178,-6.45475 0.47826,-0.39514 1.04421,-0.40497 2.03378,-0.38235 0.42363,0.0325 0.42414,-0.009 0.40375,-0.008 0.61311,0.66989 0.76917,1.44336 0.25617,2.65909 -0.23397,0.34616 -0.2392,0.3475 -0.23955,0.34994 -0.58995,0.65567 -0.84503,1.42926 -0.75572,2.60724 0.0352,0.47729 -8e-4,0.64838 -0.0352,1.08179 -0.65107,0.39917 -1.30381,0.53604 -2.30986,0.66314 -0.21591,0.35907 -0.20913,0.68616 -0.30325,0.6767 -0.54211,-0.0548 -0.71365,-0.48383 -0.56189,-1.19317 z"
                    id="path2016"
                />
                <path
                    fill="#6c6b35"
                    opacity="1"
                    stroke="none"
                    d="m 98.380783,122.05708 c -0.32671,-0.75027 -0.33781,-1.50082 -0.35355,-2.62723 1.83127,-0.32928 4.050307,-0.5447 1.55768,2.45087 -0.46776,0.16892 -0.67813,0.17246 -1.20413,0.17636 z"
                    id="path2017"
                />
                <path
                    fill="#6c6b35"
                    opacity="1"
                    stroke="none"
                    d="m 97.576983,124.74312 c -1.84612,-0.74637 -1.034,-1.59571 0.21002,-2.55811 0.17874,0.69461 0.0853,1.51062 -0.21002,2.55811 z"
                    id="path2018"
                />
                <path
                    fill="#727d45"
                    opacity="1"
                    stroke="none"
                    d="m 112.07265,119.18153 c -0.12685,0.42957 -0.27974,0.79151 -0.43265,1.15345 -0.54608,-0.29084 -0.36338,-0.64762 0.0868,-1.13288 0.17841,-0.12045 0.31977,-0.0882 0.34585,-0.0206 z"
                    id="path2019"
                />
                <path
                    fill="#868a51"
                    opacity="1"
                    stroke="none"
                    d="m 111.36668,125.03929 c -0.20878,-0.1311 -0.22395,-0.38629 -0.23771,-1.02744 1.43196,-0.3854 0.84985,0.28623 0.23771,1.02744 z"
                    id="path2020"
                />
                <path
                    fill="#9a924f"
                    opacity="1"
                    stroke="none"
                    d="m 107.01179,117.18455 c -0.0991,-0.37411 0.20539,-0.67987 0.76819,-1.18124 0.29544,0.0351 0.33255,0.26587 0.4108,0.84576 -0.23107,0.3674 -0.50328,0.38565 -1.17899,0.33548 z"
                    id="path2021"
                />
                <path
                    fill="#9a924f"
                    opacity="1"
                    stroke="none"
                    d="m 105.34298,118.02614 c -0.0261,-0.21537 0.24587,-0.50397 0.81078,-0.88751 0.0244,0.20812 -0.24416,0.51116 -0.81078,0.88751 z"
                    id="path2022"
                />
                <path
                    fill="#868a51"
                    opacity="1"
                    stroke="none"
                    d="m 94.035263,125.53389 c 0.34282,0.31711 0.38507,0.52289 0.52036,0.79443 0.50456,1.39475 1.00036,2.67218 3.11215,2.70496 -0.39701,0.59616 -1.17993,1.17853 -2.22803,1.88547 -1.39789,-0.26166 -2.53062,-0.64792 -4.01556,-0.94291 -0.35222,0.0913 -0.36408,0.0814 -0.36812,0.075 -0.14244,-0.22303 -0.28084,-0.4397 -0.14751,-0.93 0.27173,-0.27362 0.23421,-0.73571 0.19461,-0.96585 1.34111,-0.52899 0.54521,-3.12246 2.9321,-2.62109 z"
                    id="path2023"
                />
                <path
                    fill="#515422"
                    opacity="1"
                    stroke="none"
                    d="m 85.817943,127.22328 c 0.66948,0.0876 1.11622,0.35687 1.79932,0.71777 0.42658,0.9458 0.42684,1.80384 -0.77222,1.48215 -0.88316,-0.23691 -1.84384,-0.72568 -1.0271,-2.19992 z"
                    id="path2024"
                />
                <path
                    fill="#515422"
                    opacity="1"
                    stroke="none"
                    d="m 90.895763,128.92442 c 0.30472,0.1268 0.32493,0.33078 0.25069,0.82742 -0.38541,0.12012 -0.67638,-0.0524 -1.04591,-0.47763 0.11786,-0.2594 0.31427,-0.26599 0.79522,-0.34979 z"
                    id="path2025"
                />
                <path
                    fill="#6c6b35"
                    opacity="1"
                    stroke="none"
                    d="m 109.90446,108.17583 c 0.61391,0.98822 0.89041,2.08645 1.19144,3.52963 -0.47107,0.40262 -0.96663,0.4603 -1.83035,0.59115 -3.87426,-1.89965 -1.34941,-2.88357 0.63891,-4.12078 z"
                    id="path2270"
                />
                <path
                    fill="#afaa6a"
                    opacity="1"
                    stroke="none"
                    d="m 95.417403,118.78599 c -0.0863,0.32859 -0.33955,0.3469 -0.96524,0.2851 -0.37733,-0.2948 -0.38225,-0.50952 -0.36752,-1.04819 0.40169,-0.065 0.78374,0.19391 1.33276,0.76309 z"
                    id="path2271"
                />
                <path
                    fill="#868a51"
                    opacity="1"
                    stroke="none"
                    d="m 91.471133,123.23863 c -0.50803,0.063 -0.73409,-0.002 -1.30847,-0.13415 0.42889,-0.97962 1.12904,-2.66895 2.38549,-2.06516 1.03388,0.49683 0.0707,1.56384 -1.07702,2.19931 z"
                    id="path2272"
                />
                <path
                    fill="#868a51"
                    opacity="1"
                    stroke="none"
                    d="m 88.797103,122.99623 c -0.10089,0.76337 -0.68588,1.03973 -1.66102,0.23413 0.30967,-0.22909 0.80123,-0.23599 1.66102,-0.23413 z"
                    id="path2273"
                />
                <path
                    fill="#9a924f"
                    opacity="1"
                    stroke="none"
                    d="m 143.65484,129.87227 c -3.95512,-0.50482 -4.00634,-4.1464 -6.0435,-6.7612 1.06928,0.0928 2.12682,-0.063 2.27647,0.23581 1.55587,3.10659 2.9732,4.25866 5.13814,0.35864 0.29308,-0.52796 0.75638,1.0412 1.00629,2.07648 0.0936,2.01175 -1.17642,2.86627 -2.3774,4.09027 z"
                    id="path2274"
                />
                <path
                    fill="#515422"
                    opacity="1"
                    stroke="none"
                    d="m 133.34041,135.09987 c -1.59028,-0.20392 -2.29805,-0.95697 -2.30164,-3.01352 -0.10443,-1.30646 0.0597,-1.88886 0.66293,-2.63773 0.20345,-0.23547 0.44249,-0.4711 0.56215,-0.58874 1.74382,-0.62589 2.19274,0.34814 2.57079,1.95202 -0.63704,1.24976 -2.59868,1.79935 -0.90525,3.93286 0.13271,0.28504 -0.34687,0.35199 -0.58898,0.35511 z"
                    id="path2275"
                />
                <path
                    fill="#515422"
                    opacity="1"
                    stroke="none"
                    d="m 139.83436,132.82588 c -0.70671,0.46149 -1.63655,1.37152 -2.08384,0.52377 -0.58913,-1.1166 0.61999,-1.06533 1.61258,-1.2182 0.34025,0.12812 0.40721,0.28403 0.47126,0.69443 z"
                    id="path2276"
                />
                <path
                    fill="#868a51"
                    opacity="1"
                    stroke="none"
                    d="m 135.0408,130.71919 c -0.71004,-0.32052 -1.41557,-1.01987 -2.38921,-1.84808 -0.44038,-0.7844 -0.61268,-1.43994 -0.87616,-2.42664 2.16755,0.1727 3.5049,1.40915 3.26537,4.27472 z"
                    id="path2278"
                />
                <path
                    fill="#515422"
                    opacity="1"
                    stroke="none"
                    d="m 140.02424,116.32124 c 1.13179,0.57507 1.74022,1.71366 2.05132,3.39646 -0.51604,0.12445 -0.97151,-0.14902 -1.65611,-0.55951 -0.61191,-0.4545 -0.82132,-0.86124 -0.71439,-1.68647 0.17511,-0.5065 0.20722,-0.68377 0.31918,-1.15048 z"
                    id="path2279"
                />
                <path
                    fill="#515422"
                    opacity="1"
                    stroke="none"
                    d="m 139.08918,114.02785 c 0.6265,0.36944 3.40329,-0.95023 1.15711,1.79208 -0.14215,0.21188 -0.17776,0.2337 -0.19521,0.2457 -0.34558,-0.44742 -0.67372,-0.9068 -1.02615,-1.65754 -0.0243,-0.29138 0.0352,-0.35018 0.0642,-0.38024 z"
                    id="path2280"
                />
                <path
                    fill="#868a51"
                    opacity="1"
                    stroke="none"
                    d="m 139.56065,117.18199 c 0.3485,0.38074 0.40955,0.801 0.55013,1.53018 0.0795,0.30896 -0.0349,0.3277 -0.091,0.3421 -0.44171,0.35468 -0.8862,0.5018 -1.69014,0.19459 -0.17143,-1.02936 0.053,-1.75709 1.23105,-2.06687 z"
                    id="path2281"
                />
                <path
                    fill="#9a924f"
                    opacity="1"
                    stroke="none"
                    d="m 138.03944,119.03132 c 0.42784,-5.1e-4 0.85637,0.011 1.60452,0.0299 0.2949,1.04862 0.1236,1.93051 -1.47412,1.27585 -0.36842,-0.39124 -0.53965,-0.58203 -0.42872,-1.03409 0.28215,-0.26129 0.29901,-0.25964 0.29832,-0.27167 z"
                    id="path2282"
                />
                <path
                    fill="#868a51"
                    opacity="1"
                    stroke="none"
                    d="m 137.80281,119.07027 c 0.2187,0.15399 0.21693,0.33654 0.1925,0.79272 -0.38217,0.0785 -0.74168,-0.11661 -1.10119,-0.31171 0.2294,-0.15081 0.4588,-0.30163 0.90869,-0.48101 z"
                    id="path2283"
                />
                <path
                    fill="#515422"
                    opacity="1"
                    stroke="none"
                    d="m 142.11421,120.01561 c 0.13522,0.12704 0.23546,0.28549 0.33569,0.44391 -0.0952,-0.0341 -0.19038,-0.0681 -0.36023,-0.223 -0.0747,-0.1209 -0.0105,-0.18954 0.0245,-0.22091 z"
                    id="path2284"
                />
                <path
                    fill="#515422"
                    opacity="1"
                    stroke="none"
                    d="m 131.0691,132.05293 c -1.79774,-0.0619 -2.40567,2.40824 -4.72111,2.05798 0.21458,-1.74905 0.33829,-3.71124 2.32573,-5.01818 0.3334,-0.0768 0.45364,0.003 0.51446,0.0424 1.05639,0.57266 2.56263,0.61792 2.07172,2.66046 -0.21562,0.29342 -0.20052,0.2687 -0.1908,0.25732 z"
                    id="path2285"
                />
                <path
                    fill="#868a51"
                    opacity="1"
                    stroke="none"
                    d="m 125.46232,123.30159 c 1.01552,1.02136 1.72536,2.07056 2.58745,3.40863 -0.59898,1.1607 -1.90962,2.31729 -2.54454,1.28259 -0.74219,-1.20947 -2.47795,-2.98407 -0.0429,-4.69122 z"
                    id="path2286"
                />
                <path
                    fill="#727d45"
                    opacity="1"
                    stroke="none"
                    d="m 131.29469,131.88631 c -0.24872,-0.89847 -0.8056,-1.67429 -1.86584,-2.48688 0.48509,-0.23151 1.15004,-0.23779 2.14563,-0.21515 0.21064,0.85232 0.0906,1.67581 -0.27979,2.70203 z"
                    id="path2287"
                />
            </svg>
