<svg xmlns="http://www.w3.org/2000/svg" version="1.0" width="30px" height="30px" viewBox="0 0 498.000000 498.000000" preserveAspectRatio="xMidYMid meet">

<g transform="translate(0.000000,498.000000) scale(0.100000,-0.100000)" fill="#f5e8df" stroke="none">
<path d="M2355 4874 c-228 -14 -517 -84 -750 -181 -678 -283 -1204 -892 -1381 -1603 -86 -341 -93 -685 -24 -1060 104 -566 457 -1106 955 -1462 101 -72 432 -258 460 -258 3 0 6 386 7 858 l3 857 243 3 242 2 0 -924 c0 -871 1 -924 18 -931 101 -39 521 -48 737 -15 614 95 1139 396 1523 874 581 723 676 1767 235 2586 -351 653 -980 1103 -1710 1225 -146 24 -411 38 -558 29z m500 -248 c467 -81 840 -267 1164 -581 195 -189 327 -372 441 -608 135 -280 199 -531 215 -842 14 -267 -21 -499 -122 -795 -265 -780 -989 -1349 -1822 -1430 -249 -24 -322 -6 -372 92 -18 35 -19 65 -19 473 l0 435 504 0 c454 0 515 2 618 19 290 50 536 172 726 359 49 48 103 105 120 127 44 55 138 245 163 330 30 102 37 314 15 425 -38 184 -126 347 -265 492 -47 48 -88 88 -92 88 -4 0 -21 14 -37 30 -17 17 -37 30 -45 30 -8 0 -17 7 -21 15 -3 8 -12 15 -20 15 -7 0 -16 7 -20 15 -3 8 -15 15 -26 15 -11 0 -20 4 -20 10 0 16 -155 85 -279 124 -205 65 -220 66 -917 69 l-629 2 -3 -588 -2 -588 112 3 113 3 3 470 3 470 562 0 c542 0 563 -1 602 -20 47 -24 52 -39 54 -171 1 -61 -5 -116 -19 -169 -11 -42 -17 -81 -14 -86 3 -5 1 -9 -5 -9 -5 0 -21 -21 -34 -48 -42 -84 -78 -134 -151 -211 -39 -42 -75 -78 -81 -80 -5 -2 -37 -23 -70 -46 -109 -77 -233 -131 -409 -177 -77 -21 -109 -22 -619 -25 l-537 -4 2 853 3 853 520 0 c465 0 529 -2 605 -18 221 -48 417 -146 555 -277 l60 -57 130 -21 c72 -12 140 -25 153 -28 33 -9 28 7 -28 88 -167 247 -465 437 -810 516 -122 28 -250 33 -823 30 l-587 -3 0 -1677 c0 -1286 -3 -1683 -12 -1703 -14 -30 -55 -55 -92 -55 -49 0 -255 179 -414 360 -158 180 -322 467 -398 699 -34 103 -74 260 -74 291 0 14 -4 30 -9 36 -5 5 -15 92 -22 194 -31 488 81 927 338 1328 156 243 393 479 643 641 282 183 636 303 980 335 95 9 428 -3 515 -18z m970 -1476 c3 -5 14 -10 24 -10 19 0 56 -29 174 -140 368 -345 330 -860 -89 -1175 -126 -95 -327 -180 -513 -216 -55 -11 -1049 -26 -1074 -16 -9 3 -11 60 -9 221 l3 216 131 0 c400 0 744 131 1003 381 193 187 299 406 312 647 4 74 9 102 19 102 7 0 16 -4 19 -10z"/>
</g>
</svg>