<svg
                version="1.1"
                id="plant-svg"
                preserveAspectRatio="none"
                x="0px"
                y="0px"
                width="90px"
                height="110px"
                viewBox="0 0 73.332115 105.19488"
                enable-background="new 0 0 73.332115 105.19488"
                xmlSpace="preserve"
                xmlns="http://www.w3.org/2000/svg"
            >
                <path
                    fill="#343d22"
                    opacity="1"
                    stroke="none"
                    d="m 64.13626,57.423756 c -1.56623,1.7284 -4.1189,2.1052 -4.38257,4.99585 -0.63709,0.96622 -1.31586,1.13907 -2.42563,0.93768 -0.75421,-2.06009 -1.84952,-2.43658 -3.7583,-2.06198 -1.38748,0.27225 -2.8793,0.33014 -4.69366,0.37833 -2.20319,-0.64887 -4.39283,-0.0176 -6.19443,-1.8523 -0.45432,-0.89956 -0.76914,-1.8392 -0.33978,-2.12332 3.83441,-2.53729 2.14877,-6.15927 2.15255,-9.80423 0.3273,-0.49438 0.49869,-0.6662 0.98392,-1.02942 1.9718,-0.59369 3.57346,-1.41085 5.6593,-0.70077 1.483,1.51242 2.95908,2.34387 4.9765,2.72528 1.4657,-0.6044 0.68164,-1.63602 0.62238,-2.80496 -1.04923,0.61883 -2.11987,1.14435 -3.7323,1.23895 -0.54343,-0.15561 -1.18495,-0.0936 -1.62456,-0.45606 -0.82504,-0.81418 -1.24666,-1.5523 -1.16905,-2.36907 0.4046,-4.258729 0.98435,-7.921153 0.20533,-12.545363 0.86258,-0.67126 2.6379,-1.421166 3.70303,-1.664566 0.58834,-0.0817 0.82455,-0.0853 1.40142,-0.0133 1.43943,0.14011 1.85916,2.13434 3.58728,0.92798 1.69303,-1.01172 3.28174,-1.22272 5.23896,-1.34702 2.99191,0.44187 4.29223,2.18625 4.61566,4.67167 0.24316,1.86831 1.156,3.36135 2.29852,5.16052 0.64758,1.64132 0.4855,2.950929 -0.15344,4.612999 -0.0535,1.84476 -0.43372,3.12739 -1.87283,4.34882 -0.22001,0.68668 -0.22513,1.09872 -0.35672,1.79578 -3.40131,1.20733 -4.27582,3.75235 -4.74158,6.97845 z"
                    id="path329"
                />
                <path
                    fill="#556b35"
                    opacity="1"
                    stroke="none"
                    d="m 71.61618,39.714837 c -3.51956,0.30383 -4.62836,-1.84201 -4.12122,-4.52133 0.39801,-2.10267 -0.55502,-3.04169 -2.1224,-4.26755 -1.21726,-1.49314 -0.45496,-2.99991 -0.72098,-4.70264 0.0226,-0.49185 0.0437,-0.68442 0.12878,-1.14563 0.12534,-0.42801 0.18668,-0.58731 0.35398,-0.95105 0.10598,-0.2044 0.2778,-0.56897 0.23352,-0.75464 -0.0443,-0.18564 -0.30997,-0.45642 -0.48911,-0.53375 -0.17914,-0.0773 -0.59003,-0.0987 -0.80939,-0.0457 -0.21936,0.053 -0.67938,0.23825 -0.92526,0.33532 -1.34317,0.51352 -2.38528,1.34622 -3.90466,0.34064 -1.0745,-1.06186 -1.58112,-2.08844 -1.99848,-3.54898 -0.0641,-0.82089 0.009,-1.28098 0.35257,-2.02036 1.03965,-1.38653 2.57196,-1.19967 3.61438,-2.30774 0.0502,-0.58807 -0.10617,-0.86245 -0.64544,-1.1574 -1.00806,-0.22925 -1.78046,-0.29282 -2.84589,-0.55558 -0.51117,-0.17892 -0.71136,-0.26986 -1.18561,-0.55313 -0.59936,-0.50726 -0.86752,-0.86566 -1.19235,-1.58343 -0.19833,-2.5654296 1.25381,-4.5532296 1.07678,-7.1685796 2.23953,-2.5145 3.60926,-0.84616 5.11234,0.99859 3.93344,4.6135596 4.70825,10.4802896 7.95199,15.0850596 3.4661,4.92044 4.1236,10.65441 3.7659,16.81805 -0.4725,0.83942 -0.93921,1.39636 -1.62945,2.23984 z"
                    id="path330"
                />
                <path
                    fill="#503029"
                    opacity="1"
                    stroke="none"
                    d="m 56.56323,85.489476 c -0.25983,1.05063 -0.52871,12.51408 -1.15346,13.4572 -13.09277,-0.006 -1.30247,-15.74017 -3.33119,-17.92709 -1.25088,-4.4123 0.12985,-8.32215 0.42957,-12.72153 0.45663,-2.75073 0.66772,-5.76565 4.01763,-6.25924 1.08457,0.19848 2.16744,0.55911 3.19463,0.5491 1.83618,3.79946 -1.6396,6.27581 -0.23772,9.72274 -1.15872,2.80176 -0.71304,5.6312 -2.26678,8.2818 -0.73396,6.0551 -0.4451,3.12427 -0.65268,4.89702 z"
                    id="path332"
                />
                <path
                    fill="#556b35"
                    opacity="1"
                    stroke="none"
                    d="m 64.21377,57.607316 c -2.19976,-3.40756 0.20801,-6.18924 1.83399,-8.44006 2.17502,-3.01089 0.92932,1.6846 2.46139,1.50888 -1.16119,2.32901 -2.5646,4.60395 -4.29538,6.93118 z"
                    id="path333"
                />
                <path
                    fill="#62554a"
                    opacity="1"
                    stroke="none"
                    d="m 57.05102,81.096246 c -0.28034,-2.70218 -0.3471,-6.54472 2.33585,-8.91487 1.10654,2.82529 0.55218,6.57722 -2.33585,8.91487 z"
                    id="path334"
                />
                <path
                    fill="#556b35"
                    opacity="1"
                    stroke="none"
                    d="m 69.41281,48.886556 c -0.67761,-1.55167 0.3421,-2.65549 1.28796,-4.04828 0.7475,1.45834 2.47241,3.4162 -1.28796,4.04828 z"
                    id="path335"
                />
                <path
                    fill="#4c443f"
                    opacity="1"
                    stroke="none"
                    d="m 52.85501,98.586416 c -0.67926,2.727024 2.35367,3.535584 2.52643,5.905004 -0.14502,0.43548 -0.39838,0.50433 -1.0235,0.70346 -1.41638,-0.0639 -2.461,-0.25803 -3.85175,-0.65436 -2.10037,-1.41357 -2.01916,-3.0983 -1.33972,-5.263984 0.61755,-0.82186 1.11041,-1.10974 2.12537,-1.25271 0.70581,0.0816 0.97918,0.17206 1.56317,0.56259 z"
                    id="path471"
                />
                <path
                    fill="#181d0d"
                    opacity="1"
                    stroke="none"
                    d="m 53.35476,31.510707 c -1.03866,0.70404 -2.41464,1.88198 -1.85031,2.24069 4.62522,2.93979 1.24634,5.78381 0.0234,8.541169 -0.65015,1.466 0.19327,2.5375 0.3941,4.15084 -1.73779,0.68558 -3.51132,1.00773 -5.67529,1.3332 -0.54858,-0.35505 -0.82657,-0.5676 -1.18857,-0.38212 0.2092,1.08255 0.19367,2.0348 0.63761,2.6616 2.73791,3.86593 2.38821,6.64929 -2.66593,8.36041 -1.7677,1.94314 -3.47613,1.94272 -5.42129,0.16736 -0.50043,-3.45301 2.09164,-5.57502 2.61331,-8.58408 0.001,-0.16812 -0.24933,-0.19458 -0.20596,-0.008 0.0553,1.75089 -1.04571,3.32858 -1.58895,5.05243 -0.48685,0.63586 -0.98494,0.34744 -1.79609,0.37256 -1.57712,-0.45377 -1.61634,-1.67539 -2.19111,-2.84458 -0.11596,-0.23019 -0.36321,-0.5512 -0.46072,-0.69549 -0.0975,-0.14432 -0.2218,-0.47846 -0.10599,-0.33005 0.15332,0.46753 0.29551,0.73175 0.65033,1.21304 0.85761,2.21259 -0.18011,3.64985 -1.4534,5.36243 -1.48059,1.61783 -3.24945,1.61035 -5.23556,2.06226 -1.61041,0.33722 -2.85974,0.12378 -4.48633,0.0999 -2.17151,-0.0713 -3.85846,-0.62167 -5.9021,-1.2829 -3.88541,-2.07599 -4.60602,-4.62747 -1.96429,-8.24936 0.25305,-1.32672 0.71521,-2.16827 1.49121,-3.24127 3.24716,-4.56201 7.39193,-5.05484 12.33883,-3.82828 1.65558,-0.92526 0.42511,-1.61486 -0.0125,-2.664849 -0.35605,-0.95767 -0.39487,-1.62805 -0.20196,-2.64002 0.4772,-1.21917 1.18362,-1.7528 2.33712,-2.26837 0.4524,-0.30011 0.61725,-0.44299 1.03049,-0.79873 0.49115,-0.54248 1.06723,-0.64624 0.88849,-1.04493 -0.30628,0.61689 -0.73221,0.88114 -1.31018,1.4213 -1.33869,0.88873 -2.70337,0.54581 -4.17621,1.14288 -0.98569,0.11273 -1.63251,0.0337 -2.55035,-0.32452 -1.11039,-1.06882 -2.02494,-1.86606 -3.4383,-2.52643 -0.084,-2.2312 0.93857,-4.23795 -1.64187,-5.81161 -1.39823,-0.8527 -0.0725,-2.62403 0.43307,-4.28794 0.23547,-0.54022 0.35535,-0.74585 0.71668,-1.21722 0.8182,-0.70368 1.47464,-0.96259 2.5122,-1.17224 0.99469,-0.0841 1.65067,-0.0682 2.60712,-0.0108 0.49384,0.0392 0.68701,0.0562 1.16037,0.0841 0.64535,-0.002 1.00403,-0.0565 1.58124,-0.31589 0.83478,-0.88122 1.24112,-1.72568 1.77279,-2.7948 0.12439,-0.22522 0.3006,-0.68435 0.28229,-0.92901 -0.27395,-0.92905 -0.71039,-1.53214 -0.94934,-2.55909 0.39325,-2.55471 2.01328,-3.26574 4.37177,-3.492 0.5939,0.0232 0.83041,0.0482 1.41156,0.16376 0.78259,0.26495 1.20196,0.47595 1.88116,0.93042 0.45703,0.34704 0.63171,0.49463 1.05225,0.87988 0.40081,0.40466 0.55572,0.57172 0.92419,1.00409 0.58505,0.85708 1.15045,1.2702 1.83154,2.06366 1.30967,1.9183 1.02134,3.53363 0.0205,5.48025 -0.56247,0.96027 -1.15262,1.3277 -2.24582,1.36637 -0.80246,-0.26517 -1.2225,-0.52625 -1.64688,-0.7825 -0.46643,-0.28165 -0.32147,-0.16519 -0.3573,-0.0923 -0.29199,0.59381 -0.0858,-0.0976 0.71723,0.45294 1.93142,1.05081 3.04531,0.52478 3.81762,-1.48272 2.28675,-2.0344 -0.0231,-4.56443 1.42911,-6.73127 4.01975,-1.47098 7.14496,1.67823 11.13513,1.52283 1.15708,0.68756 1.54483,1.53577 1.97818,2.76172 0.31531,0.99551 0.61014,1.61981 1.09516,2.53882 0.2894,1.00323 0.28772,1.68582 0.0709,2.69128 -0.41297,1.14606 -1.06995,1.71396 -1.84952,2.55084 -0.35232,0.31931 -0.49747,0.4343 -0.86041,0.69776 -0.21781,0.14843 -0.62149,0.43811 -0.78668,0.60367 -0.34281,0.43814 -0.43271,0.7373 -0.42353,1.32611 0.0148,0.82986 -0.11471,1.36197 -0.56421,2.09253 z"
                    id="path724"
                />
                <path
                    fill="#282a13"
                    opacity="1"
                    stroke="none"
                    d="m 53.759,27.136677 c 0.46619,-0.36972 0.67456,-0.39285 1.19641,-0.44076 0.8027,-0.64081 1.29914,-1.25132 1.87665,-2.16583 0.12912,-0.87186 0.11963,-1.48334 0.11072,-2.40064 0.99637,-0.91525 1.65164,-0.12524 2.64068,0.5105 1.7714,0.92593 2.25953,-1.5148 4.06485,-0.89795 0.83072,0.4444 1.00363,1.03219 1.30692,1.89584 0.28158,0.42102 0.41067,0.57794 0.74087,0.96384 -0.40075,1.98361 1.87537,4.03628 -0.48849,5.89548 -1.7619,1.22384 -3.55121,1.37081 -5.76966,1.33493 -1.99383,0.81582 -2.81445,-0.43601 -4.1123,-1.19522 -0.32147,0.0876 -0.41373,0.18243 -0.45456,0.2344 -2.16461,-0.44528 -1.29184,-2.10031 -1.11209,-3.73459 z"
                    id="path725"
                />
                <path
                    fill="#412d23"
                    opacity="1"
                    stroke="none"
                    d="m 38.1636,56.384446 c 0.14408,2.94297 2.27158,2.24637 4.36481,2.3834 1.88217,1.80328 4.28113,0.41717 6.21408,1.84411 0.36218,0.45377 0.46014,0.64762 0.44544,1.14872 -0.55494,0.76174 -1.10203,1.0289 -1.9061,1.31222 -0.17694,0.28738 -0.15201,0.45999 0.0177,0.8891 0.819,3.32016 -0.97016,3.95471 -3.8187,3.82803 -2.30029,-1.43365 -4.61456,-1.41702 -7.1495,-2.01211 -1.00067,-0.55951 -1.4776,-1.11869 -1.89026,-2.15573 0.65927,-2.41413 0.84967,-4.51776 0.34112,-7.00635 0.1929,-0.79544 0.40558,-1.20905 0.98822,-1.77802 0.72162,-0.0956 1.14133,-0.002 1.88135,0.13172 0.65271,0.35123 0.7833,0.73691 0.51184,1.41491 z"
                    id="path726"
                />
                <path
                    fill="#72675c"
                    opacity="1"
                    stroke="none"
                    d="m 48.78299,62.158466 c 0.19009,-0.32873 0.2287,-0.80737 0.22622,-1.04696 1.97971,-2.87455 5.45343,0.0443 7.52414,-2.26102 0.88785,0.97262 0.2652,2.13998 0.38062,3.55899 -2.68564,0.7789 -1.26935,3.51211 -2.70893,5.03119 -1.62353,1.797 -3.34243,3.83608 -6.23806,3.1982 -2.81738,-2.92163 0.76431,-5.52147 0.81601,-8.4804 z"
                    id="path727"
                />
                <path
                    fill="#727d45"
                    opacity="1"
                    stroke="none"
                    d="m 52.84628,47.132316 c 2.37607,-0.8187 2.77734,-3.35623 4.92847,-4.34506 0.61917,0.384 0.77105,0.785 0.71359,1.53598 -0.56766,1.84274 -0.0212,3.04913 0.87759,4.31659 1.00675,1.4198 0.0256,1.97964 -1.66961,2.12329 -2.35465,-0.43833 -2.7287,-3.17768 -4.85004,-3.6308 z"
                    id="path728"
                />
                <path
                    fill="#181d0d"
                    opacity="1"
                    stroke="none"
                    d="m 54.38577,55.414906 c -2.5336,0.18427 -2.68897,-1.17236 -2.07233,-2.73074 0.33152,-0.83777 1.29712,-0.88468 2.07862,-0.44718 1.49258,0.83561 1.61416,1.87336 -0.006,3.17792 z"
                    id="path729"
                />
                <path
                    fill="#181d0d"
                    opacity="1"
                    stroke="none"
                    d="m 55.22726,30.974787 c 1.43533,-2.00873 2.09302,1.02819 3.65616,0.70379 0.48581,1.31842 1.73639,2.41813 0.08,3.85163 -1.17407,-1.43875 -2.34357,-2.87195 -3.73621,-4.55542 z"
                    id="path730"
                />
                <path
                    fill="#181d0d"
                    opacity="1"
                    stroke="none"
                    d="m 52.71188,46.803336 c 2.01834,0.64599 3.73538,1.34439 4.4606,3.69449 -1.95318,-0.23114 -4.59619,0.11731 -5.21328,-3.31711 -0.001,-0.37384 -0.003,-0.37262 -0.003,-0.37195 0.16751,-0.003 0.33566,-0.007 0.75598,-0.005 z"
                    id="path731"
                />
                <path
                    fill="#556b35"
                    opacity="1"
                    stroke="none"
                    d="m 66.39639,45.310936 c -1.19131,-0.90784 -1.69696,-1.75836 -0.1506,-2.23746 1.10388,-0.34201 2.08657,0.30222 2.2059,1.4006 0.13006,1.19754 -0.91028,1.08872 -2.0553,0.83686 z"
                    id="path732"
                />
                <path
                    fill="#695a4e"
                    opacity="1"
                    stroke="none"
                    d="m 53.77209,26.794917 c 0.37567,1.18035 0.50656,2.36554 0.84781,3.83953 -0.17596,0.53959 -0.56226,0.79038 -1.18713,1.07874 -0.51358,-0.69202 -0.78858,-1.42163 -1.18561,-2.52182 -0.13901,-0.88654 -0.0116,-1.36395 0.52704,-2.06967 0.26666,-0.26688 0.75314,-0.32199 0.99789,-0.32678 z"
                    id="path733"
                />
                <path
                    fill="#695a4e"
                    opacity="1"
                    stroke="none"
                    d="m 45.26706,47.700396 c -0.57807,-0.78964 -1.75684,-1.81286 -0.50611,-2.33752 1.32538,-0.55597 1.23578,0.86432 1.1803,2.09372 -0.085,0.32333 -0.4776,0.26898 -0.67419,0.2438 z"
                    id="path734"
                />
                <path
                    fill="#181d0d"
                    opacity="1"
                    stroke="none"
                    d="m 58.6307,44.599626 c -0.31298,-0.36871 -0.37915,-0.77133 -0.46942,-1.48178 1.12812,-0.10434 2.07443,0.18601 0.46942,1.48178 z"
                    id="path735"
                />
                <path
                    fill="#181d0d"
                    opacity="1"
                    stroke="none"
                    d="m 57.22375,38.797297 c 0.0222,-0.81601 0.46463,-1.54923 1.46109,-1.33518 0.22,0.0473 0.5521,0.49103 0.51023,0.68122 -0.18808,0.85443 -0.98008,0.62927 -1.97132,0.65396 z"
                    id="path736"
                />
                <path
                    fill="#181d0d"
                    opacity="1"
                    stroke="none"
                    d="m 56.99502,38.861987 c -0.0991,0.0996 -0.32119,0.77823 -0.27636,-0.0763 0.10797,-0.0848 0.22305,0.0197 0.27636,0.0763 z"
                    id="path737"
                />
                <path
                    fill="#181d0d"
                    opacity="1"
                    stroke="none"
                    d="m 47.41342,49.339316 c -0.0329,-0.0553 0.0329,0.0553 0,0 z"
                    id="path738"
                />
                <path
                    fill="#343d22"
                    opacity="1"
                    stroke="none"
                    d="m 55.10428,17.105577 c -4.03467,1.19556 -7.3682,0.18821 -10.78351,-2.21758 -1.83057,-0.95402 -2.11277,-2.20463 -1.12549,-3.98102 0.43802,-0.82877 1.43314,-0.17505 1.38605,-1.2867796 -0.1958,-1.05331 0.0494,-1.78576 0.55615,-2.764 1.29346,-1.20087 2.00931,-2.53122 3.45996,-3.48758 0.651,0.0211 0.9136,0.0398 0.99457,-0.168 -0.0663,-0.15522 0.0772,-0.51639 0.23004,-0.63642 0.59821,-0.0383 1.04364,0.0435 1.81702,0.22705 0.4924,0.28519 0.65683,0.46854 0.84167,1.02066 1.29572,0.59174 2.57092,0.81467 4.17536,1.09482 3.42077,2.62748 -0.20197,4.18274 -0.62952,6.5472396 0.12497,0.49878 0.27627,0.67536 0.68646,1.08557 0.25888,0.23368 0.2728,0.25635 0.28168,0.24613 0.58481,0.76581 1.41525,0.99289 2.64059,1.11325 1.13864,0.27203 1.85309,0.79614 3.03409,0.89972 1.98184,5.45575 -2.5636,1.90988 -4.60443,3.0296 -0.87158,0.0817 -1.05695,0.10129 -1.51819,0.0746 -0.61917,-0.19516 -0.93216,-0.39209 -1.4425,-0.79731 z"
                    id="path739"
                />
                <path
                    fill="#868a51"
                    opacity="1"
                    stroke="none"
                    d="m 62.94626,14.517907 c -0.90494,0.86996 -1.47489,3.36105 -3.03064,0.59732 -0.0687,-0.93857 0.1788,-1.46002 0.86395,-2.09351 1.06589,-0.0321 1.88446,0.17972 2.16669,1.49619 z"
                    id="path740"
                />
                <path
                    fill="#282a13"
                    opacity="1"
                    stroke="none"
                    d="m 54.9028,17.265947 c 0.40552,-0.35696 0.83737,-0.39364 1.59262,-0.45541 0.59479,0.19443 0.85596,0.42548 1.2944,0.85056 0.18735,0.18261 0.18225,0.14132 0.16098,0.14074 -0.0126,0.44532 -0.004,0.89118 -0.0169,1.67081 -0.40906,0.65878 -0.85773,0.79697 -1.65812,0.56134 -1.08279,-0.7532 -1.29797,-1.56146 -1.37298,-2.76804 z"
                    id="path741"
                />
                <path
                    fill="#515422"
                    opacity="1"
                    stroke="none"
                    d="m 60.59805,12.816707 c 0.18439,0.54452 -0.0323,1.08969 -0.48462,1.81784 -1.34366,0.0874 -2.5686,0.2305 -3.07028,-1.52201 1.02493,-0.32315 2.08935,-0.3092 3.5549,-0.29583 z"
                    id="path742"
                />
                <path
                    fill="#343d22"
                    opacity="1"
                    stroke="none"
                    d="m 56.01083,20.110187 c 0.39664,-0.29522 0.82681,-0.30258 1.57916,-0.30685 0.91538,0.82364 1.50858,1.64422 2.16748,2.76685 -0.70468,0.0362 -1.47509,-0.22962 -2.52981,-0.62104 -0.58396,-0.60074 -0.88361,-1.0759 -1.21683,-1.83896 z"
                    id="path743"
                />
                <path
                    fill="#515422"
                    opacity="1"
                    stroke="none"
                    d="m 65.17306,24.679377 c -1.85467,6.4e-4 -2.20566,-0.87802 -1.33499,-2.61325 0.12256,-0.28485 0.11636,-0.24988 0.0998,-0.25571 0.40659,-0.38678 0.89746,-0.522 1.75983,-0.15039 0.30377,0.26105 0.30969,0.61419 0.2981,0.7904 0.17981,0.37699 0.37121,0.57773 0.27673,1.08081 -0.28586,0.30228 -0.31018,0.28345 -0.30109,0.28998 -0.18805,0.25128 -0.40582,0.47608 -0.79834,0.85816 z"
                    id="path744"
                />
                <path
                    fill="#282a13"
                    opacity="1"
                    stroke="none"
                    d="m 65.96002,21.608877 c -0.42014,0.26703 -0.88171,0.22189 -1.69101,0.18622 -0.10059,-0.50974 0.0227,-1.30817 0.42169,-1.48517 0.65756,-0.29175 1.02973,0.37308 1.26932,1.29895 z"
                    id="path745"
                />
                <path
                    fill="#343d22"
                    opacity="1"
                    stroke="none"
                    d="m 66.23929,23.833737 c -0.25873,-0.20066 -0.26477,-0.4011 -0.26297,-0.9043 0.42764,-0.0852 0.84744,0.13238 1.26724,0.34997 -0.25052,0.18485 -0.50107,0.36969 -1.00427,0.55433 z"
                    id="path746"
                />
                <path
                    fill="#343d22"
                    opacity="1"
                    stroke="none"
                    d="m 65.23858,24.853017 c -0.13427,-0.32391 0.0431,-0.59015 0.52719,-0.91022 0.21784,0.0533 0.22101,0.22174 0.1778,0.63901 -0.0464,0.24884 -0.48532,0.26761 -0.70499,0.27121 z"
                    id="path747"
                />
                <path
                    fill="#515422"
                    opacity="1"
                    stroke="none"
                    d="m 56.85992,12.563167 c -0.20251,0.10385 -0.45334,-0.0863 -0.75009,-0.57374 0.18924,-0.0851 0.43845,0.10718 0.75009,0.57374 z"
                    id="path748"
                />
                <path
                    fill="#5c473f"
                    opacity="1"
                    stroke="none"
                    d="m 53.36688,98.868946 c -0.41202,-0.005 -0.62283,-0.0273 -1.15036,-0.0787 -0.93567,-0.70868 -1.47092,-1.43668 -1.6947,-2.81574 0.26172,-5.20779 -1.28562,-10.1914 2.08966,-14.88672 3.79855,0.94745 1.69562,3.92572 2.37634,6.4639 0.099,1.43662 0.17618,2.44049 0.1712,3.81467 -0.43463,0.50772 -0.58575,0.76394 -0.35284,1.29422 0.27011,1.95672 0.53284,3.78302 -0.7009,5.77417 -0.1376,0.35745 -0.5372,0.41665 -0.7384,0.4342 z"
                    id="path749"
                />
                <path
                    fill="#503029"
                    opacity="1"
                    stroke="none"
                    d="m 55.04754,92.549036 c -0.29325,2.06744 -0.37042,-0.0989 -0.48275,-0.30545 -0.0265,-0.0486 0.30364,-0.99039 0.5316,-1.19709 0.16709,0.0765 7e-5,1.05384 -0.0489,1.50254 z"
                    id="path750"
                />
                <path
                    fill="#927d89"
                    opacity="1"
                    stroke="none"
                    d="m 52.96698,80.378596 c -0.32016,5.12295 -0.64478,9.81616 -1.0015,14.96215 -1.07284,1.06858 -2.02343,0.72217 -3.24087,-0.0814 -1.68012,-2.14981 -1.32706,-4.6542 -2.66843,-6.96631 -0.30447,-0.83859 -0.40686,-1.33651 -0.48404,-2.22552 0.11389,-5.57041 -1.78622,-11.01187 2.1929,-15.95752 2.49564,0.15698 3.40506,-2.52872 5.87882,-2.35104 1.3024,4.15838 -0.60526,8.09533 -0.67688,12.61966 z"
                    id="path751"
                />
                <path
                    fill="#503e35"
                    opacity="1"
                    stroke="none"
                    d="m 33.07982,100.69246 c 0,0 -0.41268,-0.0189 -3.04716,-0.24346 -3.32392,-0.690254 -4.03024,-0.715164 -5.76815,-2.499464 -0.32016,-0.8668 0.0707,5.599894 0.33925,4.732344 0.98202,-1.50903 2.05554,-2.57318 1.60089,-4.576114 -0.62674,-3.96756 -1.53866,-8.75211 -0.14425,-12.7414 3.56751,-1.3616 5.70916,1.20354 6.44738,5.44208 0.4541,2.60733 1.26743,4.99399 2.34747,7.68982 -0.0598,1.40939 9.11304,-0.33399 9.03287,1.05953 -0.11782,0.954904 -6.82587,1.650524 -8.06829,1.490214 z"
                    id="path831"
                />
                <path
                    fill="#c1c7d2"
                    opacity="1"
                    stroke="none"
                    d="m 58.48623,102.28918 c 0.0181,0.0353 -0.0181,-0.0354 0,0 z"
                    id="path838"
                />
                <path
                    fill="#72675c"
                    opacity="1"
                    stroke="none"
                    d="m 50.56625,98.884846 c -1.22998,0.30505 -2.1936,0.59396 -3.5278,0.93479 -0.87058,0.002 -1.23596,-0.25351 -1.55228,-1.03379 0.25269,-2.10873 1.08664,-3.47989 3.13715,-4.08944 1.13412,0.36438 1.92773,0.61849 3.01569,0.98492 0.2929,0.8548 0.29141,1.59729 0.27539,2.70984 -0.37027,0.40588 -0.72602,0.44171 -1.34815,0.49368 z"
                    id="path839"
                />
                <path
                    fill="#515422"
                    opacity="1"
                    stroke="none"
                    d="m 17.85067,4.2108674 c 2.60111,-0.38284 4.86347,-0.85657 7.20234,-1.62707 2.75253,-0.7136 5.42862,-1.13044 8.50714,-1.63259996 1.6109,0.65056996 1.94256,1.89430996 2.33154,3.51735996 0.0783,5.26907 -3.46692,5.06476 -7.13837,5.29782 -0.57632,0.18939 -0.80966,0.2514096 -1.39831,0.3603196 -1.27985,0.11557 -2.20392,0.13071 -3.44696,-0.005 -1.08588,-0.0703 -1.88968,-0.3439296 -2.71314,0.591 -0.30481,0.42588 -0.43313,0.59763 -0.7774,1.0199 -2.20133,1.99756 -5.15579,2.27106 -5.58118,6.20084 -0.33697,3.11264 -4.62414,2.00921 -7.52173,2.76608 -0.60641,-0.0897 -0.84524,-0.15927 -1.40527,-0.42615 -1.1077,-0.91064 -1.34775,-1.90561 -1.74875,-3.2128 1.54565,-4.89776 9.54889,-12.4024896 13.69009,-12.8498796 z"
                    id="path1070"
                />
                <path
                    fill="#343d22"
                    opacity="1"
                    stroke="none"
                    d="m 35.08404,5.1075074 c -1.23864,-1.20862 -1.12393,-2.38758 -1.1116,-3.89255 0.83142,-2.07268996 2.28888,-0.17114 3.63055,-1.10222996 2.48883,-0.59449 4.33399,1.39159996 6.94049,0.65857 1.52771,0.38774996 2.00202,1.18251996 1.85999,2.66530996 -0.73596,0.94452 -1.45285,1.13657 -2.26688,0.82776 -0.72744,-0.27591 -1.30429,-0.89643 -2.13531,-0.94071 0.59268,0.36734 1.44931,0.42551 1.60745,1.72339 -2.58316,4.87103 -5.4714,4.86145 -8.52469,0.0605 z"
                    id="path1074"
                />
                <path
                    fill="#556b35"
                    opacity="1"
                    stroke="none"
                    d="m 45.71417,4.0644174 c -0.0232,-1.05762 -0.26953,-1.85941 -0.64206,-2.95542 1.82288,-1.42171996 3.0033,0.30674 4.69,1.13996 0.21887,0.42456 0.22498,0.65393 0.21747,1.21469 -2.26376,-0.0236 -0.63653,4.00787 -3.58276,3.20859 -0.70365,-0.25092 -0.98059,-0.59 -1.13187,-1.37623 0.068,-0.55157 0.14703,-0.76367 0.44922,-1.23159 z"
                    id="path1078"
                />
                <path
                    fill="#556b35"
                    opacity="1"
                    stroke="none"
                    d="m 56.76354,4.3634804 c 0.0457,0.792085 -0.43063,1.075558 -1.69182,1.45451 -1.71479,-0.460592 -2.64479,-1.016684 -3.5748,-1.572638 1.48609,-2.006997 3.146,-0.5962 5.26662,0.118128 z"
                    id="path1079"
                    style="stroke-width: 2.51539"
                />
                <path
                    fill="#282a13"
                    opacity="1"
                    stroke="none"
                    d="m 45.60159,4.6848974 c 0.32184,0.53665 0.36954,0.95056 0.45218,1.67325 -0.26096,1.15079 -0.55685,1.9928 -0.98059,3.14334 -0.19742,0.6553596 -0.38876,0.9029496 -0.91886,1.1909496 -0.94085,1.28522 -0.56063,2.43161 -0.22009,3.87884 -0.46637,2.46424 2.34186,4.76844 -0.53552,7.03284 -0.70535,0.58191 -1.20197,0.73862 -2.1084,0.43219 -0.40756,-1.67071 1.01947,-3.01971 -0.216,-4.80707 -0.54099,-0.97204 -1.10166,-1.51217 -1.92761,-2.20654 -0.21564,-0.19949 -0.19761,-0.21982 -0.19523,-0.20691 -0.22061,-0.23703 -0.45871,-0.47153 -0.90664,-0.84937 -0.45456,-0.25885 -0.68314,-0.40801 -1.0008,-0.77416 -0.25457,-0.54508 -0.52649,-0.76703 -1.03137,-0.60645 -2.05862,0.2872 -4.18744,-0.0965 -5.18234,3.10217 -1.20795,1.29874 -2.60416,1.5036 -2.99783,3.25244 -0.65567,1.20526 -1.41751,1.96115 -2.10248,3.15662 -1.14514,0.40631 -2.10318,0.55356 -3.54578,0.72757 -0.48456,0.0268 -0.9458,0.16534 -0.9458,0.16534 0,0 0.20758,0.43427 0.41806,0.5517 -0.95505,3.21121 -0.2619,5.44305 3.65054,6.30597 -1.31356,1.3674 -2.90704,2.06903 -3.08862,4.11588 0.74722,0.79162 1.70618,0.86154 2.71777,1.63812 0.9274,0.19565 1.57975,0.18908 2.55823,0.17996 1.39246,0.0623 2.34485,0.31625 2.61335,1.81552 -0.1504,1.0784 -0.15433,1.80405 -0.14475,2.89227 0.11911,0.56183 0.22473,0.76111 0.14783,1.24497 -0.62659,0.343869 -1.04196,0.269899 -1.63806,-0.20017 -0.70533,-0.77523 -1.11844,-1.41574 -2.06638,-1.64328 -0.19257,0.0211 -0.43594,0.2005 -0.285,0.32279 0.45065,0.24457 0.74933,0.36932 1.31646,0.64007 0.90403,0.68808 1.45829,1.358009 2.66471,1.613649 0.84488,0.60318 1.02011,1.24332 0.87283,2.15259 -1.21298,0.44491 -2.4581,1.14755 -3.09756,0.78427 -3.93702,-2.23675 -6.67396,-0.31265 -9.65393,2.36746 -1.18244,0.46595 -1.87348,0.026 -2.85358,-0.40814 -1.04077,-0.24625 -1.84207,-0.13199 -2.85358,-0.57483 -1.573,-2.02224 -2.67322,-4.06039 -5.20178,-5.177979 -1.13532,-1.27487 -0.64316,-2.39544 -0.32636,-3.83426 0.19989,-0.54266 0.29908,-0.75372 0.61121,-1.24533 0.92273,-0.95639 1.78034,-1.3229 3.09091,-1.49868 0.58847,0.026 0.82132,0.0652 1.38315,0.22921 2.44327,1.5687 4.96588,2.20536 8.23871,4.13315 -2.33127,-1.56485 -3.54978,-2.55728 -4.41339,-4.31833 -0.96619,-1.91989 -2.30118,-3.16897 -3.39527,-4.99615 -0.24768,-0.74176 -0.27957,-1.18064 -0.13183,-1.90161 0.0283,-0.65482 1.31634,-0.81302 -0.0175,-1.37162 -0.90475,-0.18563 -1.42056,-0.52551 -2.07434,-1.24466 -0.36905,-2.49832 -2.52631,-3.36987 -3.34729,-5.37963 1.19919,-0.66053 2.25766,-1.22715 3.35159,-1.30692 1.87427,-0.13666 3.73545,-0.10153 4.24216,-2.43671 0.5076,-2.33929 -1.98733,-2.195 -3.10879,-3.56448 2.30121,-2.35345 6.03054,1.47269 8.25894,-1.9444 1.74063,-0.62469 3.11386,0.4574 4.82879,-0.0886 0.8768,-0.15598 1.46097,-0.16946 2.30402,-0.007 0.55023,0.26818 0.7775,0.51129 0.88684,0.5921 -0.11005,-0.38846 -0.19696,-0.53263 -0.35379,-0.92401 -0.0895,-0.5991196 -0.0139,-0.9307896 0.30753,-1.4479996 1.29995,-1.56806 2.87155,-1.3938 4.2911,-1.12369 2.14084,0.40732 2.5438,-0.89017 2.85123,-2.78177 2.54846,1.08789 4.94516,4.58136 8.06848,-0.0514 0.87219,-0.85071 1.70438,-0.33508 2.74048,-0.41275 z"
                    id="path1080"
                />
                <path
                    fill="#43241d"
                    opacity="1"
                    stroke="none"
                    d="m 21.88113,103.95498 c -0.80707,-0.56027 -1.81946,-0.97235 -1.81263,-2.38221 0.37155,-0.69879 1.70114,-1.22573 1.47177,-2.092004 -0.422,-0.5712 -1.68679,-0.58216 -2.05343,-1.23593 -0.23541,-5.13202 -0.35778,-9.65015 -1.0787,-14.78287 -0.27368,-4.0831 1.29358,-8.12451 -1.94318,-11.72284 -0.29638,-0.517 -0.4021,-0.73264 -0.62603,-1.29016 -0.16153,-0.57889 -0.20484,-0.81589 -0.27887,-1.41205 -0.11899,-1.77917 0.0689,-3.23386 -0.6619,-4.93854 -0.29822,-1.33722 -0.27731,-2.32373 -0.0361,-3.6784 0.36007,-1.09528 0.80032,-1.69989 1.75333,-2.33844 2.17254,-0.42453 3.89858,-10e-4 5.97235,0.67846 3.13919,1.32395 3.91494,3.7865 4.17834,6.49796 0.39575,4.07342 0.88007,8.14496 0.74063,12.68704 0.32855,2.68836 1.6163,4.94614 -0.26425,7.53513 -0.59128,4.49029 0.006,8.56677 0.67285,13.07184 -1.07965,1.27331 -0.95968,2.668974 -1.72836,3.984584 -0.49317,0.57978 -0.80655,0.90842 -1.24246,1.56009 -0.96503,0.20279 -1.80747,0.0825 -3.06336,-0.14166 z"
                    id="path1081"
                />
                <path
                    fill="#33251c"
                    opacity="1"
                    stroke="none"
                    d="m 16.82431,57.626546 c -0.12793,0.85538 -0.39206,1.41141 -0.92255,2.14047 -7.15143,0.46463 -11.77301,-4.78766 -10.34692,-11.85083 1.10287,-1.4704 2.29758,-1.68628 3.98559,-1.36422 2.24106,0.71929 3.72562,1.97985 5.47122,3.35156 0.48765,0.11304 0.6821,0.16336 1.14469,0.35113 1.75891,2.39582 -3.33499,4.90451 0.66797,7.37189 z"
                    id="path1082"
                />
                <path
                    fill="#503029"
                    opacity="1"
                    stroke="none"
                    d="m 26.30395,79.026356 c -0.3854,-6.77304 -0.36621,-13.33395 -3.17932,-19.86133 1.20432,-0.32696 2.56967,-0.31344 4.34439,-0.27917 1.10596,0.48572 2.02164,1.24093 1.67621,1.90872 -1.45981,2.82211 1.27582,0.7995 1.87573,1.69534 0.50522,0.63044 0.63062,1.07636 0.62311,1.9032 -0.45398,1.47446 -1.15558,2.44837 -1.82025,3.84461 -1.44824,3.53915 0.89868,7.12762 -1.44183,10.55181 -0.74164,0.51267 -1.24125,0.57267 -2.07804,0.23682 z"
                    id="path1083"
                />
                <path
                    fill="#2f211a"
                    opacity="1"
                    stroke="none"
                    d="m 31.31903,63.073416 c -3.52063,0.54593 -3.09656,-1.83475 -3.39514,-3.88989 1.06097,-1.19333 2.38833,-1.04578 3.8844,-1.22498 1.33648,-0.64435 2.12997,-1.92145 3.85992,-1.43603 0.42801,0.95022 0.33041,2.12768 0.79669,2.42718 3.94269,2.53232 0.63782,2.67789 -1.27493,3.61499 -1.19437,1.22006 -2.29657,1.328 -3.87094,0.50873 z"
                    id="path1084"
                />
                <path
                    fill="#343d22"
                    opacity="1"
                    stroke="none"
                    d="m 38.98358,23.066337 c -2.09973,1.01791 -4.03137,0.73343 -5.96866,-1.55478 2.45709,-0.43222 4.64612,-3.91281 5.96866,1.55478 z"
                    id="path1085"
                />
                <path
                    fill="#343d22"
                    opacity="1"
                    stroke="none"
                    d="m 38.199,56.416956 c -0.25741,-0.16108 -0.25009,-0.51853 -0.23489,-1.14188 0.34573,-2.40018 0.68362,-4.53445 1.00146,-7.06024 2.16285,-0.32035 3.66648,0.24139 2.28208,2.84329 -0.91831,1.72595 -1.85529,3.44199 -3.04865,5.35883 z"
                    id="path1086"
                />
                <path
                    fill="#282a13"
                    opacity="1"
                    stroke="none"
                    d="m 30.96261,15.802147 c 0.88678,0.10635 1.63745,0.39865 1.93781,1.69943 -0.73804,1.82855 -1.50717,3.31757 -2.49054,5.0434 -0.6698,0.61154 -1.19101,0.76913 -2.13535,0.48498 -0.35751,-0.22467 -0.30813,-0.23434 -0.30844,-0.20917 -0.53412,-0.52145 -0.82968,-1.16674 -0.72784,-2.29306 0.84622,-1.86068 1.69879,-3.29376 3.44876,-4.45822 0.25516,-0.24868 0.26825,-0.26031 0.2756,-0.26736 z"
                    id="path1087"
                />
                <path
                    fill="#343d22"
                    opacity="1"
                    stroke="none"
                    d="m 35.94961,56.360706 c -2.1492,-1.56848 -0.72085,5.3281 -3.73221,1.59162 -0.0693,-2.04712 2.33166,-3.86588 1.59878,-6.56369 0.7308,0.3114 1.48969,1.88717 2.18604,2.96362 0.0349,0.75308 -2.4e-4,1.20999 -0.0526,2.00845 z"
                    id="path1088"
                />
                <path
                    fill="#282a13"
                    opacity="1"
                    stroke="none"
                    d="m 51.48251,23.323967 c 0.0814,0.44061 0.11383,0.67395 0.0182,0.75363 -1.12067,0.9343 -1.65759,3.20313 -3.80807,1.82211 -0.46213,-0.29675 -0.99271,-1.42581 -0.88843,-1.52279 1.27337,-1.18427 2.54577,-2.66025 4.67828,-1.05295 z"
                    id="path1089"
                />
                <path
                    fill="#62554a"
                    opacity="1"
                    stroke="none"
                    d="m 16.57272,50.132986 c -0.14828,0.25909 -0.29053,0.40414 -0.36047,0.47778 -3.12781,0.41147 -3.36875,-0.18985 -1.40091,-4.31982 1.40963,-0.32791 1.96518,0.48898 2.82589,1.36774 -0.14684,0.84698 -0.53152,1.53112 -1.06451,2.4743 z"
                    id="path1090"
                />
                <path
                    fill="#72675c"
                    opacity="1"
                    stroke="none"
                    d="m 28.01944,19.463007 c -0.0486,1.09185 -0.0209,1.85492 -0.0234,3.00042 -0.64465,0.2866 -1.25909,0.19071 -2.16327,-0.006 -1.26352,-1.59412 -1.02856,-2.68082 0.94147,-3.46329 0.64169,-0.36883 1.02386,-0.24863 1.24524,0.46912 z"
                    id="path1091"
                />
                <path
                    fill="#72675c"
                    opacity="1"
                    stroke="none"
                    d="m 30.28796,37.901117 c -0.90378,-0.5214 -1.48086,-1.09153 -2.26266,-1.89188 0.93145,-1.79226 2.09732,-1.12701 3.59259,-0.2402 -0.0139,0.78525 0.16143,1.86963 -1.32993,2.13208 z"
                    id="path1092"
                />
                <path
                    fill="#5c473f"
                    opacity="1"
                    stroke="none"
                    d="m 25.14694,35.519827 c -0.98798,0.19159 -2.23065,0.73727 -2.94122,-0.90997 0.9205,0.0605 3.24212,-3.84607 2.94122,0.90997 z"
                    id="path1093"
                />
                <path
                    fill="#62554a"
                    opacity="1"
                    stroke="none"
                    d="m 30.98449,44.999806 c -0.47656,-0.66546 -0.69622,-1.18606 -1.04449,-1.96881 -0.26746,-0.42395 -0.40631,-0.58579 -0.33707,-0.99051 0.2081,-0.24292 0.27646,-0.718289 0.32502,-0.953399 2.9645,0.46079 2.28195,2.217069 1.05654,3.912719 z"
                    id="path1094"
                />
                <path
                    fill="#4c443f"
                    opacity="1"
                    stroke="none"
                    d="m 38.75546,43.458666 c 1.21362,0.51953 3.33118,0.088 2.33386,1.77402 -0.711,1.202 -2.31137,0.54077 -3.27115,-1.05289 0.11322,-0.49026 0.32898,-0.64941 0.93729,-0.72113 z"
                    id="path1095"
                />
                <path
                    fill="#4c443f"
                    opacity="1"
                    stroke="none"
                    d="m 39.21698,23.943257 c -0.17267,-0.25085 -0.70807,-0.845463 -0.71841,-0.961863 0.52121,-0.41653 1.58312,-0.363117 2.28509,-0.919177 0.64966,-0.26083 1.1289,-0.26578 1.97046,-0.26834 -0.0882,2.03226 -1.35862,2.78778 -3.53714,2.14938 z"
                    id="path1096"
                />
                <path
                    fill="#343d22"
                    opacity="1"
                    stroke="none"
                    d="m 32.65774,34.534777 c 0.24054,-0.92846 0.34568,-1.72766 0.45081,-2.52682 0.45792,1.1478 3.12259,2.45682 -0.38098,3.16464 -0.30033,-0.14636 -0.20526,-0.50854 -0.0698,-0.63782 z"
                    id="path1097"
                />
                <path
                    fill="#4c443f"
                    opacity="1"
                    stroke="none"
                    d="m 47.56271,37.710927 c -0.64975,0.98285 -1.32471,1.18396 -1.97806,0.39996 -0.13754,-0.1651 -0.13174,-0.66073 0.0113,-0.81268 0.66797,-0.70932 1.35978,-0.56216 1.96677,0.41272 z"
                    id="path1098"
                />
                <path
                    fill="#343d22"
                    opacity="1"
                    stroke="none"
                    d="m 39.01898,43.275316 c -0.10663,0.33219 -0.34223,0.3935 -0.94058,0.51404 -1.12033,-0.14242 -2.12537,-0.48401 -1.40448,-1.37286 0.77823,-0.959569 1.64255,-0.28293 2.34506,0.85882 z"
                    id="path1099"
                />
                <path
                    fill="#282a13"
                    opacity="1"
                    stroke="none"
                    d="m 41.66641,29.812367 c 0.63824,0.5297 0.98642,1.05435 1.33456,1.57904 -1.25625,0.73105 -2.38937,0.0451 -2.86557,-0.85028 -0.44159,-0.83026 0.73383,-0.58166 1.53101,-0.72876 z"
                    id="path1100"
                />
                <path
                    fill="#343d22"
                    opacity="1"
                    stroke="none"
                    d="m 38.98883,15.135547 c 0.72308,0.16016 3.57736,-2.27676 2.05435,1.5409 -0.9527,0.0377 -1.72376,-0.28177 -2.05435,-1.5409 z"
                    id="path1101"
                />
                <path
                    fill="#4c443f"
                    opacity="1"
                    stroke="none"
                    d="m 34.35876,28.702447 c 0.49213,-0.85333 1.11728,-0.9169 1.7204,-0.5568 0.5636,0.33649 0.42502,0.85135 -0.0204,1.16333 -0.61054,0.42774 -1.20762,0.27237 -1.70005,-0.60653 z"
                    id="path1102"
                />
                <path
                    fill="#4c443f"
                    opacity="1"
                    stroke="none"
                    d="m 45.9985,34.451837 c -1.03235,-0.52884 -0.7467,-1.111 -0.24856,-1.61011 0.16086,-0.1611 0.70489,-0.23642 0.78857,-0.129 0.48322,0.62036 0.30273,1.21079 -0.54001,1.73911 z"
                    id="path1103"
                />
                <path
                    fill="#343d22"
                    opacity="1"
                    stroke="none"
                    d="m 36.14923,12.883777 c -0.3458,-0.85867 -1.52606,-2.01132 -0.33737,-2.40164 1.32635,-0.43552 0.99249,1.06128 1.12814,2.20142 -0.18973,0.3089 -0.36087,0.27466 -0.79077,0.20022 z"
                    id="path1104"
                />
                <path
                    fill="#62554a"
                    opacity="1"
                    stroke="none"
                    d="m 21.8367,23.454767 c -0.87894,0.0909 -2.40174,0.50522 -2.38614,-0.69336 0.0175,-1.35172 1.09073,-0.34107 1.98538,-0.0303 0.26373,0.1203 0.37048,0.51938 0.40076,0.7237 z"
                    id="path1105"
                />
                <path
                    fill="#72675c"
                    opacity="1"
                    stroke="none"
                    d="m 56.62051,24.335377 c 0.40021,0.8682 0.4914,1.82111 -1.0213,2.26029 -0.67071,-0.97867 -0.38849,-1.75812 1.0213,-2.26029 z"
                    id="path1106"
                />
                <path
                    fill="#282a13"
                    opacity="1"
                    stroke="none"
                    d="m 34.22391,50.839166 c 0.26739,-0.70899 0.93399,-1.10266 1.80606,-0.70169 0.17474,0.0803 0.20309,0.47906 0.29895,0.73101 -0.61142,-0.006 -1.22284,-0.0129 -2.10501,-0.0293 z"
                    id="path1107"
                />
                <path
                    fill="#343d22"
                    opacity="1"
                    stroke="none"
                    d="m 41.8995,27.554407 c -0.6148,0.2334 -1.24206,0.12213 -1.34295,-0.6334 -0.0226,-0.16946 0.31607,-0.3872 0.48843,-0.58273 0.28149,0.30618 0.56296,0.61234 0.85452,1.21613 z"
                    id="path1108"
                />
                <path
                    fill="#282a13"
                    opacity="1"
                    stroke="none"
                    d="m 25.36245,24.470637 c 0.18805,0.70761 -0.0669,0.96515 -0.61337,0.86505 -0.11362,-0.0208 -0.27023,-0.1864 -0.28531,-0.30121 -0.0728,-0.55493 0.20584,-0.78708 0.89868,-0.56384 z"
                    id="path1109"
                />
                <path
                    fill="#343d22"
                    opacity="1"
                    stroke="none"
                    d="m 48.39584,34.743827 c 0.3768,-0.72888 0.75055,-0.62839 1.07391,-0.17401 0.0747,0.10495 0.0942,0.3446 0.0252,0.44049 -0.36285,0.50467 -0.73877,0.40454 -1.09915,-0.26648 z"
                    id="path1110"
                />
                <path
                    fill="#282a13"
                    opacity="1"
                    stroke="none"
                    d="m 52.77389,26.876427 c 0.12451,0.44607 -0.0179,0.91376 -0.40454,1.6629 -1.45791,-0.62573 -1.22034,-1.24475 0.40454,-1.6629 z"
                    id="path1111"
                />
                <path
                    fill="#281e18"
                    opacity="1"
                    stroke="none"
                    d="m 25.69711,27.191797 c 0.49152,-0.13483 0.97171,-0.26584 1.09415,-0.112 0.48538,0.60959 -0.15876,0.78509 -0.53131,0.91549 -0.5376,0.18815 -0.95438,0.0635 -0.56284,-0.80349 z"
                    id="path1112"
                />
                <path
                    fill="#282a13"
                    opacity="1"
                    stroke="none"
                    d="m 33.45532,46.609246 c 0.5965,-0.019 1.04065,0.31585 0.63724,0.6932 -0.38456,0.35971 -0.73999,-0.0428 -0.63724,-0.6932 z"
                    id="path1113"
                />
                <path
                    fill="#72675c"
                    opacity="1"
                    stroke="none"
                    d="m 28.05874,23.090077 c 0.36386,-0.33459 0.86945,-0.38437 1.75595,-0.37121 -0.0232,1.13858 -0.72619,1.20849 -1.75595,0.37121 z"
                    id="path1114"
                />
                <path
                    fill="#72675c"
                    opacity="1"
                    stroke="none"
                    d="m 32.68582,34.573717 c 0.1073,-0.16824 -0.12494,0.25907 -0.19177,0.35578 -0.0668,0.0967 -0.39426,0.43274 -0.47174,0.65426 -0.0775,0.22153 -0.0643,0.22693 -0.0606,0.23447 0.2081,-0.3537 0.41241,-0.71499 0.72406,-1.24451 z"
                    id="path1115"
                />
                <path
                    fill="#343d22"
                    opacity="1"
                    stroke="none"
                    d="m 45.7471,42.203446 c 0.2232,-0.0447 0.35092,0.0124 0.47861,0.0695 -0.19138,0.0108 -0.38276,0.0215 -0.47861,-0.0695 z"
                    id="path1116"
                />
                <path
                    fill="#343d22"
                    opacity="1"
                    stroke="none"
                    d="m 41.95193,29.807887 c -0.0226,-0.43494 -0.0402,-0.87006 -0.0501,-1.63053 0.008,-0.32534 0.0433,-0.358 0.0625,-0.37311 0.67673,0.43662 0.97379,0.97239 0.20648,1.85981 -0.21429,0.15332 -0.21389,0.14361 -0.21887,0.14383 z"
                    id="path1117"
                />
                <path
                    fill="#62554a"
                    opacity="1"
                    stroke="none"
                    d="m 42.60998,37.182607 c 0.0947,0.11752 -0.22845,0.1965 -0.22845,0.1965 0,0 0.13373,-0.31402 0.22845,-0.1965 z"
                    id="path1118"
                />
                <path
                    fill="#343d22"
                    opacity="1"
                    stroke="none"
                    d="m 48.46685,44.346516 c -0.0494,0.0275 0.0494,-0.0275 0,0 z"
                    id="path1119"
                />
                <path
                    fill="#62554a"
                    opacity="1"
                    stroke="none"
                    d="m 42.53595,34.231747 c 0.0857,0.12933 -0.2385,0.19872 -0.2385,0.19872 0,0 0.15277,-0.32806 0.2385,-0.19872 z"
                    id="path1120"
                />
                <path
                    fill="#343d22"
                    opacity="1"
                    stroke="none"
                    d="m 37.99173,14.021537 c 0.14227,-0.0243 0.42386,0.16751 0.8338,0.58331 -0.14597,0.0269 -0.42026,-0.17007 -0.8338,-0.58331 z"
                    id="path1121"
                />
                <path
                    fill="#33251c"
                    opacity="1"
                    stroke="none"
                    d="m 20.4938,56.281916 c 0.0245,0.0443 -0.0245,-0.0442 0,0 z"
                    id="path1122"
                />
                <path
                    fill="#282a13"
                    opacity="1"
                    stroke="none"
                    d="m 32.9747,17.795277 c 0.0162,-0.0135 0.40234,0.26483 0.40234,0.26483 0,0 -0.32892,0.002 -0.38721,-0.10867 -0.0583,-0.11032 -0.0313,-0.14267 -0.0151,-0.15616 z"
                    id="path1123"
                />
                <path
                    fill="#343d22"
                    opacity="1"
                    stroke="none"
                    d="m 52.47946,20.284777 c 0.0189,0.0369 -0.0189,-0.0369 0,0 z"
                    id="path1124"
                />
                <path
                    fill="#343d22"
                    opacity="1"
                    stroke="none"
                    d="m 33.94729,50.809496 c -0.0107,0.002 0.0415,0.45554 0.0737,0.68064 0.0322,0.22509 -0.0811,0.32827 -0.14117,0.37918 -0.20404,-0.15091 -0.36957,-0.3422 -0.47672,-0.56192 -0.0272,-0.0557 0.13172,-0.20203 0.37754,-0.39243 0.17245,-0.0858 0.17737,-0.10766 0.16662,-0.10547 z"
                    id="path1125"
                />
                <path
                    fill="#343d22"
                    opacity="1"
                    stroke="none"
                    d="m 38.96448,47.802236 c -0.10758,-0.12338 -0.22266,-0.24094 -0.33774,-0.35852 0.073,0.0449 0.14593,0.0898 0.26886,0.25714 0.0499,0.12244 0.0614,0.10724 0.0689,0.10138 z"
                    id="path1126"
                />
                <path
                    fill="#62554a"
                    opacity="1"
                    stroke="none"
                    d="m 48.06192,69.549616 c -1.4198,5.32824 -0.64072,10.43277 -1.00842,15.83065 -2.7627,2.43671 -3.90476,0.0504 -5.58072,-1.86657 -0.64365,-1.04862 -0.86698,-1.82343 -0.98337,-3.02283 -0.0805,-1.63913 -0.20825,-2.8906 0.15118,-4.47562 0.28281,-1.19162 0.58469,-2.02938 0.28687,-3.25454 -0.14582,-0.55341 -0.2013,-0.78022 -0.31012,-1.36161 -0.20386,-1.62338 -0.0852,-2.85052 0.751,-4.30768 0.47367,-0.4143 0.70743,-0.52471 1.27793,-0.44274 1.58737,0.0634 3.10293,0.70224 3.90677,-0.78904 0.48205,-0.89434 -0.0496,-1.55078 -1.25479,-1.98166 -0.10688,-2.14526 1.46572,-1.99975 3.30188,-2.04153 2.25668,2.72507 -0.94141,4.80161 -0.53821,7.71317 z"
                    id="path1127"
                />
                <path
                    fill="#3c1e18"
                    opacity="1"
                    stroke="none"
                    d="m 42.87384,66.469226 c 0.10916,0.37183 -0.36676,0.38513 -0.60452,0.37281 -1.22855,1.42407 -2.49997,2.6571 -3.47983,4.5238 -0.32264,0.4747 -0.47473,0.65069 -0.92157,1.01965 -7.51471,1.75092 -8.00757,1.52127 -8.93402,-4.2135 0.10305,-1.48273 -0.0727,-2.70987 1.68753,-3.29693 1.77542,-0.64576 3.2001,-1.38254 5.04879,-0.30311 2.53122,0.70261 5.19193,-0.83428 7.20362,1.89728 z"
                    id="path1128"
                />
                <path
                    fill="#4b2d24"
                    opacity="1"
                    stroke="none"
                    d="m 35.82547,64.519526 c -1.39637,0.40991 -2.9054,0.57016 -4.64166,0.50717 -0.2277,-0.66513 -0.22806,-1.10703 -0.2291,-1.88028 1.06714,-0.33438 2.13492,-0.33744 3.60318,-0.34 0.65192,0.48813 0.90341,0.9758 1.26758,1.71311 z"
                    id="path1129"
                />
                <path
                    fill="#62554a"
                    opacity="1"
                    stroke="none"
                    d="m 44.95199,63.801506 c -0.005,-0.006 -0.20041,0.34942 -0.20041,0.34942 0,0 0.0258,-0.2376 0.12186,-0.28588 0.096,-0.0483 0.0831,-0.0571 0.0786,-0.0635 z"
                    id="path1130"
                />
                <path
                    fill="#181d0d"
                    opacity="1"
                    stroke="none"
                    d="m 44.30624,10.879537 c -0.23266,-0.34662 -0.0432,-0.60907 0.42889,-0.9444296 1.33973,0.1652896 3.64301,-0.61041 3.38251,0.7867196 -0.39004,2.09201 -2.24801,0.0147 -3.8114,0.15771 z"
                    id="path1131"
                />
                <path
                    fill="#556b35"
                    opacity="1"
                    stroke="none"
                    d="m 57.83432,17.618367 c -0.14057,0.018 -0.42398,-0.18927 -0.86145,-0.61474 0.13684,-0.0157 0.4277,0.18689 0.86145,0.61474 z"
                    id="path1132"
                />
                <path
                    fill="#556b35"
                    opacity="1"
                    stroke="none"
                    d="m 49.94934,3.8134074 c -0.007,0.005 0.41424,0.21765 0.41424,0.21765 0,0 -0.30008,-0.008 -0.34884,-0.12183 -0.0488,-0.11416 -0.0587,-0.10107 -0.0654,-0.0958 z"
                    id="path1133"
                />
                <path
                    fill="#695a4e"
                    opacity="1"
                    stroke="none"
                    d="m 48.97464,94.416066 c -0.93982,1.62402 -1.86887,2.85748 -2.99283,4.37079 -0.87592,0.79974 -1.63541,0.88733 -2.79663,0.49329 -0.49356,-0.42121 -0.63736,-0.64695 -0.86557,-1.26514 0.30172,-2.49701 -0.55615,-4.68756 0.2698,-6.74304 0.77188,-1.92093 1.19355,-4.31296 4.52741,-3.70771 2.29443,1.93357 1.82584,4.25943 1.85782,6.85181 z"
                    id="path1134"
                />
                <path
                    fill="#5d3a33"
                    opacity="1"
                    stroke="none"
                    d="m 47.38485,87.424856 c -4.93045,2.01785 -3.02053,6.51068 -4.02679,10.16809 -1.2298,1.01001 -2.34592,0.90805 -2.54932,-0.2973 -0.72494,-4.29611 -3.0769,-8.63748 0.12033,-13.27143 0.27237,-0.51724 0.40824,-0.70974 0.84366,-1.08993 2.37812,-0.12692 2.11969,3.23633 4.89997,2.81455 0.45031,0.44845 0.54119,0.89575 0.71215,1.67602 z"
                    id="path1135"
                />
                <path
                    fill="#33251c"
                    opacity="1"
                    stroke="none"
                    d="m 43.77401,101.98272 c -0.38482,-0.66247 -0.51117,-1.17908 -0.69848,-2.091194 -0.061,-0.39553 -0.30427,-0.80115 -0.31247,-0.84189 0.68042,-0.16131 1.63424,0.0274 2.6734,-0.038 0.50421,0.27786 0.68307,0.47821 1.0592,0.75809 0.42578,0.832884 1.41739,1.584564 0.71488,2.298004 -0.89115,0.90503 -2.10019,0.7761 -3.4365,-0.085 z"
                    id="path1213"
                />
                <path
                    fill="#502c23"
                    opacity="1"
                    stroke="none"
                    d="m 41.66928,83.550376 c 0.43841,1.03555 1.05618,2.24841 0.75107,2.56125 -3.90686,4.00598 0.36172,7.79709 0.45096,11.70337 0.23538,0.27975 0.20513,0.52343 0.16177,1.13519 -0.12113,0.63824 -0.2291,0.90845 -0.71149,1.402834 -2.96081,0.40274 -5.57043,0.974 -8.21115,-0.647404 -0.0857,-2.035 -0.94357,-2.74325 -2.48495,-2.97348 -1.16233,-0.17355 -1.86246,-1.07876 -1.22803,-2.12085 2.44452,-4.0152 -0.24433,-6.2818 -3.08859,-8.72217 -0.25657,-2.20132 -0.42441,-4.30108 -1.27295,-6.69912 0.38577,-0.3863 0.81985,-0.38446 1.57983,-0.38248 3.01019,1.67291 5.16947,4.59387 9.16678,2.31934 1.38156,-0.78614 3.33774,0.85208 4.88675,2.42352 z"
                    id="path1210"
                />
                <path
                    fill="#493625"
                    opacity="1"
                    stroke="none"
                    d="m 7.72488,37.487417 c 1.77838,1.6742 0.23401,2.17102 -0.75799,3.11609 -0.50763,0.56961 -0.88953,0.79086 -1.66987,0.93408 -1.01876,-0.0331 -1.64111,-0.29043 -2.55477,-0.69989 C 1.92218,40.274647 1.5329,39.765217 1.21286,38.841727 1.03225,37.741107 1.06781,36.926137 0.72867,35.857967 0.40298,34.979207 0.21991,34.376087 0,33.440907 c 0.52255,-3.81149 2.39947,-6.96997 2.71573,-10.85162 0.96011,-1.05899 1.80816,-1.75946 2.90881,-2.64325 0.49194,-0.12003 0.67981,-0.11252 1.15045,-0.0906 1.595,1.35288 4.90659,0.79325 4.13846,4.46473 -0.87048,4.62045 -3.31763,8.43957 -3.18857,13.16723 z"
                    id="path1410"
                />
                <path
                    fill="#907a60"
                    opacity="1"
                    stroke="none"
                    d="m 5.95987,19.473807 c -0.33036,1.34772 0.26138,2.77432 -1.70496,3.15827 -1.25977,-0.44712 -1.76974,-1.22126 -2.07684,-2.54206 0.0101,-1.37323 0.43088,-2.2117 1.48761,-3.06213 0.32199,-0.16089 0.80978,-0.17795 1.05285,-0.19965 1.21894,0.47205 1.39423,1.32065 1.24134,2.64557 z"
                    id="path1411"
                />
                <path
                    fill="#181d0d"
                    opacity="1"
                    stroke="none"
                    d="m 28.22165,11.529537 c -1.125,0.26748 -1.94257,0.30035 -3.16761,0.37036 -1.72317,0.071 -2.66589,-0.53888 -3.3919,-1.9991496 0.0245,-0.83435 0.27868,-1.20709 1.04858,-1.32776 1.40894,0.15268 2.48386,0.18335 3.96198,0.2229 0.81588,0.45777 0.75515,1.06559 1.1084,1.8172896 0.17327,0.2247 0.18151,0.18958 0.16375,0.19278 0.18292,0.1651 0.38361,0.32703 0.2768,0.72358 z"
                    id="path1412"
                />
                <path
                    fill="#727d45"
                    opacity="1"
                    stroke="none"
                    d="m 21.68731,9.4694774 c 1.05747,0.8324196 1.76438,1.4953296 2.71525,2.3129196 -1.49607,1.97968 -2.61475,-0.0555 -4.19559,-0.76611 -0.2103,-0.24005 -0.21485,-0.68542 -0.2276,-0.90774 0.35003,-0.6372396 0.80676,-0.8326496 1.70794,-0.6390696 z"
                    id="path1413"
                />
                <path
                    fill="#282a13"
                    opacity="1"
                    stroke="none"
                    d="m 22.16952,9.4475574 c -0.59097,0.25531 -1.05026,0.31916 -1.85626,0.41083 -0.17566,-1.62613 0.59705,-2.31109 2.48938,-1.3732 -0.0368,0.35569 -0.28467,0.54273 -0.63312,0.96237 z"
                    id="path1414"
                />
                <path
                    fill="#62554a"
                    opacity="1"
                    stroke="none"
                    d="m 28.00619,10.505297 c -0.36175,-0.14257 -0.67166,-0.6176996 -0.95593,-1.3966596 0.0256,-0.30384 0.39661,-0.27494 0.58112,-0.26581 0.26526,0.44937 0.34597,0.88962 0.37481,1.6624696 z"
                    id="path1415"
                />
                <path
                    fill="#181d0d"
                    opacity="1"
                    stroke="none"
                    d="m 45.90756,4.5589174 c -0.80972,0.60914 -1.58749,0.97037 -2.66931,0.33493 -0.92716,-0.62982 -1.62091,-1.15554 -2.40811,-1.75204 1.77758,-0.74155 3.0364,0.29593 4.76211,0.61829 0.3458,0.21569 0.34647,0.38287 0.31531,0.79882 z"
                    id="path1419"
                />
                <path
                    fill="#515422"
                    opacity="1"
                    stroke="none"
                    d="m 4.1148,40.491997 c 0.85566,0.18802 1.37091,0.246 2.27088,0.32294 3.84598,0.0237 6.22494,1.318079 6.43118,5.501339 -0.34711,1.37643 -1.23657,1.50842 -2.39007,1.68719 -1.24628,-0.18423 -2.17142,-0.33075 -3.30158,-0.29229 -1.26605,0.6322 -2.13638,1.91989 -3.7785,0.66888 -1.15296,-2.47345 -3.06311,-4.49478 -1.2363,-7.398619 0.70599,-0.4722 1.17105,-0.59921 2.00439,-0.48944 z"
                    id="path1420"
                />
                <path
                    fill="#181d0d"
                    opacity="1"
                    stroke="none"
                    d="m 7.94162,37.507617 c -3.59555,-4.81503 -0.0887,-8.48581 2.7077,-12.58001 0.76749,0.11898 1.28595,0.47275 2.12408,0.86938 0.59882,0.46063 0.70221,0.91812 0.41031,1.70725 -0.21798,0.74948 -0.21643,1.207 -0.20193,2.00747 0.3269,2.00852 -1.16608,3.48783 -0.77112,5.76001 -0.45248,0.56339 -0.62067,0.55783 -1.04108,0.5437 -1.21078,-0.55801 -1.9306,0.0438 -2.93029,0.72095 -0.24863,0.22589 -0.28113,0.72281 -0.29767,0.97125 z"
                    id="path1421"
                />
                <path
                    fill="#181d0d"
                    opacity="1"
                    stroke="none"
                    d="m 16.70163,33.696037 c 1.16556,1.59222 1.51226,3.37985 3.28054,3.98456 2.76252,0.94479 1.86262,2.51211 0.54279,4.494749 -1.81723,-3.561709 -6.29575,-2.729309 -8.51761,-6.008849 -0.081,-0.32584 0.002,-0.41605 0.0435,-0.46112 1.26007,-1.25488 2.26157,-2.88608 4.65076,-2.00934 z"
                    id="path1422"
                />
                <path
                    fill="#343d22"
                    opacity="1"
                    stroke="none"
                    d="m 16.83127,33.655327 c -1.28263,0.90011 -2.67829,1.47473 -4.40638,2.02716 -2.19085,-1.9747 -4.16818,-3.93829 0.36414,-5.57266 2.40314,-0.1214 2.7337,2.01272 4.04224,3.5455 z"
                    id="path1423"
                />
                <path
                    fill="#181d0d"
                    opacity="1"
                    stroke="none"
                    d="m 10.32089,48.189596 c 0.47446,-0.62082 1.16412,-1.01779 2.14844,-1.46243 0.96496,-0.39154 1.63528,-0.73538 2.47513,-0.91587 0.77703,1.66114 -2.04416,3.43488 0.8692,4.82334 -1.09799,1.39471 -2.48258,2.6419 -3.09973,-0.58054 -0.21753,-1.1358 -1.43375,-1.11291 -2.39304,-1.8645 z"
                    id="path1424"
                />
                <path
                    fill="#181d0d"
                    opacity="1"
                    stroke="none"
                    d="m 28.27585,19.729427 c -0.50168,-0.21024 -0.70902,-0.44968 -1.14069,-0.80585 -1.23966,-3.5585 0.51093,-4.390557 3.79605,-3.322017 0.0596,1.63834 -0.56168,3.379877 -2.65536,4.127867 z"
                    id="path1425"
                />
                <path
                    fill="#181d0d"
                    opacity="1"
                    stroke="none"
                    d="m 13.98526,22.056877 c 0.21307,-1.87744 1.16528,-2.41516 2.69134,-2.03223 0.69989,0.1756 1.18064,0.72464 0.99695,1.38687 -0.44809,1.61512 -1.58481,2.25287 -3.47241,1.64438 -0.21628,-0.39462 -0.20773,-0.56735 -0.21588,-0.99902 z"
                    id="path1426"
                />
                <path
                    fill="#6c6b35"
                    opacity="1"
                    stroke="none"
                    d="m 24.84213,39.212697 c 1.80551,-1.24866 3.25278,-1.91351 3.97479,0.93109 -0.0272,1.37216 -0.86892,1.23438 -1.90252,1.43866 -0.8722,-0.0335 -1.39084,-0.1643 -2.05936,-0.5271 -0.36939,-0.67486 -0.40778,-1.13595 -0.0129,-1.84265 z"
                    id="path1427"
                />
                <path
                    fill="#343d22"
                    opacity="1"
                    stroke="none"
                    d="m 13.30362,27.811727 c -0.32572,-0.45163 -0.31198,-0.88766 -0.2544,-1.64779 1.13217,-0.20002 2.80612,-0.6428 2.91385,0.81109 0.10379,1.40033 -1.48434,0.63843 -2.65945,0.8367 z"
                    id="path1428"
                />
                <path
                    fill="#181d0d"
                    opacity="1"
                    stroke="none"
                    d="m 24.94256,38.826227 c 0.10013,0.56927 0.0248,0.98181 -0.14398,1.69574 -0.53271,0.38073 -0.97204,0.46008 -1.41137,0.53946 -0.18345,-1.16849 0.003,-2.12378 1.55535,-2.2352 z"
                    id="path1429"
                />
                <path
                    fill="#493625"
                    opacity="1"
                    stroke="none"
                    d="m 8.30203,36.745777 c -0.0494,-1.49194 0.62991,-2.26175 2.41894,-1.1773 -0.57162,0.5458 -1.33956,0.8533 -2.41894,1.1773 z"
                    id="path1430"
                />
                <path
                    fill="#493625"
                    opacity="1"
                    stroke="none"
                    d="m 13.73523,21.719597 c 0.32867,0.35235 0.42401,0.62628 0.38022,1.00732 -0.67487,-0.18164 -1.61545,-0.41775 -1.66129,-0.7702 -0.0925,-0.71136 0.60605,-0.42889 1.28107,-0.23712 z"
                    id="path1431"
                />
                <path
                    fill="#181d0d"
                    opacity="1"
                    stroke="none"
                    d="m 26.88949,41.805746 c 0.21753,-0.475889 0.76364,-0.825779 1.62824,-1.265959 0.50387,0.23514 0.68933,0.56055 1.08404,1.0719 0.20926,0.185879 0.28717,0.671659 0.24842,0.914429 -0.9032,-0.0363 -1.76764,-0.31534 -2.9607,-0.72037 z"
                    id="path1432"
                />
                <path
                    fill="#62554a"
                    opacity="1"
                    stroke="none"
                    d="m 28.16909,11.754717 c -0.25491,0.009 -0.23931,-0.46798 -0.24066,-0.70675 0.38001,-0.15747 0.76129,-0.0761 1.14258,0.005 -0.21564,0.23071 -0.4313,0.46142 -0.90192,0.70156 z"
                    id="path1433"
                />
                <path
                    fill="#493625"
                    opacity="1"
                    stroke="none"
                    d="m 11.42395,39.314387 c -0.0159,-0.0322 0.0159,0.0322 0,0 z"
                    id="path1434"
                />
                <path
                    fill="#391e18"
                    opacity="1"
                    stroke="none"
                    d="m 19.86572,82.945456 c -4.70563,-2.06363 -5.08935,-6.34766 -4.65231,-11.35159 0.0468,-0.40296 0.0157,-0.49442 -0.0255,-0.51954 0.087,-0.4812 0.38807,-0.71307 1.15039,-0.57305 6.07462,2.79681 3.35276,7.79309 3.52744,12.44418 z"
                    id="path1437"
                />
                <path
                    fill="#978a78"
                    opacity="1"
                    stroke="none"
                    d="m 16.62521,70.421686 c -0.32184,0.34362 -0.64538,0.45993 -1.22372,0.60186 -0.12842,-2.2561 -0.002,-4.53787 0.37466,-7.03698 1.25922,1.11343 1.04691,2.62506 0.84509,4.50787 -0.0487,0.37994 -0.0883,0.81409 -0.0707,1.03134 0.0176,0.21726 0.0729,0.66858 0.0746,0.89591 z"
                    id="path1438"
                />
                <path
                    fill="#93816e"
                    opacity="1"
                    stroke="none"
                    d="m 16.64163,69.526236 c -0.28592,0.0233 -0.33969,-0.20273 -0.15192,-0.55658 0.0828,-0.0953 0.22541,0.33978 0.15192,0.55658 z"
                    id="path1439"
                />
                <path
                    fill="#43241d"
                    opacity="1"
                    stroke="none"
                    d="m 41.94821,83.528856 c -1.49912,0.25608 -2.97308,0.36646 -4.15024,-0.84927 -0.59491,-0.61432 -1.58423,-1.01062 -2.15832,-0.23767 -6.01593,8.10028 -4.73282,-2.94931 -7.67661,-3.2637 0.97928,-3.95133 -1.72134,-7.65158 0.68591,-11.27594 1.26035,5.0878 5.42978,3.4631 8.96259,3.9071 2.32342,2.17334 0.58322,6.09241 4.20108,7.82459 0.24567,0.95288 0.23532,1.67389 0.24231,2.75378 -0.0142,0.53207 -0.0458,0.70532 -0.10672,1.14111 z"
                    id="path1440"
                />
                <path
                    fill="#2f211a"
                    opacity="1"
                    stroke="none"
                    d="m 42.08178,79.446856 c -5.74307,0.0677 -5.74307,0.0677 -4.13088,-7.2211 0.0128,-0.40265 0.009,-0.41571 0.0148,-0.41339 0.99548,-0.83233 2.07562,-1.07901 3.64364,-0.24609 0.36118,0.25525 0.4679,0.64798 0.49124,0.8501 0.31052,0.68164 0.41001,1.19735 0.11261,2.09509 -0.17889,1.73602 -0.14856,3.12625 -0.13138,4.93539 z"
                    id="path1441"
                />
                <path
                    fill="#43241d"
                    opacity="1"
                    stroke="none"
                    d="m 41.98007,71.404716 c -1.07642,0.41504 -2.14325,0.41327 -3.60938,0.4107 -2.16446,-3.65057 0.66599,-4.0101 3.32483,-4.8594 0.32206,1.25973 0.30808,2.64578 0.28455,4.4487 z"
                    id="path1442"
                />
                <path
                    fill="#45282d"
                    opacity="1"
                    stroke="none"
                    d="m 42.29123,74.812676 c -0.28266,-0.45322 -0.27802,-0.95102 -0.22034,-1.82154 1.15234,0.14341 2.39819,0.62848 0.22034,1.82154 z"
                    id="path1443"
                />
                <path
                    fill="#282a13"
                    opacity="1"
                    stroke="none"
                    d="m 7.21396,24.890987 c -0.15348,-0.71659 -0.0781,-1.4635 0.72323,-1.49112 0.28302,-0.01 0.82135,0.56012 0.83612,0.88394 0.0433,0.94836 -0.61358,0.9331 -1.55935,0.60718 z"
                    id="path1746"
                />
                <path
                    fill="#282a13"
                    opacity="1"
                    stroke="none"
                    d="m 6.95437,24.805777 c -0.14599,0.41525 -0.28985,0.83279 -0.43368,1.25037 -0.25723,-0.10349 -0.67325,-0.14447 -0.74298,-0.32172 -0.24271,-0.61703 0.2698,-0.74042 0.94973,-0.89276 0.23368,-0.0293 0.22907,-0.0336 0.22693,-0.0359 z"
                    id="path1747"
                />
                <path
                    fill="#83715c"
                    opacity="1"
                    stroke="none"
                    d="m 3.33172,40.941307 c -0.2576,-0.13931 -0.28909,-0.34213 -0.34253,-0.85227 0.43497,-0.18234 0.89182,-0.0574 1.40735,0.3003 -0.24435,0.30438 -0.54349,0.38965 -1.06482,0.55197 z"
                    id="path1748"
                />
                <path
                    fill="#9d886f"
                    opacity="1"
                    stroke="none"
                    d="m 2.32119,37.959827 c -0.27859,-0.39346 -0.29605,-0.99249 -0.28863,-2.04126 0.80472,0.17313 1.12787,0.90094 0.28863,2.04126 z"
                    id="path1749"
                />
                <path
                    fill="#868a51"
                    opacity="1"
                    stroke="none"
                    d="m 5.80841,42.468866 c 0.47433,-0.22452 1.04333,-0.24088 1.60217,-0.17319 0.0627,0.008 0.18945,0.63913 0.0793,0.72983 -0.61933,0.51004 -1.08741,-0.0494 -1.68152,-0.55664 z"
                    id="path1751"
                />
                <path
                    fill="#4c443f"
                    opacity="1"
                    stroke="none"
                    d="m 23.33554,97.959416 c 0.44361,2.775114 -2.64729,3.321434 -3.02198,5.667414 0.10729,0.44627 0.35381,0.53654 0.95962,0.78838 1.41666,0.0574 2.47405,-0.0467 3.89359,-0.32269 2.21352,-1.22885 2.27663,-2.91435 1.78482,-5.130184 -0.54503,-0.87165 -1.07398,0.0494 -2.073,-0.17982 -0.7102,0.021 -0.9278,-1.1623 -1.54305,-0.8231 z"
                    id="path1"
                />
            </svg>
